G04 (created by PCBNEW-RS274X (2012-01-19 BZR 3256)-stable) date 13-Nov-12 3:44:42 PM*
G01*
G70*
G90*
%MOIN*%
G04 Gerber Fmt 3.4, Leading zero omitted, Abs format*
%FSLAX34Y34*%
G04 APERTURE LIST*
%ADD10C,0.006000*%
%ADD11C,0.015000*%
%ADD12C,0.012000*%
%ADD13C,0.011800*%
%ADD14C,0.055000*%
%ADD15R,0.060000X0.060000*%
%ADD16C,0.060000*%
%ADD17C,0.070000*%
%ADD18R,0.070000X0.070000*%
%ADD19C,0.052000*%
%ADD20O,0.050000X0.100000*%
%ADD21R,0.100000X0.100000*%
%ADD22C,0.100000*%
%ADD23C,0.160000*%
%ADD24C,0.059100*%
%ADD25C,0.035000*%
%ADD26C,0.023600*%
%ADD27C,0.010000*%
G04 APERTURE END LIST*
G54D10*
G54D11*
X22441Y-24409D02*
X51575Y-24409D01*
X22441Y-09449D02*
X22441Y-24409D01*
X51575Y-09449D02*
X22441Y-09449D01*
X51575Y-24409D02*
X51575Y-09449D01*
G54D12*
X56142Y-19413D02*
X56104Y-19384D01*
X56066Y-19327D01*
X56066Y-19184D01*
X56104Y-19127D01*
X56142Y-19098D01*
X56218Y-19070D01*
X56294Y-19071D01*
X56409Y-19099D01*
X56866Y-19443D01*
X56866Y-19072D01*
X56410Y-18728D02*
X56372Y-18786D01*
X56333Y-18814D01*
X56257Y-18842D01*
X56219Y-18842D01*
X56143Y-18813D01*
X56105Y-18785D01*
X56067Y-18727D01*
X56067Y-18613D01*
X56105Y-18556D01*
X56143Y-18527D01*
X56219Y-18499D01*
X56257Y-18499D01*
X56333Y-18528D01*
X56372Y-18557D01*
X56410Y-18614D01*
X56410Y-18728D01*
X56448Y-18786D01*
X56486Y-18814D01*
X56562Y-18843D01*
X56714Y-18843D01*
X56791Y-18814D01*
X56829Y-18786D01*
X56867Y-18729D01*
X56867Y-18615D01*
X56829Y-18557D01*
X56791Y-18528D01*
X56714Y-18500D01*
X56562Y-18500D01*
X56486Y-18528D01*
X56448Y-18557D01*
X56410Y-18614D01*
X56830Y-18215D02*
X56868Y-18216D01*
X56944Y-18244D01*
X56982Y-18273D01*
X56068Y-17842D02*
X56069Y-17785D01*
X56107Y-17728D01*
X56145Y-17699D01*
X56221Y-17670D01*
X56374Y-17643D01*
X56564Y-17643D01*
X56716Y-17671D01*
X56793Y-17700D01*
X56831Y-17729D01*
X56869Y-17787D01*
X56868Y-17844D01*
X56830Y-17900D01*
X56792Y-17929D01*
X56715Y-17957D01*
X56563Y-17986D01*
X56373Y-17986D01*
X56220Y-17956D01*
X56144Y-17928D01*
X56106Y-17899D01*
X56068Y-17842D01*
X56069Y-17271D02*
X56070Y-17214D01*
X56108Y-17157D01*
X56146Y-17128D01*
X56222Y-17099D01*
X56375Y-17072D01*
X56565Y-17072D01*
X56717Y-17100D01*
X56794Y-17129D01*
X56832Y-17158D01*
X56870Y-17216D01*
X56869Y-17273D01*
X56831Y-17329D01*
X56793Y-17358D01*
X56716Y-17386D01*
X56564Y-17415D01*
X56374Y-17415D01*
X56221Y-17385D01*
X56145Y-17357D01*
X56107Y-17328D01*
X56069Y-17271D01*
X56871Y-16502D02*
X56870Y-16845D01*
X56870Y-16673D02*
X56070Y-16671D01*
X56184Y-16728D01*
X56260Y-16787D01*
X56298Y-16844D01*
X56872Y-15788D02*
X56338Y-15787D01*
X56415Y-15787D02*
X56377Y-15759D01*
X56338Y-15701D01*
X56338Y-15616D01*
X56377Y-15559D01*
X56453Y-15530D01*
X56872Y-15531D01*
X56453Y-15530D02*
X56377Y-15501D01*
X56339Y-15444D01*
X56339Y-15359D01*
X56378Y-15301D01*
X56454Y-15273D01*
X56873Y-15274D01*
X56873Y-14988D02*
X56339Y-14987D01*
X56416Y-14987D02*
X56378Y-14959D01*
X56340Y-14901D01*
X56340Y-14816D01*
X56379Y-14759D01*
X56455Y-14730D01*
X56874Y-14731D01*
X56455Y-14730D02*
X56379Y-14701D01*
X56340Y-14644D01*
X56340Y-14559D01*
X56379Y-14501D01*
X56455Y-14473D01*
X56874Y-14474D01*
X55906Y-22441D02*
X55906Y-11417D01*
X51575Y-22441D02*
X57186Y-22441D01*
X51575Y-11417D02*
X57186Y-11417D01*
X55906Y-11417D02*
X56136Y-11860D01*
X55906Y-11417D02*
X55676Y-11860D01*
X55906Y-22441D02*
X56136Y-21998D01*
X55906Y-22441D02*
X55676Y-21998D01*
X34612Y-30084D02*
X34498Y-30084D01*
X34441Y-30122D01*
X34412Y-30160D01*
X34355Y-30274D01*
X34326Y-30427D01*
X34326Y-30731D01*
X34355Y-30808D01*
X34383Y-30846D01*
X34441Y-30884D01*
X34555Y-30884D01*
X34612Y-30846D01*
X34641Y-30808D01*
X34669Y-30731D01*
X34669Y-30541D01*
X34641Y-30465D01*
X34612Y-30427D01*
X34555Y-30389D01*
X34441Y-30389D01*
X34383Y-30427D01*
X34355Y-30465D01*
X34326Y-30541D01*
X35183Y-30350D02*
X35183Y-30884D01*
X35040Y-30046D02*
X34897Y-30617D01*
X35269Y-30617D01*
X35525Y-30846D02*
X35525Y-30884D01*
X35497Y-30960D01*
X35468Y-30998D01*
X35811Y-30884D02*
X35926Y-30884D01*
X35983Y-30846D01*
X36011Y-30808D01*
X36069Y-30693D01*
X36097Y-30541D01*
X36097Y-30236D01*
X36069Y-30160D01*
X36040Y-30122D01*
X35983Y-30084D01*
X35869Y-30084D01*
X35811Y-30122D01*
X35783Y-30160D01*
X35754Y-30236D01*
X35754Y-30427D01*
X35783Y-30503D01*
X35811Y-30541D01*
X35869Y-30579D01*
X35983Y-30579D01*
X36040Y-30541D01*
X36069Y-30503D01*
X36097Y-30427D01*
X36382Y-30884D02*
X36497Y-30884D01*
X36554Y-30846D01*
X36582Y-30808D01*
X36640Y-30693D01*
X36668Y-30541D01*
X36668Y-30236D01*
X36640Y-30160D01*
X36611Y-30122D01*
X36554Y-30084D01*
X36440Y-30084D01*
X36382Y-30122D01*
X36354Y-30160D01*
X36325Y-30236D01*
X36325Y-30427D01*
X36354Y-30503D01*
X36382Y-30541D01*
X36440Y-30579D01*
X36554Y-30579D01*
X36611Y-30541D01*
X36640Y-30503D01*
X36668Y-30427D01*
X36953Y-30884D02*
X37068Y-30884D01*
X37125Y-30846D01*
X37153Y-30808D01*
X37211Y-30693D01*
X37239Y-30541D01*
X37239Y-30236D01*
X37211Y-30160D01*
X37182Y-30122D01*
X37125Y-30084D01*
X37011Y-30084D01*
X36953Y-30122D01*
X36925Y-30160D01*
X36896Y-30236D01*
X36896Y-30427D01*
X36925Y-30503D01*
X36953Y-30541D01*
X37011Y-30579D01*
X37125Y-30579D01*
X37182Y-30541D01*
X37211Y-30503D01*
X37239Y-30427D01*
X37953Y-30884D02*
X37953Y-30350D01*
X37953Y-30427D02*
X37981Y-30389D01*
X38039Y-30350D01*
X38124Y-30350D01*
X38181Y-30389D01*
X38210Y-30465D01*
X38210Y-30884D01*
X38210Y-30465D02*
X38239Y-30389D01*
X38296Y-30350D01*
X38381Y-30350D01*
X38439Y-30389D01*
X38467Y-30465D01*
X38467Y-30884D01*
X38753Y-30884D02*
X38753Y-30350D01*
X38753Y-30427D02*
X38781Y-30389D01*
X38839Y-30350D01*
X38924Y-30350D01*
X38981Y-30389D01*
X39010Y-30465D01*
X39010Y-30884D01*
X39010Y-30465D02*
X39039Y-30389D01*
X39096Y-30350D01*
X39181Y-30350D01*
X39239Y-30389D01*
X39267Y-30465D01*
X39267Y-30884D01*
X24016Y-29920D02*
X49606Y-29920D01*
X24016Y-24409D02*
X24016Y-31200D01*
X49606Y-24409D02*
X49606Y-31200D01*
X49606Y-29920D02*
X49163Y-30150D01*
X49606Y-29920D02*
X49163Y-29690D01*
X24016Y-29920D02*
X24459Y-30150D01*
X24016Y-29920D02*
X24459Y-29690D01*
G54D13*
X49671Y-13130D02*
X49671Y-13355D01*
X49829Y-13085D02*
X49278Y-13242D01*
X49829Y-13400D01*
X49671Y-13535D02*
X49671Y-13760D01*
X49829Y-13490D02*
X49278Y-13647D01*
X49829Y-13805D01*
X49278Y-13962D02*
X49724Y-13962D01*
X49776Y-13985D01*
X49802Y-14007D01*
X49829Y-14052D01*
X49829Y-14142D01*
X49802Y-14187D01*
X49776Y-14210D01*
X49724Y-14232D01*
X49278Y-14232D01*
X49802Y-14434D02*
X49829Y-14501D01*
X49829Y-14614D01*
X49802Y-14659D01*
X49776Y-14681D01*
X49724Y-14704D01*
X49671Y-14704D01*
X49619Y-14681D01*
X49592Y-14659D01*
X49566Y-14614D01*
X49540Y-14524D01*
X49514Y-14479D01*
X49487Y-14456D01*
X49435Y-14434D01*
X49382Y-14434D01*
X49330Y-14456D01*
X49304Y-14479D01*
X49278Y-14524D01*
X49278Y-14636D01*
X49304Y-14704D01*
X49829Y-14906D02*
X49278Y-14906D01*
X49540Y-14906D02*
X49540Y-15176D01*
X49829Y-15176D02*
X49278Y-15176D01*
X49829Y-15400D02*
X49278Y-15400D01*
X49829Y-15625D02*
X49278Y-15625D01*
X49278Y-15805D01*
X49304Y-15850D01*
X49330Y-15873D01*
X49382Y-15895D01*
X49461Y-15895D01*
X49514Y-15873D01*
X49540Y-15850D01*
X49566Y-15805D01*
X49566Y-15625D01*
X49829Y-16457D02*
X49278Y-16457D01*
X49487Y-16457D02*
X49461Y-16502D01*
X49461Y-16592D01*
X49487Y-16637D01*
X49514Y-16660D01*
X49566Y-16682D01*
X49724Y-16682D01*
X49776Y-16660D01*
X49802Y-16637D01*
X49829Y-16592D01*
X49829Y-16502D01*
X49802Y-16457D01*
X49829Y-16952D02*
X49802Y-16907D01*
X49776Y-16884D01*
X49724Y-16862D01*
X49566Y-16862D01*
X49514Y-16884D01*
X49487Y-16907D01*
X49461Y-16952D01*
X49461Y-17019D01*
X49487Y-17064D01*
X49514Y-17087D01*
X49566Y-17109D01*
X49724Y-17109D01*
X49776Y-17087D01*
X49802Y-17064D01*
X49829Y-17019D01*
X49829Y-16952D01*
X49461Y-17266D02*
X49829Y-17356D01*
X49566Y-17446D01*
X49829Y-17536D01*
X49461Y-17626D01*
X49461Y-18098D02*
X49461Y-18278D01*
X49278Y-18165D02*
X49750Y-18165D01*
X49802Y-18188D01*
X49829Y-18233D01*
X49829Y-18278D01*
X49829Y-18435D02*
X49278Y-18435D01*
X49829Y-18638D02*
X49540Y-18638D01*
X49487Y-18615D01*
X49461Y-18570D01*
X49461Y-18503D01*
X49487Y-18458D01*
X49514Y-18435D01*
X49829Y-18862D02*
X49461Y-18862D01*
X49566Y-18862D02*
X49514Y-18885D01*
X49487Y-18907D01*
X49461Y-18952D01*
X49461Y-18997D01*
X49461Y-19357D02*
X49829Y-19357D01*
X49461Y-19154D02*
X49750Y-19154D01*
X49802Y-19177D01*
X49829Y-19222D01*
X49829Y-19289D01*
X49802Y-19334D01*
X49776Y-19357D01*
X49802Y-19559D02*
X49829Y-19604D01*
X49829Y-19694D01*
X49802Y-19739D01*
X49750Y-19761D01*
X49724Y-19761D01*
X49671Y-19739D01*
X49645Y-19694D01*
X49645Y-19626D01*
X49619Y-19581D01*
X49566Y-19559D01*
X49540Y-19559D01*
X49487Y-19581D01*
X49461Y-19626D01*
X49461Y-19694D01*
X49487Y-19739D01*
X49461Y-19896D02*
X49461Y-20076D01*
X49278Y-19963D02*
X49750Y-19963D01*
X49802Y-19986D01*
X49829Y-20031D01*
X49829Y-20076D01*
X49802Y-20413D02*
X49829Y-20368D01*
X49829Y-20278D01*
X49802Y-20233D01*
X49750Y-20211D01*
X49540Y-20211D01*
X49487Y-20233D01*
X49461Y-20278D01*
X49461Y-20368D01*
X49487Y-20413D01*
X49540Y-20436D01*
X49592Y-20436D01*
X49645Y-20211D01*
X49829Y-20638D02*
X49461Y-20638D01*
X49566Y-20638D02*
X49514Y-20661D01*
X49487Y-20683D01*
X49461Y-20728D01*
X49461Y-20773D01*
X50219Y-15219D02*
X50193Y-15241D01*
X50167Y-15286D01*
X50167Y-15399D01*
X50193Y-15444D01*
X50219Y-15466D01*
X50271Y-15489D01*
X50324Y-15489D01*
X50403Y-15466D01*
X50718Y-15196D01*
X50718Y-15489D01*
X50167Y-15781D02*
X50167Y-15826D01*
X50193Y-15871D01*
X50219Y-15894D01*
X50271Y-15916D01*
X50376Y-15939D01*
X50508Y-15939D01*
X50613Y-15916D01*
X50665Y-15894D01*
X50691Y-15871D01*
X50718Y-15826D01*
X50718Y-15781D01*
X50691Y-15736D01*
X50665Y-15714D01*
X50613Y-15691D01*
X50508Y-15669D01*
X50376Y-15669D01*
X50271Y-15691D01*
X50219Y-15714D01*
X50193Y-15736D01*
X50167Y-15781D01*
X50718Y-16389D02*
X50718Y-16119D01*
X50718Y-16254D02*
X50167Y-16254D01*
X50245Y-16209D01*
X50298Y-16164D01*
X50324Y-16119D01*
X50219Y-16569D02*
X50193Y-16591D01*
X50167Y-16636D01*
X50167Y-16749D01*
X50193Y-16794D01*
X50219Y-16816D01*
X50271Y-16839D01*
X50324Y-16839D01*
X50403Y-16816D01*
X50718Y-16546D01*
X50718Y-16839D01*
X50718Y-17289D02*
X50718Y-17019D01*
X50718Y-17154D02*
X50167Y-17154D01*
X50245Y-17109D01*
X50298Y-17064D01*
X50324Y-17019D01*
X50718Y-17739D02*
X50718Y-17469D01*
X50718Y-17604D02*
X50167Y-17604D01*
X50245Y-17559D01*
X50298Y-17514D01*
X50324Y-17469D01*
X50718Y-18189D02*
X50718Y-17919D01*
X50718Y-18054D02*
X50167Y-18054D01*
X50245Y-18009D01*
X50298Y-17964D01*
X50324Y-17919D01*
X50718Y-18639D02*
X50718Y-18369D01*
X50718Y-18504D02*
X50167Y-18504D01*
X50245Y-18459D01*
X50298Y-18414D01*
X50324Y-18369D01*
G54D14*
X37500Y-15250D03*
X37500Y-11750D03*
G54D15*
X31000Y-22500D03*
G54D16*
X30000Y-22500D03*
X29000Y-22500D03*
X28000Y-22500D03*
G54D15*
X45594Y-22441D03*
G54D16*
X44594Y-22441D03*
X43594Y-22441D03*
X42594Y-22441D03*
G54D17*
X43500Y-20000D03*
G54D18*
X47500Y-20000D03*
G54D17*
X47500Y-14000D03*
G54D18*
X43500Y-14000D03*
G54D17*
X29500Y-20000D03*
G54D18*
X25500Y-20000D03*
G54D17*
X25500Y-16000D03*
G54D18*
X29500Y-16000D03*
G54D17*
X29500Y-18000D03*
G54D18*
X25500Y-18000D03*
G54D17*
X25500Y-14000D03*
G54D18*
X29500Y-14000D03*
G54D17*
X47500Y-16000D03*
G54D18*
X43500Y-16000D03*
G54D17*
X43500Y-18000D03*
G54D18*
X47500Y-18000D03*
G54D19*
X40000Y-13500D03*
X39250Y-14000D03*
X40000Y-14500D03*
X33000Y-14500D03*
X33750Y-14000D03*
X33000Y-13500D03*
G54D20*
X40000Y-17000D03*
X39500Y-19000D03*
X39000Y-17000D03*
X38500Y-19000D03*
X38000Y-17000D03*
X37500Y-19000D03*
X37000Y-17000D03*
X36500Y-19000D03*
X36000Y-17000D03*
X35500Y-19000D03*
X35000Y-17000D03*
X34500Y-19000D03*
X34000Y-17000D03*
X33500Y-19000D03*
X33000Y-17000D03*
G54D14*
X31500Y-19000D03*
X31500Y-17000D03*
X41800Y-17000D03*
X41800Y-19000D03*
X35500Y-15250D03*
X35500Y-11750D03*
X42000Y-15250D03*
X42000Y-11750D03*
X31000Y-15750D03*
X31000Y-12250D03*
G54D21*
X35500Y-22500D03*
G54D22*
X37500Y-22500D03*
G54D21*
X46300Y-11400D03*
G54D22*
X44300Y-11400D03*
G54D21*
X28600Y-11500D03*
G54D22*
X26600Y-11500D03*
G54D23*
X24016Y-22441D03*
X49606Y-22441D03*
X49606Y-11417D03*
X24016Y-11417D03*
G54D24*
X39000Y-20000D03*
X36250Y-20000D03*
X37000Y-16000D03*
X38600Y-16000D03*
X45000Y-15000D03*
X32000Y-22500D03*
X36250Y-14250D03*
X32000Y-16000D03*
G54D25*
X31000Y-22500D03*
G54D24*
X40750Y-15500D03*
X44310Y-16950D03*
X40830Y-17420D03*
X45750Y-19000D03*
X40500Y-18500D03*
X30620Y-17030D03*
X26500Y-16880D03*
X24500Y-19000D03*
X30250Y-19000D03*
G54D26*
X45300Y-10650D02*
X45300Y-13680D01*
X45320Y-10630D02*
X45300Y-10650D01*
X43050Y-10890D02*
X43710Y-10230D01*
X46420Y-16920D02*
X47500Y-18000D01*
X46420Y-14800D02*
X46420Y-16920D01*
X39000Y-20000D02*
X40800Y-20000D01*
X45320Y-10670D02*
X45320Y-10630D01*
X44880Y-10230D02*
X45320Y-10670D01*
X43710Y-10230D02*
X44880Y-10230D01*
X45300Y-13680D02*
X46420Y-14800D01*
X42750Y-18050D02*
X41800Y-19000D01*
X42750Y-15000D02*
X42750Y-18050D01*
X43500Y-14250D02*
X42750Y-15000D01*
X35500Y-22500D02*
X35500Y-21000D01*
X34750Y-23250D02*
X35500Y-22500D01*
X27000Y-22750D02*
X27500Y-23250D01*
X29500Y-14000D02*
X29500Y-16000D01*
X27500Y-23250D02*
X34750Y-23250D01*
X27000Y-19500D02*
X27000Y-22750D01*
X29500Y-17000D02*
X27000Y-19500D01*
X40800Y-20000D02*
X41800Y-19000D01*
X35500Y-21000D02*
X35500Y-20750D01*
X29500Y-16000D02*
X29500Y-17000D01*
X35500Y-20750D02*
X36250Y-20000D01*
X38500Y-19500D02*
X38500Y-19000D01*
X39000Y-20000D02*
X38500Y-19500D01*
X43500Y-14000D02*
X43500Y-14250D01*
X43500Y-14000D02*
X43500Y-12130D01*
X43050Y-11680D02*
X43050Y-10890D01*
X43500Y-12130D02*
X43050Y-11680D01*
X42000Y-12500D02*
X40000Y-14500D01*
X37000Y-16000D02*
X37000Y-17000D01*
X42000Y-11750D02*
X42000Y-12500D01*
X40000Y-14500D02*
X40000Y-14600D01*
X40000Y-14600D02*
X38600Y-16000D01*
X30000Y-16750D02*
X31000Y-15750D01*
X30500Y-18000D02*
X30000Y-17500D01*
X30000Y-17500D02*
X30000Y-16750D01*
X31500Y-19000D02*
X31250Y-19000D01*
X45594Y-22441D02*
X45594Y-21344D01*
X36000Y-17000D02*
X36000Y-16000D01*
X31250Y-19000D02*
X30500Y-18250D01*
X45594Y-21344D02*
X45000Y-20750D01*
X45000Y-20750D02*
X45000Y-15000D01*
X36250Y-15750D02*
X36250Y-14250D01*
X41000Y-15250D02*
X42000Y-15250D01*
X36000Y-16000D02*
X36250Y-15750D01*
X32000Y-16000D02*
X31750Y-15750D01*
X30500Y-18250D02*
X30500Y-18000D01*
X31000Y-22500D02*
X32000Y-22500D01*
X31750Y-15750D02*
X31000Y-15750D01*
X40750Y-15500D02*
X41000Y-15250D01*
X43000Y-23250D02*
X39750Y-23250D01*
X43594Y-22656D02*
X43000Y-23250D01*
X37500Y-21000D02*
X37500Y-19000D01*
X43594Y-22441D02*
X43594Y-22656D01*
X39750Y-23250D02*
X37500Y-21000D01*
X29000Y-22500D02*
X30250Y-21250D01*
X35000Y-19750D02*
X35000Y-17000D01*
X33500Y-21250D02*
X35000Y-19750D01*
X33250Y-21250D02*
X33500Y-21250D01*
X30250Y-21250D02*
X33250Y-21250D01*
X35500Y-12250D02*
X33750Y-14000D01*
X35500Y-11750D02*
X35500Y-12250D01*
X38000Y-20750D02*
X38000Y-17000D01*
X44000Y-21750D02*
X40000Y-21750D01*
X44594Y-22344D02*
X44000Y-21750D01*
X39000Y-21750D02*
X38000Y-20750D01*
X38000Y-17000D02*
X38000Y-15750D01*
X38000Y-15750D02*
X37500Y-15250D01*
X44594Y-22441D02*
X44594Y-22344D01*
X40000Y-21750D02*
X39000Y-21750D01*
X37500Y-11750D02*
X37500Y-12250D01*
X37500Y-12250D02*
X39250Y-14000D01*
X40430Y-17820D02*
X40830Y-17420D01*
X44310Y-16950D02*
X44300Y-16950D01*
X39000Y-17000D02*
X39000Y-17500D01*
X40250Y-18000D02*
X40430Y-17820D01*
X44300Y-16950D02*
X44300Y-17200D01*
X44300Y-16000D02*
X44300Y-16950D01*
X43500Y-16000D02*
X44300Y-16000D01*
X44300Y-15250D02*
X44300Y-16000D01*
X44300Y-11400D02*
X44300Y-15250D01*
X39000Y-17500D02*
X39500Y-18000D01*
X39500Y-18000D02*
X40250Y-18000D01*
X44300Y-17200D02*
X43500Y-18000D01*
X45750Y-19000D02*
X46750Y-19000D01*
X48750Y-18750D02*
X48500Y-19000D01*
X47500Y-19000D02*
X46750Y-19000D01*
X48500Y-19000D02*
X47500Y-19000D01*
X47500Y-19000D02*
X47500Y-20000D01*
X46300Y-11400D02*
X46650Y-11400D01*
X47500Y-12250D02*
X47500Y-14000D01*
X46650Y-11400D02*
X47500Y-12250D01*
X48750Y-15250D02*
X48750Y-18750D01*
X39500Y-19000D02*
X40000Y-19000D01*
X40000Y-19000D02*
X40500Y-18500D01*
X47500Y-14000D02*
X48750Y-15250D01*
X31240Y-17930D02*
X30620Y-17310D01*
X26500Y-14000D02*
X26500Y-16850D01*
X30620Y-17310D02*
X30620Y-17030D01*
X26500Y-16880D02*
X26500Y-16850D01*
X34000Y-17000D02*
X34000Y-17440D01*
X33510Y-17930D02*
X31240Y-17930D01*
X28600Y-11900D02*
X26500Y-14000D01*
X25500Y-14000D02*
X26500Y-14000D01*
X26500Y-16850D02*
X26500Y-17000D01*
X26500Y-17000D02*
X25500Y-18000D01*
X28600Y-11500D02*
X28600Y-11900D01*
X34000Y-17440D02*
X33510Y-17930D01*
X31000Y-13500D02*
X31000Y-12250D01*
X33750Y-15250D02*
X31750Y-15250D01*
X31000Y-13500D02*
X33000Y-13500D01*
X31750Y-15250D02*
X31000Y-14500D01*
X31000Y-14500D02*
X31000Y-13500D01*
X34500Y-16000D02*
X33750Y-15250D01*
X34500Y-19000D02*
X34500Y-16000D01*
X33500Y-19000D02*
X32750Y-19750D01*
X31000Y-19750D02*
X32750Y-19750D01*
X30250Y-19000D02*
X31000Y-19750D01*
X24500Y-16000D02*
X25500Y-16000D01*
X26500Y-11500D02*
X24750Y-13250D01*
X24750Y-13250D02*
X24500Y-13500D01*
X24500Y-16000D02*
X24500Y-19000D01*
X24500Y-13500D02*
X24500Y-16000D01*
X24500Y-19000D02*
X25500Y-20000D01*
X26600Y-11500D02*
X26500Y-11500D01*
X30000Y-22500D02*
X30000Y-22250D01*
X35500Y-20000D02*
X35500Y-19000D01*
X33750Y-21750D02*
X35500Y-20000D01*
X30500Y-21750D02*
X33750Y-21750D01*
X30000Y-22250D02*
X30500Y-21750D01*
X35500Y-19000D02*
X35500Y-15250D01*
G54D10*
G36*
X34132Y-16260D02*
X34098Y-16246D01*
X33903Y-16246D01*
X33723Y-16320D01*
X33585Y-16458D01*
X33510Y-16638D01*
X33510Y-16833D01*
X33510Y-17361D01*
X33524Y-17395D01*
X33446Y-17472D01*
X33500Y-17325D01*
X33500Y-17050D01*
X33500Y-16950D01*
X33500Y-16675D01*
X33433Y-16489D01*
X33300Y-16343D01*
X33127Y-16267D01*
X33050Y-16315D01*
X33050Y-16950D01*
X33500Y-16950D01*
X33500Y-17050D01*
X33100Y-17050D01*
X33050Y-17050D01*
X32950Y-17050D01*
X32950Y-16950D01*
X32950Y-16315D01*
X32873Y-16267D01*
X32700Y-16343D01*
X32567Y-16489D01*
X32500Y-16675D01*
X32500Y-16950D01*
X32950Y-16950D01*
X32950Y-17050D01*
X32900Y-17050D01*
X32500Y-17050D01*
X32500Y-17325D01*
X32567Y-17511D01*
X32613Y-17562D01*
X32019Y-17562D01*
X32019Y-17074D01*
X32008Y-16870D01*
X31952Y-16733D01*
X31861Y-16710D01*
X31790Y-16781D01*
X31790Y-16639D01*
X31767Y-16548D01*
X31574Y-16481D01*
X31370Y-16492D01*
X31233Y-16548D01*
X31210Y-16639D01*
X31500Y-16929D01*
X31790Y-16639D01*
X31790Y-16781D01*
X31571Y-17000D01*
X31861Y-17290D01*
X31952Y-17267D01*
X32019Y-17074D01*
X32019Y-17562D01*
X31392Y-17562D01*
X31309Y-17478D01*
X31426Y-17519D01*
X31630Y-17508D01*
X31767Y-17452D01*
X31790Y-17361D01*
X31535Y-17106D01*
X31500Y-17071D01*
X31429Y-17000D01*
X31394Y-16965D01*
X31139Y-16710D01*
X31081Y-16724D01*
X31081Y-16722D01*
X30928Y-16569D01*
X30767Y-16502D01*
X30995Y-16275D01*
X31104Y-16275D01*
X31297Y-16195D01*
X31374Y-16118D01*
X31460Y-16118D01*
X31539Y-16308D01*
X31692Y-16461D01*
X31892Y-16544D01*
X32108Y-16544D01*
X32308Y-16461D01*
X32461Y-16308D01*
X32544Y-16108D01*
X32544Y-15892D01*
X32461Y-15692D01*
X32387Y-15618D01*
X33597Y-15618D01*
X34132Y-16152D01*
X34132Y-16260D01*
X34132Y-16260D01*
G37*
G54D27*
X34132Y-16260D02*
X34098Y-16246D01*
X33903Y-16246D01*
X33723Y-16320D01*
X33585Y-16458D01*
X33510Y-16638D01*
X33510Y-16833D01*
X33510Y-17361D01*
X33524Y-17395D01*
X33446Y-17472D01*
X33500Y-17325D01*
X33500Y-17050D01*
X33500Y-16950D01*
X33500Y-16675D01*
X33433Y-16489D01*
X33300Y-16343D01*
X33127Y-16267D01*
X33050Y-16315D01*
X33050Y-16950D01*
X33500Y-16950D01*
X33500Y-17050D01*
X33100Y-17050D01*
X33050Y-17050D01*
X32950Y-17050D01*
X32950Y-16950D01*
X32950Y-16315D01*
X32873Y-16267D01*
X32700Y-16343D01*
X32567Y-16489D01*
X32500Y-16675D01*
X32500Y-16950D01*
X32950Y-16950D01*
X32950Y-17050D01*
X32900Y-17050D01*
X32500Y-17050D01*
X32500Y-17325D01*
X32567Y-17511D01*
X32613Y-17562D01*
X32019Y-17562D01*
X32019Y-17074D01*
X32008Y-16870D01*
X31952Y-16733D01*
X31861Y-16710D01*
X31790Y-16781D01*
X31790Y-16639D01*
X31767Y-16548D01*
X31574Y-16481D01*
X31370Y-16492D01*
X31233Y-16548D01*
X31210Y-16639D01*
X31500Y-16929D01*
X31790Y-16639D01*
X31790Y-16781D01*
X31571Y-17000D01*
X31861Y-17290D01*
X31952Y-17267D01*
X32019Y-17074D01*
X32019Y-17562D01*
X31392Y-17562D01*
X31309Y-17478D01*
X31426Y-17519D01*
X31630Y-17508D01*
X31767Y-17452D01*
X31790Y-17361D01*
X31535Y-17106D01*
X31500Y-17071D01*
X31429Y-17000D01*
X31394Y-16965D01*
X31139Y-16710D01*
X31081Y-16724D01*
X31081Y-16722D01*
X30928Y-16569D01*
X30767Y-16502D01*
X30995Y-16275D01*
X31104Y-16275D01*
X31297Y-16195D01*
X31374Y-16118D01*
X31460Y-16118D01*
X31539Y-16308D01*
X31692Y-16461D01*
X31892Y-16544D01*
X32108Y-16544D01*
X32308Y-16461D01*
X32461Y-16308D01*
X32544Y-16108D01*
X32544Y-15892D01*
X32461Y-15692D01*
X32387Y-15618D01*
X33597Y-15618D01*
X34132Y-16152D01*
X34132Y-16260D01*
G54D10*
G36*
X34476Y-19754D02*
X33348Y-20882D01*
X33250Y-20882D01*
X30250Y-20882D01*
X30109Y-20910D01*
X30093Y-20920D01*
X30093Y-20091D01*
X30082Y-19856D01*
X30013Y-19690D01*
X29914Y-19657D01*
X29843Y-19728D01*
X29843Y-19586D01*
X29810Y-19487D01*
X29591Y-19407D01*
X29356Y-19418D01*
X29190Y-19487D01*
X29157Y-19586D01*
X29500Y-19929D01*
X29843Y-19586D01*
X29843Y-19728D01*
X29571Y-20000D01*
X29914Y-20343D01*
X30013Y-20310D01*
X30093Y-20091D01*
X30093Y-20920D01*
X29989Y-20990D01*
X29843Y-21136D01*
X29843Y-20414D01*
X29500Y-20071D01*
X29429Y-20142D01*
X29429Y-20000D01*
X29086Y-19657D01*
X28987Y-19690D01*
X28907Y-19909D01*
X28918Y-20144D01*
X28987Y-20310D01*
X29086Y-20343D01*
X29429Y-20000D01*
X29429Y-20142D01*
X29157Y-20414D01*
X29190Y-20513D01*
X29409Y-20593D01*
X29644Y-20582D01*
X29810Y-20513D01*
X29843Y-20414D01*
X29843Y-21136D01*
X29028Y-21951D01*
X28891Y-21951D01*
X28689Y-22035D01*
X28535Y-22189D01*
X28497Y-22280D01*
X28472Y-22219D01*
X28378Y-22192D01*
X28308Y-22262D01*
X28308Y-22122D01*
X28281Y-22028D01*
X28079Y-21957D01*
X27866Y-21968D01*
X27719Y-22028D01*
X27692Y-22122D01*
X28000Y-22429D01*
X28308Y-22122D01*
X28308Y-22262D01*
X28071Y-22500D01*
X28000Y-22571D01*
X27929Y-22500D01*
X27894Y-22465D01*
X27622Y-22192D01*
X27528Y-22219D01*
X27457Y-22421D01*
X27468Y-22634D01*
X27512Y-22742D01*
X27368Y-22598D01*
X27368Y-19652D01*
X28916Y-18104D01*
X28918Y-18144D01*
X28987Y-18310D01*
X29086Y-18343D01*
X29394Y-18035D01*
X29429Y-18000D01*
X29500Y-17929D01*
X29571Y-18000D01*
X29606Y-18035D01*
X29914Y-18343D01*
X30013Y-18310D01*
X30087Y-18107D01*
X30132Y-18152D01*
X30132Y-18250D01*
X30160Y-18391D01*
X30203Y-18456D01*
X30142Y-18456D01*
X29942Y-18539D01*
X29843Y-18638D01*
X29843Y-18414D01*
X29500Y-18071D01*
X29157Y-18414D01*
X29190Y-18513D01*
X29409Y-18593D01*
X29644Y-18582D01*
X29810Y-18513D01*
X29843Y-18414D01*
X29843Y-18638D01*
X29789Y-18692D01*
X29706Y-18892D01*
X29706Y-19108D01*
X29789Y-19308D01*
X29942Y-19461D01*
X30142Y-19544D01*
X30273Y-19544D01*
X30739Y-20010D01*
X30740Y-20010D01*
X30859Y-20090D01*
X31000Y-20118D01*
X32750Y-20118D01*
X32891Y-20090D01*
X33010Y-20010D01*
X33306Y-19714D01*
X33402Y-19754D01*
X33597Y-19754D01*
X33777Y-19680D01*
X33915Y-19542D01*
X33990Y-19362D01*
X33990Y-19167D01*
X33990Y-18639D01*
X33916Y-18459D01*
X33778Y-18321D01*
X33652Y-18268D01*
X33770Y-18190D01*
X34132Y-17828D01*
X34132Y-18411D01*
X34085Y-18458D01*
X34010Y-18638D01*
X34010Y-18833D01*
X34010Y-19361D01*
X34084Y-19541D01*
X34222Y-19679D01*
X34402Y-19754D01*
X34476Y-19754D01*
X34476Y-19754D01*
G37*
G54D27*
X34476Y-19754D02*
X33348Y-20882D01*
X33250Y-20882D01*
X30250Y-20882D01*
X30109Y-20910D01*
X30093Y-20920D01*
X30093Y-20091D01*
X30082Y-19856D01*
X30013Y-19690D01*
X29914Y-19657D01*
X29843Y-19728D01*
X29843Y-19586D01*
X29810Y-19487D01*
X29591Y-19407D01*
X29356Y-19418D01*
X29190Y-19487D01*
X29157Y-19586D01*
X29500Y-19929D01*
X29843Y-19586D01*
X29843Y-19728D01*
X29571Y-20000D01*
X29914Y-20343D01*
X30013Y-20310D01*
X30093Y-20091D01*
X30093Y-20920D01*
X29989Y-20990D01*
X29843Y-21136D01*
X29843Y-20414D01*
X29500Y-20071D01*
X29429Y-20142D01*
X29429Y-20000D01*
X29086Y-19657D01*
X28987Y-19690D01*
X28907Y-19909D01*
X28918Y-20144D01*
X28987Y-20310D01*
X29086Y-20343D01*
X29429Y-20000D01*
X29429Y-20142D01*
X29157Y-20414D01*
X29190Y-20513D01*
X29409Y-20593D01*
X29644Y-20582D01*
X29810Y-20513D01*
X29843Y-20414D01*
X29843Y-21136D01*
X29028Y-21951D01*
X28891Y-21951D01*
X28689Y-22035D01*
X28535Y-22189D01*
X28497Y-22280D01*
X28472Y-22219D01*
X28378Y-22192D01*
X28308Y-22262D01*
X28308Y-22122D01*
X28281Y-22028D01*
X28079Y-21957D01*
X27866Y-21968D01*
X27719Y-22028D01*
X27692Y-22122D01*
X28000Y-22429D01*
X28308Y-22122D01*
X28308Y-22262D01*
X28071Y-22500D01*
X28000Y-22571D01*
X27929Y-22500D01*
X27894Y-22465D01*
X27622Y-22192D01*
X27528Y-22219D01*
X27457Y-22421D01*
X27468Y-22634D01*
X27512Y-22742D01*
X27368Y-22598D01*
X27368Y-19652D01*
X28916Y-18104D01*
X28918Y-18144D01*
X28987Y-18310D01*
X29086Y-18343D01*
X29394Y-18035D01*
X29429Y-18000D01*
X29500Y-17929D01*
X29571Y-18000D01*
X29606Y-18035D01*
X29914Y-18343D01*
X30013Y-18310D01*
X30087Y-18107D01*
X30132Y-18152D01*
X30132Y-18250D01*
X30160Y-18391D01*
X30203Y-18456D01*
X30142Y-18456D01*
X29942Y-18539D01*
X29843Y-18638D01*
X29843Y-18414D01*
X29500Y-18071D01*
X29157Y-18414D01*
X29190Y-18513D01*
X29409Y-18593D01*
X29644Y-18582D01*
X29810Y-18513D01*
X29843Y-18414D01*
X29843Y-18638D01*
X29789Y-18692D01*
X29706Y-18892D01*
X29706Y-19108D01*
X29789Y-19308D01*
X29942Y-19461D01*
X30142Y-19544D01*
X30273Y-19544D01*
X30739Y-20010D01*
X30740Y-20010D01*
X30859Y-20090D01*
X31000Y-20118D01*
X32750Y-20118D01*
X32891Y-20090D01*
X33010Y-20010D01*
X33306Y-19714D01*
X33402Y-19754D01*
X33597Y-19754D01*
X33777Y-19680D01*
X33915Y-19542D01*
X33990Y-19362D01*
X33990Y-19167D01*
X33990Y-18639D01*
X33916Y-18459D01*
X33778Y-18321D01*
X33652Y-18268D01*
X33770Y-18190D01*
X34132Y-17828D01*
X34132Y-18411D01*
X34085Y-18458D01*
X34010Y-18638D01*
X34010Y-18833D01*
X34010Y-19361D01*
X34084Y-19541D01*
X34222Y-19679D01*
X34402Y-19754D01*
X34476Y-19754D01*
G54D10*
G36*
X42665Y-22441D02*
X42594Y-22512D01*
X42523Y-22582D01*
X42286Y-22819D01*
X42304Y-22882D01*
X39902Y-22882D01*
X39138Y-22118D01*
X40000Y-22118D01*
X42130Y-22118D01*
X42160Y-22148D01*
X42122Y-22160D01*
X42051Y-22362D01*
X42062Y-22575D01*
X42122Y-22722D01*
X42216Y-22749D01*
X42488Y-22476D01*
X42523Y-22441D01*
X42594Y-22370D01*
X42665Y-22441D01*
X42665Y-22441D01*
G37*
G54D27*
X42665Y-22441D02*
X42594Y-22512D01*
X42523Y-22582D01*
X42286Y-22819D01*
X42304Y-22882D01*
X39902Y-22882D01*
X39138Y-22118D01*
X40000Y-22118D01*
X42130Y-22118D01*
X42160Y-22148D01*
X42122Y-22160D01*
X42051Y-22362D01*
X42062Y-22575D01*
X42122Y-22722D01*
X42216Y-22749D01*
X42488Y-22476D01*
X42523Y-22441D01*
X42594Y-22370D01*
X42665Y-22441D01*
G54D10*
G36*
X45226Y-21899D02*
X45153Y-21930D01*
X45083Y-22000D01*
X45045Y-22091D01*
X45045Y-22116D01*
X44905Y-21976D01*
X44703Y-21892D01*
X44662Y-21892D01*
X44260Y-21490D01*
X44141Y-21410D01*
X44093Y-21400D01*
X44093Y-20091D01*
X44082Y-19856D01*
X44013Y-19690D01*
X43914Y-19657D01*
X43843Y-19728D01*
X43843Y-19586D01*
X43810Y-19487D01*
X43591Y-19407D01*
X43356Y-19418D01*
X43190Y-19487D01*
X43157Y-19586D01*
X43500Y-19929D01*
X43843Y-19586D01*
X43843Y-19728D01*
X43571Y-20000D01*
X43914Y-20343D01*
X44013Y-20310D01*
X44093Y-20091D01*
X44093Y-21400D01*
X44000Y-21382D01*
X43843Y-21382D01*
X43843Y-20414D01*
X43500Y-20071D01*
X43429Y-20142D01*
X43429Y-20000D01*
X43086Y-19657D01*
X42987Y-19690D01*
X42907Y-19909D01*
X42918Y-20144D01*
X42987Y-20310D01*
X43086Y-20343D01*
X43429Y-20000D01*
X43429Y-20142D01*
X43157Y-20414D01*
X43190Y-20513D01*
X43409Y-20593D01*
X43644Y-20582D01*
X43810Y-20513D01*
X43843Y-20414D01*
X43843Y-21382D01*
X40000Y-21382D01*
X39152Y-21382D01*
X38368Y-20598D01*
X38368Y-19888D01*
X38456Y-19976D01*
X38456Y-20108D01*
X38539Y-20308D01*
X38692Y-20461D01*
X38892Y-20544D01*
X39108Y-20544D01*
X39308Y-20461D01*
X39401Y-20368D01*
X40800Y-20368D01*
X40941Y-20340D01*
X41060Y-20260D01*
X41795Y-19525D01*
X41904Y-19525D01*
X42097Y-19445D01*
X42245Y-19298D01*
X42325Y-19105D01*
X42325Y-18995D01*
X42989Y-18331D01*
X42992Y-18339D01*
X43161Y-18508D01*
X43381Y-18599D01*
X43619Y-18599D01*
X43839Y-18508D01*
X44008Y-18339D01*
X44099Y-18119D01*
X44099Y-17921D01*
X44560Y-17460D01*
X44583Y-17425D01*
X44618Y-17411D01*
X44632Y-17397D01*
X44632Y-20750D01*
X44660Y-20891D01*
X44740Y-21010D01*
X45226Y-21496D01*
X45226Y-21899D01*
X45226Y-21899D01*
G37*
G54D27*
X45226Y-21899D02*
X45153Y-21930D01*
X45083Y-22000D01*
X45045Y-22091D01*
X45045Y-22116D01*
X44905Y-21976D01*
X44703Y-21892D01*
X44662Y-21892D01*
X44260Y-21490D01*
X44141Y-21410D01*
X44093Y-21400D01*
X44093Y-20091D01*
X44082Y-19856D01*
X44013Y-19690D01*
X43914Y-19657D01*
X43843Y-19728D01*
X43843Y-19586D01*
X43810Y-19487D01*
X43591Y-19407D01*
X43356Y-19418D01*
X43190Y-19487D01*
X43157Y-19586D01*
X43500Y-19929D01*
X43843Y-19586D01*
X43843Y-19728D01*
X43571Y-20000D01*
X43914Y-20343D01*
X44013Y-20310D01*
X44093Y-20091D01*
X44093Y-21400D01*
X44000Y-21382D01*
X43843Y-21382D01*
X43843Y-20414D01*
X43500Y-20071D01*
X43429Y-20142D01*
X43429Y-20000D01*
X43086Y-19657D01*
X42987Y-19690D01*
X42907Y-19909D01*
X42918Y-20144D01*
X42987Y-20310D01*
X43086Y-20343D01*
X43429Y-20000D01*
X43429Y-20142D01*
X43157Y-20414D01*
X43190Y-20513D01*
X43409Y-20593D01*
X43644Y-20582D01*
X43810Y-20513D01*
X43843Y-20414D01*
X43843Y-21382D01*
X40000Y-21382D01*
X39152Y-21382D01*
X38368Y-20598D01*
X38368Y-19888D01*
X38456Y-19976D01*
X38456Y-20108D01*
X38539Y-20308D01*
X38692Y-20461D01*
X38892Y-20544D01*
X39108Y-20544D01*
X39308Y-20461D01*
X39401Y-20368D01*
X40800Y-20368D01*
X40941Y-20340D01*
X41060Y-20260D01*
X41795Y-19525D01*
X41904Y-19525D01*
X42097Y-19445D01*
X42245Y-19298D01*
X42325Y-19105D01*
X42325Y-18995D01*
X42989Y-18331D01*
X42992Y-18339D01*
X43161Y-18508D01*
X43381Y-18599D01*
X43619Y-18599D01*
X43839Y-18508D01*
X44008Y-18339D01*
X44099Y-18119D01*
X44099Y-17921D01*
X44560Y-17460D01*
X44583Y-17425D01*
X44618Y-17411D01*
X44632Y-17397D01*
X44632Y-20750D01*
X44660Y-20891D01*
X44740Y-21010D01*
X45226Y-21496D01*
X45226Y-21899D01*
G54D10*
G36*
X48382Y-18597D02*
X48347Y-18632D01*
X47500Y-18632D01*
X46750Y-18632D01*
X46151Y-18632D01*
X46058Y-18539D01*
X45858Y-18456D01*
X45642Y-18456D01*
X45442Y-18539D01*
X45368Y-18613D01*
X45368Y-15401D01*
X45461Y-15308D01*
X45544Y-15108D01*
X45544Y-14892D01*
X45461Y-14692D01*
X45308Y-14539D01*
X45108Y-14456D01*
X44892Y-14456D01*
X44692Y-14539D01*
X44668Y-14563D01*
X44668Y-12057D01*
X44723Y-12035D01*
X44932Y-11826D01*
X44932Y-13680D01*
X44960Y-13821D01*
X45040Y-13940D01*
X46052Y-14952D01*
X46052Y-16920D01*
X46080Y-17061D01*
X46160Y-17180D01*
X46901Y-17921D01*
X46901Y-18399D01*
X46939Y-18491D01*
X47009Y-18561D01*
X47100Y-18599D01*
X47199Y-18599D01*
X47899Y-18599D01*
X47991Y-18561D01*
X48061Y-18491D01*
X48099Y-18400D01*
X48099Y-18301D01*
X48099Y-17601D01*
X48093Y-17586D01*
X48093Y-16091D01*
X48082Y-15856D01*
X48013Y-15690D01*
X47914Y-15657D01*
X47843Y-15728D01*
X47843Y-15586D01*
X47810Y-15487D01*
X47591Y-15407D01*
X47356Y-15418D01*
X47190Y-15487D01*
X47157Y-15586D01*
X47500Y-15929D01*
X47843Y-15586D01*
X47843Y-15728D01*
X47571Y-16000D01*
X47914Y-16343D01*
X48013Y-16310D01*
X48093Y-16091D01*
X48093Y-17586D01*
X48061Y-17509D01*
X47991Y-17439D01*
X47900Y-17401D01*
X47843Y-17401D01*
X47843Y-16414D01*
X47500Y-16071D01*
X47429Y-16142D01*
X47429Y-16000D01*
X47086Y-15657D01*
X46987Y-15690D01*
X46907Y-15909D01*
X46918Y-16144D01*
X46987Y-16310D01*
X47086Y-16343D01*
X47429Y-16000D01*
X47429Y-16142D01*
X47157Y-16414D01*
X47190Y-16513D01*
X47409Y-16593D01*
X47644Y-16582D01*
X47810Y-16513D01*
X47843Y-16414D01*
X47843Y-17401D01*
X47801Y-17401D01*
X47421Y-17401D01*
X46788Y-16768D01*
X46788Y-14800D01*
X46787Y-14799D01*
X46760Y-14659D01*
X46711Y-14587D01*
X46680Y-14540D01*
X46680Y-14539D01*
X45668Y-13527D01*
X45668Y-12114D01*
X45750Y-12149D01*
X45849Y-12149D01*
X46849Y-12149D01*
X46870Y-12140D01*
X47132Y-12402D01*
X47132Y-13521D01*
X46992Y-13661D01*
X46901Y-13881D01*
X46901Y-14119D01*
X46992Y-14339D01*
X47161Y-14508D01*
X47381Y-14599D01*
X47578Y-14599D01*
X48382Y-15402D01*
X48382Y-18597D01*
X48382Y-18597D01*
G37*
G54D27*
X48382Y-18597D02*
X48347Y-18632D01*
X47500Y-18632D01*
X46750Y-18632D01*
X46151Y-18632D01*
X46058Y-18539D01*
X45858Y-18456D01*
X45642Y-18456D01*
X45442Y-18539D01*
X45368Y-18613D01*
X45368Y-15401D01*
X45461Y-15308D01*
X45544Y-15108D01*
X45544Y-14892D01*
X45461Y-14692D01*
X45308Y-14539D01*
X45108Y-14456D01*
X44892Y-14456D01*
X44692Y-14539D01*
X44668Y-14563D01*
X44668Y-12057D01*
X44723Y-12035D01*
X44932Y-11826D01*
X44932Y-13680D01*
X44960Y-13821D01*
X45040Y-13940D01*
X46052Y-14952D01*
X46052Y-16920D01*
X46080Y-17061D01*
X46160Y-17180D01*
X46901Y-17921D01*
X46901Y-18399D01*
X46939Y-18491D01*
X47009Y-18561D01*
X47100Y-18599D01*
X47199Y-18599D01*
X47899Y-18599D01*
X47991Y-18561D01*
X48061Y-18491D01*
X48099Y-18400D01*
X48099Y-18301D01*
X48099Y-17601D01*
X48093Y-17586D01*
X48093Y-16091D01*
X48082Y-15856D01*
X48013Y-15690D01*
X47914Y-15657D01*
X47843Y-15728D01*
X47843Y-15586D01*
X47810Y-15487D01*
X47591Y-15407D01*
X47356Y-15418D01*
X47190Y-15487D01*
X47157Y-15586D01*
X47500Y-15929D01*
X47843Y-15586D01*
X47843Y-15728D01*
X47571Y-16000D01*
X47914Y-16343D01*
X48013Y-16310D01*
X48093Y-16091D01*
X48093Y-17586D01*
X48061Y-17509D01*
X47991Y-17439D01*
X47900Y-17401D01*
X47843Y-17401D01*
X47843Y-16414D01*
X47500Y-16071D01*
X47429Y-16142D01*
X47429Y-16000D01*
X47086Y-15657D01*
X46987Y-15690D01*
X46907Y-15909D01*
X46918Y-16144D01*
X46987Y-16310D01*
X47086Y-16343D01*
X47429Y-16000D01*
X47429Y-16142D01*
X47157Y-16414D01*
X47190Y-16513D01*
X47409Y-16593D01*
X47644Y-16582D01*
X47810Y-16513D01*
X47843Y-16414D01*
X47843Y-17401D01*
X47801Y-17401D01*
X47421Y-17401D01*
X46788Y-16768D01*
X46788Y-14800D01*
X46787Y-14799D01*
X46760Y-14659D01*
X46711Y-14587D01*
X46680Y-14540D01*
X46680Y-14539D01*
X45668Y-13527D01*
X45668Y-12114D01*
X45750Y-12149D01*
X45849Y-12149D01*
X46849Y-12149D01*
X46870Y-12140D01*
X47132Y-12402D01*
X47132Y-13521D01*
X46992Y-13661D01*
X46901Y-13881D01*
X46901Y-14119D01*
X46992Y-14339D01*
X47161Y-14508D01*
X47381Y-14599D01*
X47578Y-14599D01*
X48382Y-15402D01*
X48382Y-18597D01*
G54D10*
G36*
X51250Y-24084D02*
X51190Y-24084D01*
X51190Y-21127D01*
X51190Y-12731D01*
X50656Y-12731D01*
X50656Y-11627D01*
X50656Y-11209D01*
X50496Y-10823D01*
X50201Y-10527D01*
X49816Y-10367D01*
X49398Y-10367D01*
X49012Y-10527D01*
X48716Y-10822D01*
X48556Y-11207D01*
X48556Y-11625D01*
X48716Y-12011D01*
X49011Y-12307D01*
X49396Y-12467D01*
X49814Y-12467D01*
X50200Y-12307D01*
X50496Y-12012D01*
X50656Y-11627D01*
X50656Y-12731D01*
X48794Y-12731D01*
X48794Y-14773D01*
X48099Y-14078D01*
X48099Y-13881D01*
X48008Y-13661D01*
X47868Y-13521D01*
X47868Y-12250D01*
X47840Y-12109D01*
X47760Y-11990D01*
X47049Y-11279D01*
X47049Y-10851D01*
X47011Y-10759D01*
X46941Y-10689D01*
X46850Y-10651D01*
X46751Y-10651D01*
X45751Y-10651D01*
X45686Y-10677D01*
X45688Y-10670D01*
X45688Y-10630D01*
X45660Y-10489D01*
X45580Y-10370D01*
X45461Y-10290D01*
X45459Y-10289D01*
X45140Y-09970D01*
X45021Y-09890D01*
X44880Y-09862D01*
X43710Y-09862D01*
X43569Y-09890D01*
X43450Y-09970D01*
X42790Y-10630D01*
X42710Y-10749D01*
X42682Y-10890D01*
X42682Y-11680D01*
X42710Y-11821D01*
X42790Y-11940D01*
X43132Y-12282D01*
X43132Y-13401D01*
X43101Y-13401D01*
X43009Y-13439D01*
X42939Y-13509D01*
X42901Y-13600D01*
X42901Y-13699D01*
X42901Y-14328D01*
X42490Y-14740D01*
X42410Y-14859D01*
X42400Y-14907D01*
X42298Y-14805D01*
X42105Y-14725D01*
X41896Y-14725D01*
X41703Y-14805D01*
X41625Y-14882D01*
X41000Y-14882D01*
X40859Y-14910D01*
X40790Y-14956D01*
X40642Y-14956D01*
X40442Y-15039D01*
X40289Y-15192D01*
X40206Y-15392D01*
X40206Y-15608D01*
X40289Y-15808D01*
X40442Y-15961D01*
X40642Y-16044D01*
X40858Y-16044D01*
X41058Y-15961D01*
X41211Y-15808D01*
X41289Y-15618D01*
X41625Y-15618D01*
X41702Y-15695D01*
X41895Y-15775D01*
X42104Y-15775D01*
X42297Y-15695D01*
X42382Y-15610D01*
X42382Y-17897D01*
X42319Y-17960D01*
X42319Y-17074D01*
X42308Y-16870D01*
X42252Y-16733D01*
X42161Y-16710D01*
X42090Y-16781D01*
X42090Y-16639D01*
X42067Y-16548D01*
X41874Y-16481D01*
X41670Y-16492D01*
X41533Y-16548D01*
X41510Y-16639D01*
X41800Y-16929D01*
X42090Y-16639D01*
X42090Y-16781D01*
X41871Y-17000D01*
X42161Y-17290D01*
X42252Y-17267D01*
X42319Y-17074D01*
X42319Y-17960D01*
X42090Y-18189D01*
X42090Y-17361D01*
X41800Y-17071D01*
X41510Y-17361D01*
X41533Y-17452D01*
X41726Y-17519D01*
X41930Y-17508D01*
X42067Y-17452D01*
X42090Y-17361D01*
X42090Y-18189D01*
X41804Y-18475D01*
X41696Y-18475D01*
X41503Y-18555D01*
X41355Y-18702D01*
X41275Y-18895D01*
X41275Y-19005D01*
X40648Y-19632D01*
X39825Y-19632D01*
X39915Y-19542D01*
X39987Y-19368D01*
X40000Y-19368D01*
X40141Y-19340D01*
X40260Y-19260D01*
X40476Y-19044D01*
X40608Y-19044D01*
X40808Y-18961D01*
X40961Y-18808D01*
X41044Y-18608D01*
X41044Y-18392D01*
X40961Y-18192D01*
X40808Y-18039D01*
X40753Y-18016D01*
X40806Y-17964D01*
X40938Y-17964D01*
X41138Y-17881D01*
X41291Y-17728D01*
X41374Y-17528D01*
X41374Y-17312D01*
X41356Y-17269D01*
X41439Y-17290D01*
X41729Y-17000D01*
X41439Y-16710D01*
X41348Y-16733D01*
X41281Y-16926D01*
X41291Y-17112D01*
X41138Y-16959D01*
X40938Y-16876D01*
X40722Y-16876D01*
X40522Y-16959D01*
X40500Y-16981D01*
X40500Y-16950D01*
X40500Y-16900D01*
X40500Y-16675D01*
X40433Y-16489D01*
X40300Y-16343D01*
X40127Y-16267D01*
X40050Y-16315D01*
X40050Y-16900D01*
X40050Y-16950D01*
X40050Y-17050D01*
X39950Y-17050D01*
X39950Y-16950D01*
X39950Y-16315D01*
X39873Y-16267D01*
X39700Y-16343D01*
X39567Y-16489D01*
X39500Y-16675D01*
X39500Y-16950D01*
X39950Y-16950D01*
X39950Y-17050D01*
X39900Y-17050D01*
X39500Y-17050D01*
X39500Y-17325D01*
X39567Y-17511D01*
X39677Y-17632D01*
X39652Y-17632D01*
X39458Y-17438D01*
X39490Y-17362D01*
X39490Y-17167D01*
X39490Y-16639D01*
X39416Y-16459D01*
X39278Y-16321D01*
X39098Y-16246D01*
X39086Y-16246D01*
X39144Y-16108D01*
X39144Y-15976D01*
X40119Y-15001D01*
X40288Y-14932D01*
X40431Y-14788D01*
X40509Y-14601D01*
X40509Y-14511D01*
X42260Y-12761D01*
X42260Y-12760D01*
X42340Y-12641D01*
X42367Y-12500D01*
X42368Y-12500D01*
X42368Y-12124D01*
X42445Y-12048D01*
X42525Y-11855D01*
X42525Y-11646D01*
X42445Y-11453D01*
X42298Y-11305D01*
X42105Y-11225D01*
X41896Y-11225D01*
X41703Y-11305D01*
X41555Y-11452D01*
X41475Y-11645D01*
X41475Y-11854D01*
X41555Y-12047D01*
X41632Y-12124D01*
X41632Y-12347D01*
X40499Y-13480D01*
X40493Y-13371D01*
X40440Y-13243D01*
X40350Y-13221D01*
X40279Y-13292D01*
X40279Y-13150D01*
X40257Y-13060D01*
X40069Y-12995D01*
X39871Y-13007D01*
X39743Y-13060D01*
X39721Y-13150D01*
X40000Y-13429D01*
X40279Y-13150D01*
X40279Y-13292D01*
X40106Y-13465D01*
X40071Y-13500D01*
X40000Y-13571D01*
X39929Y-13500D01*
X39894Y-13465D01*
X39650Y-13221D01*
X39560Y-13243D01*
X39495Y-13431D01*
X39502Y-13554D01*
X39351Y-13491D01*
X39261Y-13491D01*
X37881Y-12111D01*
X37945Y-12048D01*
X38025Y-11855D01*
X38025Y-11646D01*
X37945Y-11453D01*
X37798Y-11305D01*
X37605Y-11225D01*
X37396Y-11225D01*
X37203Y-11305D01*
X37055Y-11452D01*
X36975Y-11645D01*
X36975Y-11854D01*
X37055Y-12047D01*
X37132Y-12124D01*
X37132Y-12250D01*
X37160Y-12391D01*
X37240Y-12510D01*
X38741Y-14011D01*
X38741Y-14101D01*
X38818Y-14288D01*
X38962Y-14431D01*
X39149Y-14509D01*
X39351Y-14509D01*
X39491Y-14451D01*
X39491Y-14588D01*
X38623Y-15456D01*
X38492Y-15456D01*
X38292Y-15538D01*
X38260Y-15490D01*
X38025Y-15255D01*
X38025Y-15146D01*
X37945Y-14953D01*
X37798Y-14805D01*
X37605Y-14725D01*
X37396Y-14725D01*
X37203Y-14805D01*
X37055Y-14952D01*
X36975Y-15145D01*
X36975Y-15354D01*
X37017Y-15456D01*
X36892Y-15456D01*
X36692Y-15539D01*
X36618Y-15613D01*
X36618Y-14651D01*
X36711Y-14558D01*
X36794Y-14358D01*
X36794Y-14142D01*
X36711Y-13942D01*
X36558Y-13789D01*
X36358Y-13706D01*
X36142Y-13706D01*
X35942Y-13789D01*
X35789Y-13942D01*
X35706Y-14142D01*
X35706Y-14358D01*
X35789Y-14558D01*
X35882Y-14651D01*
X35882Y-14889D01*
X35798Y-14805D01*
X35605Y-14725D01*
X35396Y-14725D01*
X35203Y-14805D01*
X35055Y-14952D01*
X34975Y-15145D01*
X34975Y-15354D01*
X35055Y-15547D01*
X35132Y-15624D01*
X35132Y-16260D01*
X35098Y-16246D01*
X34903Y-16246D01*
X34868Y-16260D01*
X34868Y-16000D01*
X34840Y-15859D01*
X34760Y-15740D01*
X34760Y-15739D01*
X34010Y-14990D01*
X33891Y-14910D01*
X33750Y-14882D01*
X33271Y-14882D01*
X33279Y-14850D01*
X33000Y-14571D01*
X32929Y-14642D01*
X32929Y-14500D01*
X32650Y-14221D01*
X32560Y-14243D01*
X32495Y-14431D01*
X32507Y-14629D01*
X32560Y-14757D01*
X32650Y-14779D01*
X32929Y-14500D01*
X32929Y-14642D01*
X32721Y-14850D01*
X32728Y-14882D01*
X31902Y-14882D01*
X31368Y-14347D01*
X31368Y-13868D01*
X32648Y-13868D01*
X32712Y-13931D01*
X32891Y-14005D01*
X32871Y-14007D01*
X32743Y-14060D01*
X32721Y-14150D01*
X32965Y-14394D01*
X33000Y-14429D01*
X33071Y-14500D01*
X33106Y-14535D01*
X33350Y-14779D01*
X33440Y-14757D01*
X33505Y-14569D01*
X33497Y-14445D01*
X33649Y-14509D01*
X33851Y-14509D01*
X34038Y-14432D01*
X34181Y-14288D01*
X34259Y-14101D01*
X34259Y-14011D01*
X35760Y-12511D01*
X35760Y-12510D01*
X35840Y-12391D01*
X35867Y-12251D01*
X35868Y-12250D01*
X35868Y-12124D01*
X35945Y-12048D01*
X36025Y-11855D01*
X36025Y-11646D01*
X35945Y-11453D01*
X35798Y-11305D01*
X35605Y-11225D01*
X35396Y-11225D01*
X35203Y-11305D01*
X35055Y-11452D01*
X34975Y-11645D01*
X34975Y-11854D01*
X35055Y-12047D01*
X35118Y-12110D01*
X33738Y-13491D01*
X33649Y-13491D01*
X33509Y-13548D01*
X33509Y-13399D01*
X33432Y-13212D01*
X33288Y-13069D01*
X33101Y-12991D01*
X32899Y-12991D01*
X32712Y-13068D01*
X32648Y-13132D01*
X31368Y-13132D01*
X31368Y-12624D01*
X31445Y-12548D01*
X31525Y-12355D01*
X31525Y-12146D01*
X31445Y-11953D01*
X31298Y-11805D01*
X31105Y-11725D01*
X30896Y-11725D01*
X30703Y-11805D01*
X30555Y-11952D01*
X30475Y-12145D01*
X30475Y-12354D01*
X30555Y-12547D01*
X30632Y-12624D01*
X30632Y-13500D01*
X30632Y-14500D01*
X30660Y-14641D01*
X30740Y-14760D01*
X31274Y-15295D01*
X31105Y-15225D01*
X30896Y-15225D01*
X30703Y-15305D01*
X30555Y-15452D01*
X30475Y-15645D01*
X30475Y-15755D01*
X30099Y-16131D01*
X30099Y-15601D01*
X30061Y-15509D01*
X29991Y-15439D01*
X29900Y-15401D01*
X29868Y-15401D01*
X29868Y-14599D01*
X29899Y-14599D01*
X29991Y-14561D01*
X30061Y-14491D01*
X30099Y-14400D01*
X30099Y-14301D01*
X30099Y-13601D01*
X30061Y-13509D01*
X29991Y-13439D01*
X29900Y-13401D01*
X29801Y-13401D01*
X29349Y-13401D01*
X29349Y-12050D01*
X29349Y-11951D01*
X29349Y-10951D01*
X29311Y-10859D01*
X29241Y-10789D01*
X29150Y-10751D01*
X29051Y-10751D01*
X28051Y-10751D01*
X27959Y-10789D01*
X27889Y-10859D01*
X27851Y-10950D01*
X27851Y-11049D01*
X27851Y-12049D01*
X27874Y-12105D01*
X27349Y-12630D01*
X27349Y-11650D01*
X27349Y-11352D01*
X27235Y-11077D01*
X27025Y-10866D01*
X26750Y-10751D01*
X26452Y-10751D01*
X26177Y-10865D01*
X25966Y-11075D01*
X25851Y-11350D01*
X25851Y-11628D01*
X25066Y-12413D01*
X25066Y-11627D01*
X25066Y-11209D01*
X24906Y-10823D01*
X24611Y-10527D01*
X24226Y-10367D01*
X23808Y-10367D01*
X23422Y-10527D01*
X23126Y-10822D01*
X22966Y-11207D01*
X22966Y-11625D01*
X23126Y-12011D01*
X23421Y-12307D01*
X23806Y-12467D01*
X24224Y-12467D01*
X24610Y-12307D01*
X24906Y-12012D01*
X25066Y-11627D01*
X25066Y-12413D01*
X24491Y-12988D01*
X24489Y-12990D01*
X24240Y-13240D01*
X24160Y-13359D01*
X24132Y-13500D01*
X24132Y-16000D01*
X24132Y-18599D01*
X24039Y-18692D01*
X23956Y-18892D01*
X23956Y-19108D01*
X24039Y-19308D01*
X24192Y-19461D01*
X24392Y-19544D01*
X24524Y-19544D01*
X24901Y-19921D01*
X24901Y-20399D01*
X24939Y-20491D01*
X25009Y-20561D01*
X25100Y-20599D01*
X25199Y-20599D01*
X25899Y-20599D01*
X25991Y-20561D01*
X26061Y-20491D01*
X26099Y-20400D01*
X26099Y-20301D01*
X26099Y-19601D01*
X26061Y-19509D01*
X25991Y-19439D01*
X25900Y-19401D01*
X25801Y-19401D01*
X25421Y-19401D01*
X25044Y-19024D01*
X25044Y-18892D01*
X24961Y-18692D01*
X24868Y-18599D01*
X24868Y-16368D01*
X25021Y-16368D01*
X25161Y-16508D01*
X25381Y-16599D01*
X25619Y-16599D01*
X25839Y-16508D01*
X26008Y-16339D01*
X26099Y-16119D01*
X26099Y-15881D01*
X26008Y-15661D01*
X25839Y-15492D01*
X25619Y-15401D01*
X25381Y-15401D01*
X25161Y-15492D01*
X25021Y-15632D01*
X24868Y-15632D01*
X24868Y-13652D01*
X25010Y-13511D01*
X25010Y-13510D01*
X25011Y-13508D01*
X26324Y-12196D01*
X26450Y-12249D01*
X26748Y-12249D01*
X27023Y-12135D01*
X27234Y-11925D01*
X27349Y-11650D01*
X27349Y-12630D01*
X26347Y-13632D01*
X25979Y-13632D01*
X25839Y-13492D01*
X25619Y-13401D01*
X25381Y-13401D01*
X25161Y-13492D01*
X24992Y-13661D01*
X24901Y-13881D01*
X24901Y-14119D01*
X24992Y-14339D01*
X25161Y-14508D01*
X25381Y-14599D01*
X25619Y-14599D01*
X25839Y-14508D01*
X25979Y-14368D01*
X26132Y-14368D01*
X26132Y-16479D01*
X26039Y-16572D01*
X25956Y-16772D01*
X25956Y-16988D01*
X25966Y-17013D01*
X25579Y-17401D01*
X25101Y-17401D01*
X25009Y-17439D01*
X24939Y-17509D01*
X24901Y-17600D01*
X24901Y-17699D01*
X24901Y-18399D01*
X24939Y-18491D01*
X25009Y-18561D01*
X25100Y-18599D01*
X25199Y-18599D01*
X25899Y-18599D01*
X25991Y-18561D01*
X26061Y-18491D01*
X26099Y-18400D01*
X26099Y-18301D01*
X26099Y-17921D01*
X26596Y-17424D01*
X26608Y-17424D01*
X26808Y-17341D01*
X26961Y-17188D01*
X27044Y-16988D01*
X27044Y-16772D01*
X26961Y-16572D01*
X26868Y-16479D01*
X26868Y-14152D01*
X28771Y-12249D01*
X29149Y-12249D01*
X29241Y-12211D01*
X29311Y-12141D01*
X29349Y-12050D01*
X29349Y-13401D01*
X29101Y-13401D01*
X29009Y-13439D01*
X28939Y-13509D01*
X28901Y-13600D01*
X28901Y-13699D01*
X28901Y-14399D01*
X28939Y-14491D01*
X29009Y-14561D01*
X29100Y-14599D01*
X29132Y-14599D01*
X29132Y-15401D01*
X29101Y-15401D01*
X29009Y-15439D01*
X28939Y-15509D01*
X28901Y-15600D01*
X28901Y-15699D01*
X28901Y-16399D01*
X28939Y-16491D01*
X29009Y-16561D01*
X29100Y-16599D01*
X29132Y-16599D01*
X29132Y-16847D01*
X26740Y-19240D01*
X26660Y-19359D01*
X26632Y-19500D01*
X26632Y-22750D01*
X26660Y-22891D01*
X26740Y-23010D01*
X27240Y-23510D01*
X27359Y-23590D01*
X27500Y-23618D01*
X34750Y-23618D01*
X34891Y-23590D01*
X35010Y-23510D01*
X35271Y-23249D01*
X36049Y-23249D01*
X36141Y-23211D01*
X36211Y-23141D01*
X36249Y-23050D01*
X36249Y-22951D01*
X36249Y-21951D01*
X36211Y-21859D01*
X36141Y-21789D01*
X36050Y-21751D01*
X35951Y-21751D01*
X35868Y-21751D01*
X35868Y-21000D01*
X35868Y-20902D01*
X36226Y-20544D01*
X36358Y-20544D01*
X36558Y-20461D01*
X36711Y-20308D01*
X36794Y-20108D01*
X36794Y-19892D01*
X36712Y-19695D01*
X36800Y-19657D01*
X36933Y-19511D01*
X37000Y-19325D01*
X37000Y-19050D01*
X37000Y-18950D01*
X37000Y-18675D01*
X36933Y-18489D01*
X36800Y-18343D01*
X36627Y-18267D01*
X36550Y-18315D01*
X36550Y-18950D01*
X37000Y-18950D01*
X37000Y-19050D01*
X36600Y-19050D01*
X36550Y-19050D01*
X36450Y-19050D01*
X36450Y-18950D01*
X36450Y-18315D01*
X36373Y-18267D01*
X36200Y-18343D01*
X36067Y-18489D01*
X36000Y-18675D01*
X36000Y-18950D01*
X36450Y-18950D01*
X36450Y-19050D01*
X36400Y-19050D01*
X36000Y-19050D01*
X36000Y-19325D01*
X36059Y-19490D01*
X35942Y-19539D01*
X35868Y-19613D01*
X35868Y-19589D01*
X35915Y-19542D01*
X35990Y-19362D01*
X35990Y-19167D01*
X35990Y-18639D01*
X35916Y-18459D01*
X35868Y-18411D01*
X35868Y-17739D01*
X35902Y-17754D01*
X36097Y-17754D01*
X36277Y-17680D01*
X36415Y-17542D01*
X36490Y-17362D01*
X36490Y-17167D01*
X36490Y-16639D01*
X36416Y-16459D01*
X36368Y-16411D01*
X36368Y-16152D01*
X36456Y-16064D01*
X36456Y-16108D01*
X36539Y-16308D01*
X36632Y-16401D01*
X36632Y-16411D01*
X36585Y-16458D01*
X36510Y-16638D01*
X36510Y-16833D01*
X36510Y-17361D01*
X36584Y-17541D01*
X36722Y-17679D01*
X36902Y-17754D01*
X37097Y-17754D01*
X37277Y-17680D01*
X37415Y-17542D01*
X37490Y-17362D01*
X37490Y-17167D01*
X37490Y-16639D01*
X37416Y-16459D01*
X37368Y-16411D01*
X37368Y-16401D01*
X37461Y-16308D01*
X37544Y-16108D01*
X37544Y-15892D01*
X37495Y-15775D01*
X37505Y-15775D01*
X37632Y-15902D01*
X37632Y-16411D01*
X37585Y-16458D01*
X37510Y-16638D01*
X37510Y-16833D01*
X37510Y-17361D01*
X37584Y-17541D01*
X37632Y-17589D01*
X37632Y-18260D01*
X37598Y-18246D01*
X37403Y-18246D01*
X37223Y-18320D01*
X37085Y-18458D01*
X37010Y-18638D01*
X37010Y-18833D01*
X37010Y-19361D01*
X37084Y-19541D01*
X37132Y-19589D01*
X37132Y-21000D01*
X37160Y-21141D01*
X37240Y-21260D01*
X37811Y-21832D01*
X37627Y-21761D01*
X37335Y-21769D01*
X37100Y-21866D01*
X37050Y-21980D01*
X37465Y-22394D01*
X37500Y-22429D01*
X37571Y-22500D01*
X37606Y-22535D01*
X38020Y-22950D01*
X38134Y-22900D01*
X38239Y-22627D01*
X38231Y-22335D01*
X38172Y-22192D01*
X39489Y-23510D01*
X39490Y-23510D01*
X39537Y-23541D01*
X39609Y-23590D01*
X39749Y-23617D01*
X39750Y-23618D01*
X43000Y-23618D01*
X43141Y-23590D01*
X43260Y-23510D01*
X43834Y-22935D01*
X43905Y-22906D01*
X44059Y-22752D01*
X44094Y-22667D01*
X44129Y-22752D01*
X44283Y-22906D01*
X44485Y-22990D01*
X44703Y-22990D01*
X44905Y-22906D01*
X45045Y-22766D01*
X45045Y-22790D01*
X45083Y-22882D01*
X45153Y-22952D01*
X45244Y-22990D01*
X45343Y-22990D01*
X45943Y-22990D01*
X46035Y-22952D01*
X46105Y-22882D01*
X46143Y-22791D01*
X46143Y-22692D01*
X46143Y-22092D01*
X46105Y-22000D01*
X46035Y-21930D01*
X45962Y-21899D01*
X45962Y-21344D01*
X45934Y-21203D01*
X45854Y-21084D01*
X45368Y-20598D01*
X45368Y-19387D01*
X45442Y-19461D01*
X45642Y-19544D01*
X45858Y-19544D01*
X46058Y-19461D01*
X46151Y-19368D01*
X46750Y-19368D01*
X47132Y-19368D01*
X47132Y-19401D01*
X47101Y-19401D01*
X47009Y-19439D01*
X46939Y-19509D01*
X46901Y-19600D01*
X46901Y-19699D01*
X46901Y-20399D01*
X46939Y-20491D01*
X47009Y-20561D01*
X47100Y-20599D01*
X47199Y-20599D01*
X47899Y-20599D01*
X47991Y-20561D01*
X48061Y-20491D01*
X48099Y-20400D01*
X48099Y-20301D01*
X48099Y-19601D01*
X48061Y-19509D01*
X47991Y-19439D01*
X47900Y-19401D01*
X47868Y-19401D01*
X47868Y-19368D01*
X48500Y-19368D01*
X48641Y-19340D01*
X48760Y-19260D01*
X48794Y-19226D01*
X48794Y-21127D01*
X51190Y-21127D01*
X51190Y-24084D01*
X50656Y-24084D01*
X50656Y-22651D01*
X50656Y-22233D01*
X50496Y-21847D01*
X50201Y-21551D01*
X49816Y-21391D01*
X49398Y-21391D01*
X49012Y-21551D01*
X48716Y-21846D01*
X48556Y-22231D01*
X48556Y-22649D01*
X48716Y-23035D01*
X49011Y-23331D01*
X49396Y-23491D01*
X49814Y-23491D01*
X50200Y-23331D01*
X50496Y-23036D01*
X50656Y-22651D01*
X50656Y-24084D01*
X37950Y-24084D01*
X37950Y-23020D01*
X37500Y-22571D01*
X37429Y-22641D01*
X37429Y-22500D01*
X36980Y-22050D01*
X36866Y-22100D01*
X36761Y-22373D01*
X36769Y-22665D01*
X36866Y-22900D01*
X36980Y-22950D01*
X37429Y-22500D01*
X37429Y-22641D01*
X37050Y-23020D01*
X37100Y-23134D01*
X37373Y-23239D01*
X37665Y-23231D01*
X37900Y-23134D01*
X37950Y-23020D01*
X37950Y-24084D01*
X25066Y-24084D01*
X25066Y-22651D01*
X25066Y-22233D01*
X24906Y-21847D01*
X24611Y-21551D01*
X24226Y-21391D01*
X23808Y-21391D01*
X23422Y-21551D01*
X23126Y-21846D01*
X22966Y-22231D01*
X22966Y-22649D01*
X23126Y-23035D01*
X23421Y-23331D01*
X23806Y-23491D01*
X24224Y-23491D01*
X24610Y-23331D01*
X24906Y-23036D01*
X25066Y-22651D01*
X25066Y-24084D01*
X22766Y-24084D01*
X22766Y-09774D01*
X51250Y-09774D01*
X51250Y-24084D01*
X51250Y-24084D01*
G37*
G54D27*
X51250Y-24084D02*
X51190Y-24084D01*
X51190Y-21127D01*
X51190Y-12731D01*
X50656Y-12731D01*
X50656Y-11627D01*
X50656Y-11209D01*
X50496Y-10823D01*
X50201Y-10527D01*
X49816Y-10367D01*
X49398Y-10367D01*
X49012Y-10527D01*
X48716Y-10822D01*
X48556Y-11207D01*
X48556Y-11625D01*
X48716Y-12011D01*
X49011Y-12307D01*
X49396Y-12467D01*
X49814Y-12467D01*
X50200Y-12307D01*
X50496Y-12012D01*
X50656Y-11627D01*
X50656Y-12731D01*
X48794Y-12731D01*
X48794Y-14773D01*
X48099Y-14078D01*
X48099Y-13881D01*
X48008Y-13661D01*
X47868Y-13521D01*
X47868Y-12250D01*
X47840Y-12109D01*
X47760Y-11990D01*
X47049Y-11279D01*
X47049Y-10851D01*
X47011Y-10759D01*
X46941Y-10689D01*
X46850Y-10651D01*
X46751Y-10651D01*
X45751Y-10651D01*
X45686Y-10677D01*
X45688Y-10670D01*
X45688Y-10630D01*
X45660Y-10489D01*
X45580Y-10370D01*
X45461Y-10290D01*
X45459Y-10289D01*
X45140Y-09970D01*
X45021Y-09890D01*
X44880Y-09862D01*
X43710Y-09862D01*
X43569Y-09890D01*
X43450Y-09970D01*
X42790Y-10630D01*
X42710Y-10749D01*
X42682Y-10890D01*
X42682Y-11680D01*
X42710Y-11821D01*
X42790Y-11940D01*
X43132Y-12282D01*
X43132Y-13401D01*
X43101Y-13401D01*
X43009Y-13439D01*
X42939Y-13509D01*
X42901Y-13600D01*
X42901Y-13699D01*
X42901Y-14328D01*
X42490Y-14740D01*
X42410Y-14859D01*
X42400Y-14907D01*
X42298Y-14805D01*
X42105Y-14725D01*
X41896Y-14725D01*
X41703Y-14805D01*
X41625Y-14882D01*
X41000Y-14882D01*
X40859Y-14910D01*
X40790Y-14956D01*
X40642Y-14956D01*
X40442Y-15039D01*
X40289Y-15192D01*
X40206Y-15392D01*
X40206Y-15608D01*
X40289Y-15808D01*
X40442Y-15961D01*
X40642Y-16044D01*
X40858Y-16044D01*
X41058Y-15961D01*
X41211Y-15808D01*
X41289Y-15618D01*
X41625Y-15618D01*
X41702Y-15695D01*
X41895Y-15775D01*
X42104Y-15775D01*
X42297Y-15695D01*
X42382Y-15610D01*
X42382Y-17897D01*
X42319Y-17960D01*
X42319Y-17074D01*
X42308Y-16870D01*
X42252Y-16733D01*
X42161Y-16710D01*
X42090Y-16781D01*
X42090Y-16639D01*
X42067Y-16548D01*
X41874Y-16481D01*
X41670Y-16492D01*
X41533Y-16548D01*
X41510Y-16639D01*
X41800Y-16929D01*
X42090Y-16639D01*
X42090Y-16781D01*
X41871Y-17000D01*
X42161Y-17290D01*
X42252Y-17267D01*
X42319Y-17074D01*
X42319Y-17960D01*
X42090Y-18189D01*
X42090Y-17361D01*
X41800Y-17071D01*
X41510Y-17361D01*
X41533Y-17452D01*
X41726Y-17519D01*
X41930Y-17508D01*
X42067Y-17452D01*
X42090Y-17361D01*
X42090Y-18189D01*
X41804Y-18475D01*
X41696Y-18475D01*
X41503Y-18555D01*
X41355Y-18702D01*
X41275Y-18895D01*
X41275Y-19005D01*
X40648Y-19632D01*
X39825Y-19632D01*
X39915Y-19542D01*
X39987Y-19368D01*
X40000Y-19368D01*
X40141Y-19340D01*
X40260Y-19260D01*
X40476Y-19044D01*
X40608Y-19044D01*
X40808Y-18961D01*
X40961Y-18808D01*
X41044Y-18608D01*
X41044Y-18392D01*
X40961Y-18192D01*
X40808Y-18039D01*
X40753Y-18016D01*
X40806Y-17964D01*
X40938Y-17964D01*
X41138Y-17881D01*
X41291Y-17728D01*
X41374Y-17528D01*
X41374Y-17312D01*
X41356Y-17269D01*
X41439Y-17290D01*
X41729Y-17000D01*
X41439Y-16710D01*
X41348Y-16733D01*
X41281Y-16926D01*
X41291Y-17112D01*
X41138Y-16959D01*
X40938Y-16876D01*
X40722Y-16876D01*
X40522Y-16959D01*
X40500Y-16981D01*
X40500Y-16950D01*
X40500Y-16900D01*
X40500Y-16675D01*
X40433Y-16489D01*
X40300Y-16343D01*
X40127Y-16267D01*
X40050Y-16315D01*
X40050Y-16900D01*
X40050Y-16950D01*
X40050Y-17050D01*
X39950Y-17050D01*
X39950Y-16950D01*
X39950Y-16315D01*
X39873Y-16267D01*
X39700Y-16343D01*
X39567Y-16489D01*
X39500Y-16675D01*
X39500Y-16950D01*
X39950Y-16950D01*
X39950Y-17050D01*
X39900Y-17050D01*
X39500Y-17050D01*
X39500Y-17325D01*
X39567Y-17511D01*
X39677Y-17632D01*
X39652Y-17632D01*
X39458Y-17438D01*
X39490Y-17362D01*
X39490Y-17167D01*
X39490Y-16639D01*
X39416Y-16459D01*
X39278Y-16321D01*
X39098Y-16246D01*
X39086Y-16246D01*
X39144Y-16108D01*
X39144Y-15976D01*
X40119Y-15001D01*
X40288Y-14932D01*
X40431Y-14788D01*
X40509Y-14601D01*
X40509Y-14511D01*
X42260Y-12761D01*
X42260Y-12760D01*
X42340Y-12641D01*
X42367Y-12500D01*
X42368Y-12500D01*
X42368Y-12124D01*
X42445Y-12048D01*
X42525Y-11855D01*
X42525Y-11646D01*
X42445Y-11453D01*
X42298Y-11305D01*
X42105Y-11225D01*
X41896Y-11225D01*
X41703Y-11305D01*
X41555Y-11452D01*
X41475Y-11645D01*
X41475Y-11854D01*
X41555Y-12047D01*
X41632Y-12124D01*
X41632Y-12347D01*
X40499Y-13480D01*
X40493Y-13371D01*
X40440Y-13243D01*
X40350Y-13221D01*
X40279Y-13292D01*
X40279Y-13150D01*
X40257Y-13060D01*
X40069Y-12995D01*
X39871Y-13007D01*
X39743Y-13060D01*
X39721Y-13150D01*
X40000Y-13429D01*
X40279Y-13150D01*
X40279Y-13292D01*
X40106Y-13465D01*
X40071Y-13500D01*
X40000Y-13571D01*
X39929Y-13500D01*
X39894Y-13465D01*
X39650Y-13221D01*
X39560Y-13243D01*
X39495Y-13431D01*
X39502Y-13554D01*
X39351Y-13491D01*
X39261Y-13491D01*
X37881Y-12111D01*
X37945Y-12048D01*
X38025Y-11855D01*
X38025Y-11646D01*
X37945Y-11453D01*
X37798Y-11305D01*
X37605Y-11225D01*
X37396Y-11225D01*
X37203Y-11305D01*
X37055Y-11452D01*
X36975Y-11645D01*
X36975Y-11854D01*
X37055Y-12047D01*
X37132Y-12124D01*
X37132Y-12250D01*
X37160Y-12391D01*
X37240Y-12510D01*
X38741Y-14011D01*
X38741Y-14101D01*
X38818Y-14288D01*
X38962Y-14431D01*
X39149Y-14509D01*
X39351Y-14509D01*
X39491Y-14451D01*
X39491Y-14588D01*
X38623Y-15456D01*
X38492Y-15456D01*
X38292Y-15538D01*
X38260Y-15490D01*
X38025Y-15255D01*
X38025Y-15146D01*
X37945Y-14953D01*
X37798Y-14805D01*
X37605Y-14725D01*
X37396Y-14725D01*
X37203Y-14805D01*
X37055Y-14952D01*
X36975Y-15145D01*
X36975Y-15354D01*
X37017Y-15456D01*
X36892Y-15456D01*
X36692Y-15539D01*
X36618Y-15613D01*
X36618Y-14651D01*
X36711Y-14558D01*
X36794Y-14358D01*
X36794Y-14142D01*
X36711Y-13942D01*
X36558Y-13789D01*
X36358Y-13706D01*
X36142Y-13706D01*
X35942Y-13789D01*
X35789Y-13942D01*
X35706Y-14142D01*
X35706Y-14358D01*
X35789Y-14558D01*
X35882Y-14651D01*
X35882Y-14889D01*
X35798Y-14805D01*
X35605Y-14725D01*
X35396Y-14725D01*
X35203Y-14805D01*
X35055Y-14952D01*
X34975Y-15145D01*
X34975Y-15354D01*
X35055Y-15547D01*
X35132Y-15624D01*
X35132Y-16260D01*
X35098Y-16246D01*
X34903Y-16246D01*
X34868Y-16260D01*
X34868Y-16000D01*
X34840Y-15859D01*
X34760Y-15740D01*
X34760Y-15739D01*
X34010Y-14990D01*
X33891Y-14910D01*
X33750Y-14882D01*
X33271Y-14882D01*
X33279Y-14850D01*
X33000Y-14571D01*
X32929Y-14642D01*
X32929Y-14500D01*
X32650Y-14221D01*
X32560Y-14243D01*
X32495Y-14431D01*
X32507Y-14629D01*
X32560Y-14757D01*
X32650Y-14779D01*
X32929Y-14500D01*
X32929Y-14642D01*
X32721Y-14850D01*
X32728Y-14882D01*
X31902Y-14882D01*
X31368Y-14347D01*
X31368Y-13868D01*
X32648Y-13868D01*
X32712Y-13931D01*
X32891Y-14005D01*
X32871Y-14007D01*
X32743Y-14060D01*
X32721Y-14150D01*
X32965Y-14394D01*
X33000Y-14429D01*
X33071Y-14500D01*
X33106Y-14535D01*
X33350Y-14779D01*
X33440Y-14757D01*
X33505Y-14569D01*
X33497Y-14445D01*
X33649Y-14509D01*
X33851Y-14509D01*
X34038Y-14432D01*
X34181Y-14288D01*
X34259Y-14101D01*
X34259Y-14011D01*
X35760Y-12511D01*
X35760Y-12510D01*
X35840Y-12391D01*
X35867Y-12251D01*
X35868Y-12250D01*
X35868Y-12124D01*
X35945Y-12048D01*
X36025Y-11855D01*
X36025Y-11646D01*
X35945Y-11453D01*
X35798Y-11305D01*
X35605Y-11225D01*
X35396Y-11225D01*
X35203Y-11305D01*
X35055Y-11452D01*
X34975Y-11645D01*
X34975Y-11854D01*
X35055Y-12047D01*
X35118Y-12110D01*
X33738Y-13491D01*
X33649Y-13491D01*
X33509Y-13548D01*
X33509Y-13399D01*
X33432Y-13212D01*
X33288Y-13069D01*
X33101Y-12991D01*
X32899Y-12991D01*
X32712Y-13068D01*
X32648Y-13132D01*
X31368Y-13132D01*
X31368Y-12624D01*
X31445Y-12548D01*
X31525Y-12355D01*
X31525Y-12146D01*
X31445Y-11953D01*
X31298Y-11805D01*
X31105Y-11725D01*
X30896Y-11725D01*
X30703Y-11805D01*
X30555Y-11952D01*
X30475Y-12145D01*
X30475Y-12354D01*
X30555Y-12547D01*
X30632Y-12624D01*
X30632Y-13500D01*
X30632Y-14500D01*
X30660Y-14641D01*
X30740Y-14760D01*
X31274Y-15295D01*
X31105Y-15225D01*
X30896Y-15225D01*
X30703Y-15305D01*
X30555Y-15452D01*
X30475Y-15645D01*
X30475Y-15755D01*
X30099Y-16131D01*
X30099Y-15601D01*
X30061Y-15509D01*
X29991Y-15439D01*
X29900Y-15401D01*
X29868Y-15401D01*
X29868Y-14599D01*
X29899Y-14599D01*
X29991Y-14561D01*
X30061Y-14491D01*
X30099Y-14400D01*
X30099Y-14301D01*
X30099Y-13601D01*
X30061Y-13509D01*
X29991Y-13439D01*
X29900Y-13401D01*
X29801Y-13401D01*
X29349Y-13401D01*
X29349Y-12050D01*
X29349Y-11951D01*
X29349Y-10951D01*
X29311Y-10859D01*
X29241Y-10789D01*
X29150Y-10751D01*
X29051Y-10751D01*
X28051Y-10751D01*
X27959Y-10789D01*
X27889Y-10859D01*
X27851Y-10950D01*
X27851Y-11049D01*
X27851Y-12049D01*
X27874Y-12105D01*
X27349Y-12630D01*
X27349Y-11650D01*
X27349Y-11352D01*
X27235Y-11077D01*
X27025Y-10866D01*
X26750Y-10751D01*
X26452Y-10751D01*
X26177Y-10865D01*
X25966Y-11075D01*
X25851Y-11350D01*
X25851Y-11628D01*
X25066Y-12413D01*
X25066Y-11627D01*
X25066Y-11209D01*
X24906Y-10823D01*
X24611Y-10527D01*
X24226Y-10367D01*
X23808Y-10367D01*
X23422Y-10527D01*
X23126Y-10822D01*
X22966Y-11207D01*
X22966Y-11625D01*
X23126Y-12011D01*
X23421Y-12307D01*
X23806Y-12467D01*
X24224Y-12467D01*
X24610Y-12307D01*
X24906Y-12012D01*
X25066Y-11627D01*
X25066Y-12413D01*
X24491Y-12988D01*
X24489Y-12990D01*
X24240Y-13240D01*
X24160Y-13359D01*
X24132Y-13500D01*
X24132Y-16000D01*
X24132Y-18599D01*
X24039Y-18692D01*
X23956Y-18892D01*
X23956Y-19108D01*
X24039Y-19308D01*
X24192Y-19461D01*
X24392Y-19544D01*
X24524Y-19544D01*
X24901Y-19921D01*
X24901Y-20399D01*
X24939Y-20491D01*
X25009Y-20561D01*
X25100Y-20599D01*
X25199Y-20599D01*
X25899Y-20599D01*
X25991Y-20561D01*
X26061Y-20491D01*
X26099Y-20400D01*
X26099Y-20301D01*
X26099Y-19601D01*
X26061Y-19509D01*
X25991Y-19439D01*
X25900Y-19401D01*
X25801Y-19401D01*
X25421Y-19401D01*
X25044Y-19024D01*
X25044Y-18892D01*
X24961Y-18692D01*
X24868Y-18599D01*
X24868Y-16368D01*
X25021Y-16368D01*
X25161Y-16508D01*
X25381Y-16599D01*
X25619Y-16599D01*
X25839Y-16508D01*
X26008Y-16339D01*
X26099Y-16119D01*
X26099Y-15881D01*
X26008Y-15661D01*
X25839Y-15492D01*
X25619Y-15401D01*
X25381Y-15401D01*
X25161Y-15492D01*
X25021Y-15632D01*
X24868Y-15632D01*
X24868Y-13652D01*
X25010Y-13511D01*
X25010Y-13510D01*
X25011Y-13508D01*
X26324Y-12196D01*
X26450Y-12249D01*
X26748Y-12249D01*
X27023Y-12135D01*
X27234Y-11925D01*
X27349Y-11650D01*
X27349Y-12630D01*
X26347Y-13632D01*
X25979Y-13632D01*
X25839Y-13492D01*
X25619Y-13401D01*
X25381Y-13401D01*
X25161Y-13492D01*
X24992Y-13661D01*
X24901Y-13881D01*
X24901Y-14119D01*
X24992Y-14339D01*
X25161Y-14508D01*
X25381Y-14599D01*
X25619Y-14599D01*
X25839Y-14508D01*
X25979Y-14368D01*
X26132Y-14368D01*
X26132Y-16479D01*
X26039Y-16572D01*
X25956Y-16772D01*
X25956Y-16988D01*
X25966Y-17013D01*
X25579Y-17401D01*
X25101Y-17401D01*
X25009Y-17439D01*
X24939Y-17509D01*
X24901Y-17600D01*
X24901Y-17699D01*
X24901Y-18399D01*
X24939Y-18491D01*
X25009Y-18561D01*
X25100Y-18599D01*
X25199Y-18599D01*
X25899Y-18599D01*
X25991Y-18561D01*
X26061Y-18491D01*
X26099Y-18400D01*
X26099Y-18301D01*
X26099Y-17921D01*
X26596Y-17424D01*
X26608Y-17424D01*
X26808Y-17341D01*
X26961Y-17188D01*
X27044Y-16988D01*
X27044Y-16772D01*
X26961Y-16572D01*
X26868Y-16479D01*
X26868Y-14152D01*
X28771Y-12249D01*
X29149Y-12249D01*
X29241Y-12211D01*
X29311Y-12141D01*
X29349Y-12050D01*
X29349Y-13401D01*
X29101Y-13401D01*
X29009Y-13439D01*
X28939Y-13509D01*
X28901Y-13600D01*
X28901Y-13699D01*
X28901Y-14399D01*
X28939Y-14491D01*
X29009Y-14561D01*
X29100Y-14599D01*
X29132Y-14599D01*
X29132Y-15401D01*
X29101Y-15401D01*
X29009Y-15439D01*
X28939Y-15509D01*
X28901Y-15600D01*
X28901Y-15699D01*
X28901Y-16399D01*
X28939Y-16491D01*
X29009Y-16561D01*
X29100Y-16599D01*
X29132Y-16599D01*
X29132Y-16847D01*
X26740Y-19240D01*
X26660Y-19359D01*
X26632Y-19500D01*
X26632Y-22750D01*
X26660Y-22891D01*
X26740Y-23010D01*
X27240Y-23510D01*
X27359Y-23590D01*
X27500Y-23618D01*
X34750Y-23618D01*
X34891Y-23590D01*
X35010Y-23510D01*
X35271Y-23249D01*
X36049Y-23249D01*
X36141Y-23211D01*
X36211Y-23141D01*
X36249Y-23050D01*
X36249Y-22951D01*
X36249Y-21951D01*
X36211Y-21859D01*
X36141Y-21789D01*
X36050Y-21751D01*
X35951Y-21751D01*
X35868Y-21751D01*
X35868Y-21000D01*
X35868Y-20902D01*
X36226Y-20544D01*
X36358Y-20544D01*
X36558Y-20461D01*
X36711Y-20308D01*
X36794Y-20108D01*
X36794Y-19892D01*
X36712Y-19695D01*
X36800Y-19657D01*
X36933Y-19511D01*
X37000Y-19325D01*
X37000Y-19050D01*
X37000Y-18950D01*
X37000Y-18675D01*
X36933Y-18489D01*
X36800Y-18343D01*
X36627Y-18267D01*
X36550Y-18315D01*
X36550Y-18950D01*
X37000Y-18950D01*
X37000Y-19050D01*
X36600Y-19050D01*
X36550Y-19050D01*
X36450Y-19050D01*
X36450Y-18950D01*
X36450Y-18315D01*
X36373Y-18267D01*
X36200Y-18343D01*
X36067Y-18489D01*
X36000Y-18675D01*
X36000Y-18950D01*
X36450Y-18950D01*
X36450Y-19050D01*
X36400Y-19050D01*
X36000Y-19050D01*
X36000Y-19325D01*
X36059Y-19490D01*
X35942Y-19539D01*
X35868Y-19613D01*
X35868Y-19589D01*
X35915Y-19542D01*
X35990Y-19362D01*
X35990Y-19167D01*
X35990Y-18639D01*
X35916Y-18459D01*
X35868Y-18411D01*
X35868Y-17739D01*
X35902Y-17754D01*
X36097Y-17754D01*
X36277Y-17680D01*
X36415Y-17542D01*
X36490Y-17362D01*
X36490Y-17167D01*
X36490Y-16639D01*
X36416Y-16459D01*
X36368Y-16411D01*
X36368Y-16152D01*
X36456Y-16064D01*
X36456Y-16108D01*
X36539Y-16308D01*
X36632Y-16401D01*
X36632Y-16411D01*
X36585Y-16458D01*
X36510Y-16638D01*
X36510Y-16833D01*
X36510Y-17361D01*
X36584Y-17541D01*
X36722Y-17679D01*
X36902Y-17754D01*
X37097Y-17754D01*
X37277Y-17680D01*
X37415Y-17542D01*
X37490Y-17362D01*
X37490Y-17167D01*
X37490Y-16639D01*
X37416Y-16459D01*
X37368Y-16411D01*
X37368Y-16401D01*
X37461Y-16308D01*
X37544Y-16108D01*
X37544Y-15892D01*
X37495Y-15775D01*
X37505Y-15775D01*
X37632Y-15902D01*
X37632Y-16411D01*
X37585Y-16458D01*
X37510Y-16638D01*
X37510Y-16833D01*
X37510Y-17361D01*
X37584Y-17541D01*
X37632Y-17589D01*
X37632Y-18260D01*
X37598Y-18246D01*
X37403Y-18246D01*
X37223Y-18320D01*
X37085Y-18458D01*
X37010Y-18638D01*
X37010Y-18833D01*
X37010Y-19361D01*
X37084Y-19541D01*
X37132Y-19589D01*
X37132Y-21000D01*
X37160Y-21141D01*
X37240Y-21260D01*
X37811Y-21832D01*
X37627Y-21761D01*
X37335Y-21769D01*
X37100Y-21866D01*
X37050Y-21980D01*
X37465Y-22394D01*
X37500Y-22429D01*
X37571Y-22500D01*
X37606Y-22535D01*
X38020Y-22950D01*
X38134Y-22900D01*
X38239Y-22627D01*
X38231Y-22335D01*
X38172Y-22192D01*
X39489Y-23510D01*
X39490Y-23510D01*
X39537Y-23541D01*
X39609Y-23590D01*
X39749Y-23617D01*
X39750Y-23618D01*
X43000Y-23618D01*
X43141Y-23590D01*
X43260Y-23510D01*
X43834Y-22935D01*
X43905Y-22906D01*
X44059Y-22752D01*
X44094Y-22667D01*
X44129Y-22752D01*
X44283Y-22906D01*
X44485Y-22990D01*
X44703Y-22990D01*
X44905Y-22906D01*
X45045Y-22766D01*
X45045Y-22790D01*
X45083Y-22882D01*
X45153Y-22952D01*
X45244Y-22990D01*
X45343Y-22990D01*
X45943Y-22990D01*
X46035Y-22952D01*
X46105Y-22882D01*
X46143Y-22791D01*
X46143Y-22692D01*
X46143Y-22092D01*
X46105Y-22000D01*
X46035Y-21930D01*
X45962Y-21899D01*
X45962Y-21344D01*
X45934Y-21203D01*
X45854Y-21084D01*
X45368Y-20598D01*
X45368Y-19387D01*
X45442Y-19461D01*
X45642Y-19544D01*
X45858Y-19544D01*
X46058Y-19461D01*
X46151Y-19368D01*
X46750Y-19368D01*
X47132Y-19368D01*
X47132Y-19401D01*
X47101Y-19401D01*
X47009Y-19439D01*
X46939Y-19509D01*
X46901Y-19600D01*
X46901Y-19699D01*
X46901Y-20399D01*
X46939Y-20491D01*
X47009Y-20561D01*
X47100Y-20599D01*
X47199Y-20599D01*
X47899Y-20599D01*
X47991Y-20561D01*
X48061Y-20491D01*
X48099Y-20400D01*
X48099Y-20301D01*
X48099Y-19601D01*
X48061Y-19509D01*
X47991Y-19439D01*
X47900Y-19401D01*
X47868Y-19401D01*
X47868Y-19368D01*
X48500Y-19368D01*
X48641Y-19340D01*
X48760Y-19260D01*
X48794Y-19226D01*
X48794Y-21127D01*
X51190Y-21127D01*
X51190Y-24084D01*
X50656Y-24084D01*
X50656Y-22651D01*
X50656Y-22233D01*
X50496Y-21847D01*
X50201Y-21551D01*
X49816Y-21391D01*
X49398Y-21391D01*
X49012Y-21551D01*
X48716Y-21846D01*
X48556Y-22231D01*
X48556Y-22649D01*
X48716Y-23035D01*
X49011Y-23331D01*
X49396Y-23491D01*
X49814Y-23491D01*
X50200Y-23331D01*
X50496Y-23036D01*
X50656Y-22651D01*
X50656Y-24084D01*
X37950Y-24084D01*
X37950Y-23020D01*
X37500Y-22571D01*
X37429Y-22641D01*
X37429Y-22500D01*
X36980Y-22050D01*
X36866Y-22100D01*
X36761Y-22373D01*
X36769Y-22665D01*
X36866Y-22900D01*
X36980Y-22950D01*
X37429Y-22500D01*
X37429Y-22641D01*
X37050Y-23020D01*
X37100Y-23134D01*
X37373Y-23239D01*
X37665Y-23231D01*
X37900Y-23134D01*
X37950Y-23020D01*
X37950Y-24084D01*
X25066Y-24084D01*
X25066Y-22651D01*
X25066Y-22233D01*
X24906Y-21847D01*
X24611Y-21551D01*
X24226Y-21391D01*
X23808Y-21391D01*
X23422Y-21551D01*
X23126Y-21846D01*
X22966Y-22231D01*
X22966Y-22649D01*
X23126Y-23035D01*
X23421Y-23331D01*
X23806Y-23491D01*
X24224Y-23491D01*
X24610Y-23331D01*
X24906Y-23036D01*
X25066Y-22651D01*
X25066Y-24084D01*
X22766Y-24084D01*
X22766Y-09774D01*
X51250Y-09774D01*
X51250Y-24084D01*
M02*
