<?xml version="1.0" encoding="UTF-8" standalone="no"?>
<!-- Created with Inkscape (http://www.inkscape.org/) -->

<svg
   xmlns:dc="http://purl.org/dc/elements/1.1/"
   xmlns:cc="http://creativecommons.org/ns#"
   xmlns:rdf="http://www.w3.org/1999/02/22-rdf-syntax-ns#"
   xmlns:svg="http://www.w3.org/2000/svg"
   xmlns="http://www.w3.org/2000/svg"
   xmlns:sodipodi="http://sodipodi.sourceforge.net/DTD/sodipodi-0.dtd"
   xmlns:inkscape="http://www.inkscape.org/namespaces/inkscape"
   id="svg2"
   version="1.1"
   inkscape:version="0.48.4 r9939"
   width="294.10001"
   height="366.13947"
   xml:space="preserve"
   sodipodi:docname="JST-XH-numbering.svg"
   inkscape:export-filename="/home/nickoe/aauship/hw/icp/JST-XH-numbering.png"
   inkscape:export-xdpi="90"
   inkscape:export-ydpi="90"><metadata
     id="metadata8"><rdf:RDF><cc:Work
         rdf:about=""><dc:format>image/svg+xml</dc:format><dc:type
           rdf:resource="http://purl.org/dc/dcmitype/StillImage" /><dc:title></dc:title></cc:Work></rdf:RDF></metadata><defs
     id="defs6"><marker
       inkscape:stockid="Arrow1Mend"
       orient="auto"
       refY="0"
       refX="0"
       id="Arrow1Mend"
       style="overflow:visible"><path
         id="path4618"
         d="M 0,0 5,-5 -12.5,0 5,5 0,0 z"
         style="fill-rule:evenodd;stroke:#000000;stroke-width:1pt"
         transform="matrix(-0.4,0,0,-0.4,-4,0)"
         inkscape:connector-curvature="0" /></marker><clipPath
       clipPathUnits="userSpaceOnUse"
       id="clipPath16"><path
         d="m -9,830 613,0 0,-817 -613,0 0,817 z"
         id="path18"
         inkscape:connector-curvature="0" /></clipPath><clipPath
       clipPathUnits="userSpaceOnUse"
       id="clipPath22"><path
         d="m 0.03,841.98 595.02,0 0,-841.98 -595.02,0 0,841.98 z"
         id="path24"
         inkscape:connector-curvature="0" /></clipPath><clipPath
       clipPathUnits="userSpaceOnUse"
       id="clipPath36"><path
         d="m 518.28,55.65 35.62,0 0,-15.59 -35.62,0 0,15.59 z"
         clip-rule="evenodd"
         id="path38"
         inkscape:connector-curvature="0" /></clipPath><clipPath
       clipPathUnits="userSpaceOnUse"
       id="clipPath42"><path
         d="m -9,830 613,0 0,-817 -613,0 0,817 z"
         id="path44"
         inkscape:connector-curvature="0" /></clipPath><clipPath
       clipPathUnits="userSpaceOnUse"
       id="clipPath48"><path
         d="m 0.03,841.98 595.02,0 0,-841.98 -595.02,0 0,841.98 z"
         id="path50"
         inkscape:connector-curvature="0" /></clipPath><clipPath
       clipPathUnits="userSpaceOnUse"
       id="clipPath62"><path
         d="m -9,830 613,0 0,-817 -613,0 0,817 z"
         id="path64"
         inkscape:connector-curvature="0" /></clipPath><clipPath
       clipPathUnits="userSpaceOnUse"
       id="clipPath68"><path
         d="m 0.03,841.98 595.02,0 0,-841.98 -595.02,0 0,841.98 z"
         id="path70"
         inkscape:connector-curvature="0" /></clipPath><clipPath
       clipPathUnits="userSpaceOnUse"
       id="clipPath78"><path
         d="m 60.25,322.88 235.28,0 0,-267.72 -235.28,0 0,267.72 z"
         clip-rule="evenodd"
         id="path80"
         inkscape:connector-curvature="0" /></clipPath><clipPath
       clipPathUnits="userSpaceOnUse"
       id="clipPath84"><path
         d="m -9,830 613,0 0,-817 -613,0 0,817 z"
         id="path86"
         inkscape:connector-curvature="0" /></clipPath><clipPath
       clipPathUnits="userSpaceOnUse"
       id="clipPath90"><path
         d="m 0.03,841.98 595.02,0 0,-841.98 -595.02,0 0,841.98 z"
         id="path92"
         inkscape:connector-curvature="0" /></clipPath><clipPath
       clipPathUnits="userSpaceOnUse"
       id="clipPath122"><path
         d="m -9,830 613,0 0,-817 -613,0 0,817 z"
         id="path124"
         inkscape:connector-curvature="0" /></clipPath><clipPath
       clipPathUnits="userSpaceOnUse"
       id="clipPath128"><path
         d="m 0.03,841.98 595.02,0 0,-841.98 -595.02,0 0,841.98 z"
         id="path130"
         inkscape:connector-curvature="0" /></clipPath><clipPath
       clipPathUnits="userSpaceOnUse"
       id="clipPath396"><path
         d="m 46.08,829.5 521.57,0 0,-116.22 -521.57,0 0,116.22 z"
         clip-rule="evenodd"
         id="path398"
         inkscape:connector-curvature="0" /></clipPath><clipPath
       clipPathUnits="userSpaceOnUse"
       id="clipPath402"><path
         d="m -9,830 613,0 0,-817 -613,0 0,817 z"
         id="path404"
         inkscape:connector-curvature="0" /></clipPath><clipPath
       clipPathUnits="userSpaceOnUse"
       id="clipPath408"><path
         d="m 0.03,841.98 595.02,0 0,-841.98 -595.02,0 0,841.98 z"
         id="path410"
         inkscape:connector-curvature="0" /></clipPath><clipPath
       clipPathUnits="userSpaceOnUse"
       id="clipPath510"><path
         d="m -9,830 613,0 0,-817 -613,0 0,817 z"
         id="path512"
         inkscape:connector-curvature="0" /></clipPath><clipPath
       clipPathUnits="userSpaceOnUse"
       id="clipPath516"><path
         d="m 0.03,841.98 595.02,0 0,-841.98 -595.02,0 0,841.98 z"
         id="path518"
         inkscape:connector-curvature="0" /></clipPath><clipPath
       clipPathUnits="userSpaceOnUse"
       id="clipPath526"><path
         d="m 60.58,707.61 235.28,0 0,-238.11 -235.28,0 0,238.11 z"
         clip-rule="evenodd"
         id="path528"
         inkscape:connector-curvature="0" /></clipPath></defs><sodipodi:namedview
     pagecolor="#ffffff"
     bordercolor="#666666"
     borderopacity="1"
     objecttolerance="10"
     gridtolerance="10"
     guidetolerance="10"
     inkscape:pageopacity="0"
     inkscape:pageshadow="2"
     inkscape:window-width="1436"
     inkscape:window-height="861"
     id="namedview4"
     showgrid="false"
     fit-margin-top="0"
     fit-margin-left="0"
     fit-margin-right="0"
     fit-margin-bottom="0"
     inkscape:zoom="1.2684253"
     inkscape:cx="61.020535"
     inkscape:cy="235.34117"
     inkscape:window-x="0"
     inkscape:window-y="18"
     inkscape:window-maximized="0"
     inkscape:current-layer="g10" /><g
     id="g10"
     inkscape:groupmode="layer"
     inkscape:label="JST-XH"
     transform="matrix(1.25,0,0,-1.25,322.71981,431.00572)"><g
       clip-path="url(#clipPath78)"
       id="g76"
       transform="translate(-318.42585,-8.9194915)"><g
         id="g4535"><path
           d="m 212.543,238.51 -6.952,-4.014 8.043,-4.638 12.32,7.113 -2.662,1.557 m -10.756,-2.179 c -0.781,-0.587 -1.252,-1.336 -1.252,-2.153 0,-1.24 1.082,-2.325 2.698,-2.917 m -13.847,12.234 c -0.783,-0.586 -1.252,-1.335 -1.252,-2.153 0,-1.24 1.081,-2.324 2.697,-2.917 m -13.848,12.235 c -0.781,-0.585 -1.251,-1.334 -1.251,-2.152 0,-1.24 1.081,-2.325 2.697,-2.916 m -13.848,12.234 c -0.782,-0.586 -1.252,-1.336 -1.252,-2.153 0,-1.24 1.083,-2.326 2.699,-2.917 m -13.848,12.235 c -0.783,-0.586 -1.252,-1.336 -1.252,-2.153 0,-1.24 1.082,-2.325 2.698,-2.917 m 46.909,-28.692 0,2.949 m -12.401,4.216 0,2.948 m -12.402,4.218 0,2.948 m -12.403,4.217 0,2.948 m -12.401,4.217 0,2.948 m 52.195,-32.874 0,1.373 m -12.402,5.792 0,1.373 m -12.402,5.791 0,1.375 m -12.402,5.791 0,1.374 m -12.402,5.791 0,1.374 m 51.178,-29.11 c -1.433,0.201 -1.996,0.472 -1.996,1.438 0,1.013 0.591,-0.027 2.052,-0.346 0.407,-0.089 0.848,-0.111 1.304,-0.111 0.13,0 0.259,0.003 0.385,0.008 m -14.146,6.177 c -1.434,0.2 -1.997,0.471 -1.997,1.437 0,1.013 0.591,-0.028 2.052,-0.346 0.407,-0.089 0.848,-0.111 1.303,-0.111 0.131,0 0.26,0.003 0.388,0.009 m -14.149,6.176 c -1.433,0.199 -1.996,0.471 -1.996,1.437 0,1.012 0.592,-0.028 2.052,-0.346 0.407,-0.089 0.848,-0.111 1.304,-0.111 0.13,0 0.259,0.003 0.386,0.009 m -14.147,6.176 c -1.434,0.2 -1.996,0.471 -1.996,1.438 0,1.012 0.591,-0.029 2.051,-0.347 0.407,-0.089 0.849,-0.11 1.303,-0.11 0.131,0 0.26,0.002 0.388,0.008 m -14.147,6.177 c -1.435,0.199 -1.998,0.47 -1.998,1.437 0,1.012 0.592,-0.028 2.053,-0.347 0.406,-0.088 0.848,-0.111 1.303,-0.111 0.13,0 0.259,0.003 0.387,0.01 m 45.938,-27.896 c -0.603,0.366 -0.965,0.833 -0.965,1.344 l -0.005,52.841 m -11.433,-47.019 c -0.602,0.365 -0.963,0.833 -0.963,1.343 l -0.006,52.84 m -11.433,-47.018 c -0.602,0.365 -0.964,0.833 -0.964,1.343 l -0.005,52.84 m -11.433,-47.019 c -0.602,0.366 -0.963,0.834 -0.963,1.344 l -0.006,52.84 m -12.399,7.166 0,-52.841 c 0,-0.51 0.364,-0.977 0.967,-1.342 m 57.131,-27.151 0,52.674 m -12.401,-45.509 0,52.673 m -12.403,-45.507 0,52.672 m -12.401,-45.507 0,52.672 m -12.402,-45.507 0,52.673 m 49.609,-75.181 1.212,0.699 2.673,-1.55 -1.637,-0.946 0,-3.09 m -10.764,11.201 -1.637,-0.945 0,-3.091 m -2.249,4.887 1.211,0.699 2.675,-1.55 m -12.403,7.165 -1.637,-0.945 0,-3.091 m -2.248,4.887 1.212,0.699 2.673,-1.55 m -12.401,7.166 -1.637,-0.946 0,-3.091 m -2.249,4.887 1.211,0.699 2.675,-1.549 m -12.402,7.165 -1.638,-0.946 0,-3.091 m -2.247,4.887 1.212,0.7 2.673,-1.55 m 46.934,-27.111 0,-6.149 m -12.403,13.314 0,-6.148 m -12.401,13.313 0,-6.148 m -12.403,13.313 0,-6.148 m -12.4,13.314 0,-6.149"
           style="fill:none;stroke:#000000;stroke-width:0.36000001;stroke-linecap:butt;stroke-linejoin:miter;stroke-miterlimit:4;stroke-opacity:1;stroke-dasharray:none"
           id="path98"
           inkscape:connector-curvature="0" /><text
           style="font-size:10.39838505px"
           y="228.0715"
           x="110.48263"
           transform="matrix(0,1,1,0.57599863,0,0)"
           id="text108"><tspan
             style="font-size:7.01460028px;font-variant:normal;font-weight:normal;writing-mode:lr-tb;fill:#000000;fill-opacity:1;fill-rule:nonzero;stroke:none;font-family:Helvetica;-inkscape-font-specification:Helvetica"
             x="110.48263"
             y="228.0715"
             id="tspan110">1</tspan></text>
<path
           sodipodi:nodetypes="cccccc"
           transform="matrix(0.8,0,0,-0.8,60.250002,317.1875)"
           inkscape:connector-curvature="0"
           id="path4523"
           d="m 128.49643,1.7362942 0,66.7568198 c 4.74774,4.063852 7.49586,1.329004 10.45252,-0.696835 l 0,-65.502516 c -2.63791,-4.0721381 -3.66257,-0.6157417 -5.29594,0 -1.8914,-2.08380551 -3.63644,-2.55752828 -5.15658,-0.5574688 z"
           style="fill:#000000;fill-opacity:1;stroke:none" /><path
           style="fill:#fffa00;fill-opacity:1;stroke:none"
           d="m 175.42294,308.55138 0,-53.40546 c 3.79819,-3.25108 5.99669,-1.0632 8.36202,0.55747 l 0,52.40201 c -2.11033,3.25771 -2.93006,0.4926 -4.23676,0 -1.51312,1.66705 -2.90915,2.04603 -4.12526,0.44598 z"
           id="path4527"
           inkscape:connector-curvature="0"
           sodipodi:nodetypes="cccccc" /><path
           sodipodi:nodetypes="cccccc"
           inkscape:connector-curvature="0"
           id="path4529"
           d="m 188.03701,301.29829 0,-53.40546 c 3.79819,-3.25108 5.99669,-1.0632 8.36202,0.55747 l 0,52.40201 c -2.11033,3.25771 -2.93006,0.4926 -4.23676,0 -1.51312,1.66705 -2.90915,2.04603 -4.12526,0.44598 z"
           style="fill:#002ee1;fill-opacity:1;stroke:none" /><path
           style="fill:#03f400;fill-opacity:1;stroke:none"
           d="m 200.33572,294.0452 0,-53.40546 c 3.79819,-3.25108 5.99669,-1.0632 8.36202,0.55747 l 0,52.40201 c -2.11033,3.25771 -2.93006,0.4926 -4.23676,0 -1.51312,1.66705 -2.90915,2.04603 -4.12526,0.44598 z"
           id="path4531"
           inkscape:connector-curvature="0"
           sodipodi:nodetypes="cccccc" /><path
           sodipodi:nodetypes="cccccc"
           inkscape:connector-curvature="0"
           id="path4533"
           d="m 212.63444,286.94979 0,-53.40546 c 3.79819,-3.25108 5.99669,-1.0632 8.36202,0.55747 l 0,52.40201 c -2.11033,3.25771 -2.93006,0.4926 -4.23676,0 -1.51312,1.66705 -2.90915,2.04603 -4.12526,0.44598 z"
           style="fill:#ff0000;fill-opacity:1;stroke:none" /></g><path
         inkscape:connector-curvature="0"
         id="path94"
         style="fill:none;stroke:#000000;stroke-width:0.36000001;stroke-linecap:butt;stroke-linejoin:miter;stroke-miterlimit:4;stroke-opacity:1;stroke-dasharray:none"
         d="m 232.438,232.464 0,-4.969 m -19.167,-6.286 0,-34.192 m -64.533,-10.482 3.806,2.204 m -2.533,6.623 3.822,-2.199 m 46.723,-52.603 3.806,2.205 m 17.202,-3.239 -3.805,2.205 m -17.203,14.9 3.806,2.205 m -35.049,20.481 -10e-4,22.78 m -19.532,-55.721 0,3.825 5.75,-3.319 0,-3.826 m 6.671,-3.851 0,3.826 5.749,-3.319 0,-3.826 m 6.671,-3.851 0,3.826 5.75,-3.319 0,-3.827 m 6.671,-3.851 0,3.827 5.749,-3.32 0,-3.827 m 20.48,-11.822 -10e-4,39.558 m -57.74,-6.224 6.671,-3.851 m 5.749,-3.319 6.671,-3.851 m 5.75,-3.32 6.671,-3.851 m 5.749,-3.32 6.672,-3.851 m 3.305,1.909 -3.305,-1.909 m -9.116,9.079 -3.305,-1.908 m -9.115,9.079 -3.306,-1.908 m -9.115,9.078 -3.305,-1.908 m -9.116,9.079 -3.305,-1.908 m 63.508,2.926 3.797,2.194 m -12.723,-2.471 0,-6.271 1.621,-0.936 m 0.27,11.513 7.018,-4.051 m -58.798,33.944 46.083,-26.606 0,-16.058 2.752,-1.589 c 1.357,-0.774 2.689,0.042 2.689,1.364 l 0,6.412 -2.006,2.785 -0.001,2.503 6.076,3.512 7.019,-4.051 0,-11.667 c 0,-1.322 1.33,-2.137 2.688,-1.364 l 1.798,1.061 0,14.541 19.292,11.142 m -87.024,22.038 0,5.916 15.473,8.934 63.898,-36.888 -15.467,-8.936 0,-14.542 -0.617,-0.357 m -67.116,48.855 -0.002,5.14 19.305,11.146 71.55,-41.306 0,-39.559 -27.592,-15.928 -8.059,4.652 0,3.827 -5.749,3.319 0,-3.827 m 18.269,38.58 3.832,-2.206 m -17.202,-1.807 0,6.583 -46.113,26.613 -3.797,-2.199 m -12.731,7.329 7.004,-4.043 2.28,-2.635 0,-2.503 -2.008,-1.626 0,-4.633 c 0,-4.408 1.837,-6.771 5.455,-7.948 l 0,16.059 m 0,-12.19 c -1.079,1.325 -1.622,3.119 -1.622,5.518 l 0,5.4 2.006,1.625 0,2.504 -2.28,2.635 -7.023,4.053 -3.812,-2.216 0,-39.558 8.059,-4.652 m 1.25,37.533 3.806,2.205 m -3.806,-4.708 3.806,2.204 m -5.812,-3.83 3.806,2.205 m 63.395,-29.978 0,5.72 -0.816,2.076 -1.937,1.104 -2.389,-1.371 -0.826,-2.062 0,-2.036" /><path
         inkscape:connector-curvature="0"
         id="path96"
         style="fill:none;stroke:#000000;stroke-width:0.36000001;stroke-linecap:butt;stroke-linejoin:miter;stroke-miterlimit:4;stroke-opacity:1;stroke-dasharray:none"
         d="m 203.804,149.177 0,5.721 -0.816,2.077 -1.936,1.102 -2.39,-1.37 -0.825,-2.063 0,-2.036 m -6.453,3.739 0,5.721 -0.816,2.077 -1.937,1.103 -2.389,-1.37 -0.826,-2.064 0,-2.036 m -6.453,3.739 0,5.721 -0.816,2.077 -1.936,1.104 -2.39,-1.371 -0.826,-2.064 0,-2.035 m -6.453,3.739 0,5.72 -0.815,2.078 -1.937,1.103 -2.39,-1.371 -0.826,-2.064 10e-4,-2.034 m 52.445,-30.285 0,4.598 m -12.421,2.572 0,4.598 m -12.42,2.572 0,4.599 m -12.421,2.572 0,4.598 m -12.421,2.572 0,4.599 m 52.874,-29.388 -3.191,-1.827 -2.765,1.574 m -6.465,7.424 -3.191,-1.828 -2.764,1.574 m -6.465,7.424 -3.191,-1.826 -2.765,1.572 m -6.465,7.424 -3.191,-1.826 -2.765,1.573 m -6.464,7.423 -3.192,-1.826 -2.764,1.573 m 50.498,-26.605 1.949,-1.117 2.389,1.37 m -16.758,6.918 1.948,-1.118 2.389,1.372 m -16.759,6.916 1.95,-1.117 2.389,1.371 m -16.758,6.917 1.948,-1.118 2.389,1.371 m -16.759,6.918 1.949,-1.118 2.39,1.371 m 51.694,40.339 0,4.975 m 15.789,4.151 0,-34.2 m -19.939,27.458 4.139,-2.389 m 0,0 7.771,4.479 m 15.682,14.035 -8.425,-4.87 -7.257,0 0,-9.165 m -23.117,4.286 4.386,2.538 10.971,-6.323 7.76,4.474 m -72.725,27.972 49.608,-28.661 m 0.766,-25.01 4.385,2.539 m -5.151,22.471 0.766,-25.01 1.968,-3.318 0,-2.296 -2.799,-2.642 m 2.799,4.938 4.386,2.538 m -4.386,-4.834 4.386,2.538 m -2.734,30.624 0.765,-25.009 1.969,-3.319 0,-2.296 -2.799,-2.642 m -53.864,26.123 4.385,-2.539 3.376,1.941 0,24.335 m -7.761,-23.737 -2.416,5.873 0,2.296 1.586,1.046 0.765,24.051 4.386,2.538 -10.971,6.323 m 60.514,-68.25 -4.386,-2.538 -3.376,1.941 0,28.327 -41.71,24.101 -0.007,-28.247 m 68.275,7.054 7.257,0 8.425,4.865 0,4.974 -19.819,11.441 m -0.014,-12.4 c 0.603,-0.441 1.026,-0.98 1.2,-1.572 m -50.808,30.233 c 0.603,-0.442 1.027,-0.98 1.2,-1.571" /><path
         inkscape:connector-curvature="0"
         id="path100"
         style="fill:none;stroke:#000000;stroke-width:0.36000001;stroke-linecap:butt;stroke-linejoin:miter;stroke-miterlimit:4;stroke-opacity:1;stroke-dasharray:none"
         d="m 216.796,286.846 c 0.799,-0.801 1.719,-1.238 2.394,-1.238 0.975,0 1.852,0.581 1.852,1.238 m -16.648,7.164 c 0.8,-0.8 1.719,-1.237 2.394,-1.237 0.975,0 1.853,0.58 1.853,1.237 m -16.649,7.165 c 0.799,-0.799 1.719,-1.237 2.394,-1.237 0.975,0 1.852,0.581 1.852,1.237 m -16.648,7.165 c 0.8,-0.799 1.719,-1.237 2.394,-1.237 0.976,0 1.853,0.581 1.853,1.237 m -16.649,7.166 c 0.8,-0.8 1.719,-1.238 2.394,-1.238 0.976,0 1.853,0.581 1.853,1.238 m 45.361,-28.66 c 0.799,0.799 1.719,1.237 2.394,1.237 0.975,0 1.852,-0.581 1.852,-1.237 m -16.648,7.164 c 0.8,0.8 1.719,1.238 2.394,1.238 0.975,0 1.853,-0.581 1.853,-1.238 m -16.649,7.165 c 0.799,0.801 1.719,1.238 2.394,1.238 0.975,0 1.852,-0.582 1.852,-1.238 m -16.648,7.165 c 0.8,0.8 1.719,1.238 2.394,1.238 0.976,0 1.853,-0.582 1.853,-1.238 m -16.649,7.166 c 0.8,0.799 1.719,1.237 2.394,1.237 0.976,0 1.853,-0.581 1.853,-1.237 m 41.114,-28.66 c 0,0.656 0.878,1.237 1.852,1.237 0.675,0 1.595,-0.438 2.395,-1.237 m -16.649,7.164 c 0,0.657 0.877,1.238 1.852,1.238 0.675,0 1.595,-0.438 2.395,-1.238 m -16.649,7.165 c 0,0.656 0.878,1.238 1.852,1.238 0.675,0 1.595,-0.437 2.395,-1.238 m -16.649,7.165 c 0,0.656 0.877,1.238 1.853,1.238 0.675,0 1.594,-0.438 2.394,-1.238 m -16.649,7.166 c 0,0.656 0.878,1.237 1.853,1.237 0.675,0 1.594,-0.438 2.394,-1.237 m 45.366,-61.83 -3.906,2.255 m -8.489,4.902 -3.943,2.276 m -8.478,4.894 -3.906,2.255 m -8.514,4.915 -3.906,2.255 m -8.467,-2.465 -17.074,-9.856 0,-4.975 4.139,-2.39 0,-34.193 63.274,-36.532 9.326,5.384 4.139,-2.391 6.46,3.729 m -33.068,51.936 -6.952,-4.013 8.042,-4.638 11.307,6.527 m 0.01,1.172 -1.657,0.971 m -23.152,7.146 -6.952,-4.013 8.043,-4.639 11.309,6.53 m 0.016,1.165 -1.667,0.976 m -23.151,7.147 -6.952,-4.014 8.043,-4.639 11.311,6.53 m -0.002,1.175 -1.65,0.966 m -23.152,7.147 -6.952,-4.013 8.043,-4.639 11.301,6.524 m 0.004,1.183 -1.647,0.963" /><text
         id="text102"
         transform="matrix(0.866275,-0.50016236,0,-1.1543678,0,0)"
         x="205.1636"
         y="-214.37111"
         style="font-size:9.53845787px"><tspan
           id="tspan104"
           y="-214.37111"
           x="205.1636"
           style="font-size:7.0123229px;font-variant:normal;font-weight:normal;writing-mode:lr-tb;fill:#000000;fill-opacity:1;fill-rule:nonzero;stroke:none;font-family:Helvetica;-inkscape-font-specification:Helvetica">5</tspan><tspan
           id="tspan106"
           sodipodi:role="line"
           y="-204.42554"
           x="199.98289 204.38664 209.96144"
           style="font-size:7.0123229px;font-variant:normal;font-weight:normal;writing-mode:lr-tb;fill:#000000;fill-opacity:1;fill-rule:nonzero;stroke:none;font-family:Helvetica;-inkscape-font-specification:Helvetica">JST</tspan></text>
<path
         inkscape:connector-curvature="0"
         id="path112"
         style="fill:none;stroke:#000000;stroke-width:0.36000001;stroke-linecap:butt;stroke-linejoin:miter;stroke-miterlimit:4;stroke-opacity:1;stroke-dasharray:none"
         d="M 213.525,68.067 25.439,176.657 m 188.086,-108.59 0,-6.75 m 0,6.75 116.836,67.454 M 213.525,61.317 330.361,128.771 M 213.525,61.317 25.439,169.907 m 0,6.75 c 19.786,16.06 35.693,8.12 71.536,16.96 21.255,5.24 40.721,-0.531 57.483,-5.568 m 42.38,-7.363 c 31.32,-4.363 53.004,-15.129 67.537,-26.219 17.1,-13.05 48.436,-16.696 65.986,-18.946" /><path
         inkscape:connector-curvature="0"
         id="path114"
         style="fill:none;stroke:#000000;stroke-width:0.89999998;stroke-linecap:butt;stroke-linejoin:miter;stroke-miterlimit:4;stroke-opacity:1;stroke-dasharray:none"
         d="m 202.768,109.602 -3.305,-1.909 -6.672,3.851 0,3.827 -5.749,3.32 m 3.305,-1.919 -3.305,-1.908 -6.671,3.851 0,3.827 -5.75,3.319 m 3.306,-1.918 -3.306,-1.908 -6.671,3.851 0,3.826 -5.749,3.319 m 3.305,-1.918 -3.305,-1.908 -6.671,3.851 0,3.826 -5.75,3.319 m 54.582,-1.176 0,-6.271 1.621,-0.936 m -1.513,-3.145 c 0.865,0.05 1.527,0.73 1.527,1.662 l 0,6.412 -2.006,2.785 -0.001,2.503 6.076,3.512 7.019,-4.051 0,-11.667 c 0,-0.734 0.41,-1.312 1.006,-1.548 0.211,-0.084 0.444,-0.125 0.692,-0.115 m 14.427,27.043 -15.467,-8.936 0,-14.542 -0.617,-0.357 m -67.116,48.855 -0.002,5.14 19.305,11.146 71.55,-41.306 0,-39.559 -27.592,-15.928 -8.059,4.652 0,3.827 -5.749,3.319 m -45.011,45.678 0,16.059 3.797,2.199 46.113,-26.613 0,-6.583 m -49.91,18.807 c -1.079,1.325 -1.622,3.119 -1.622,5.518 l 0,5.4 2.006,1.625 0,2.504 -2.28,2.635 -7.023,4.053 -3.812,-2.216 0,-39.558 8.059,-4.652 3.305,1.908 m 13.457,32.404 0,5.72 -0.815,2.078 -1.937,1.103 -2.39,-1.371 -0.826,-2.064 10e-4,-2.034 m 64.606,58.344 0,-9.165 -7.771,-4.479 -4.139,2.389 m -60.75,1.771 4.385,-2.539 3.376,1.941 m -7.761,0.598 -2.416,5.873 0,2.296 1.586,1.046 0.765,24.051 4.386,2.538 m 49.543,-61.927 -4.386,-2.538 -3.376,1.941 0,28.327 -41.71,24.101 m 68.268,-21.193 7.257,0 8.425,4.865 0,4.974 -19.819,11.441 m -0.014,-12.4 c 0.603,-0.441 1.026,-0.98 1.2,-1.572 m -50.808,30.233 c 0.603,-0.442 1.027,-0.98 1.2,-1.571 m 38.662,-32.218 0,2.949 c 0,0.817 0.471,1.566 1.252,2.153 m -13.653,2.063 0,2.948 c 0,0.818 0.469,1.567 1.252,2.153 m -13.654,2.065 0,2.948 c 0,0.818 0.47,1.567 1.251,2.152 m -13.654,2.065 0,2.948 c 0,0.817 0.47,1.567 1.252,2.153 m -13.653,2.064 0,2.948 c 0,0.817 0.469,1.567 1.252,2.153 m 63.025,-28.038 -12.32,-7.113 -8.043,4.638 m 6.937,12.143 -1.637,-0.945 0,-3.091 m 12.401,-7.165 0,3.09 1.637,0.946 m -24.804,14.33 -1.637,-0.945 0,-3.091 m -10.764,11.202 -1.637,-0.946 0,-3.091" /><path
         inkscape:connector-curvature="0"
         id="path116"
         style="fill:none;stroke:#000000;stroke-width:0.89999998;stroke-linecap:butt;stroke-linejoin:miter;stroke-miterlimit:4;stroke-opacity:1;stroke-dasharray:none"
         d="m 175.322,268.135 -1.638,-0.946 0,-3.091 m -10.741,-1.433 0,52.841 c 0,0.656 0.876,1.237 1.851,1.237 0.675,0 1.594,-0.438 2.394,-1.237 0.8,0.799 1.719,1.237 2.394,1.237 0.976,0 1.853,-0.581 1.853,-1.237 l 0,-52.673 m 41.119,-9.157 -3.906,2.255 m -8.489,4.902 -3.943,2.276 m -8.478,4.894 -3.906,2.255 m -8.514,4.915 -3.906,2.255 m -8.467,-2.465 -17.074,-9.856 0,-4.975 4.139,-2.39 0,-34.193 63.274,-36.532 9.326,5.384 4.139,-2.391 6.461,3.734 0,34.207 m -40.021,13.711 8.042,-4.638 11.307,6.527 m -31.751,5.276 8.043,-4.639 11.309,6.53 m -31.754,5.274 8.043,-4.639 11.311,6.53 m -31.756,5.275 8.043,-4.639 11.301,6.524 m 21.511,-84.357 c 31.32,-4.363 53.004,-15.129 67.537,-26.219 17.1,-13.05 48.436,-16.696 65.986,-18.946 l 0,-6.75 -116.836,-67.454 -188.086,108.59 0,6.75 c 19.786,16.06 35.693,8.12 71.536,16.96 21.255,5.24 40.721,-0.531 57.483,-5.568 m 24.505,-24.532 0,5.721 -0.816,2.077 -1.936,1.104 -2.39,-1.371 -0.826,-2.064 0.001,-2.035 m 18.387,-10.602 0,5.72 -0.815,2.077 -1.937,1.104 -2.39,-1.371 -0.826,-2.064 0.001,-2.035 m 18.388,-10.602 0,5.721 -0.816,2.077 -1.936,1.103 -2.39,-1.371 -0.826,-2.063 10e-4,-2.035 m 18.388,-10.602 0,5.72 -0.816,2.077 -1.937,1.104 -2.389,-1.371 -0.826,-2.063 0.001,-2.035 m -1.63,98.102 c 0.603,-0.441 1.026,-0.98 1.2,-1.572 m -13.602,8.738 c 0.603,-0.442 1.026,-0.98 1.2,-1.572 m -13.602,8.737 c 0.603,-0.442 1.026,-0.98 1.2,-1.572 m -9.681,-0.8 0,52.841 c 0,0.656 0.875,1.238 1.851,1.238 0.675,0 1.594,-0.438 2.394,-1.238 0.8,0.8 1.719,1.238 2.394,1.238 0.976,0 1.853,-0.582 1.853,-1.238 l 0,-52.673 m 3.91,-7.332 0,52.84 c 0,0.656 0.875,1.238 1.851,1.238 0.675,0 1.594,-0.438 2.394,-1.238 0.8,0.8 1.719,1.238 2.394,1.238 0.975,0 1.853,-0.582 1.853,-1.238 l 0,-52.673 m 3.91,-7.332 0,52.84 c 0,0.657 0.875,1.238 1.851,1.238 0.675,0 1.594,-0.438 2.394,-1.238 0.8,0.8 1.719,1.238 2.394,1.238 0.976,0 1.853,-0.581 1.853,-1.238 l 0,-52.673 m 3.91,-7.332 0,52.841 c 0,0.656 0.876,1.237 1.851,1.237 0.675,0 1.594,-0.438 2.394,-1.237 0.8,0.799 1.719,1.237 2.394,1.237 0.976,0 1.853,-0.581 1.853,-1.237 l 0,-52.674" /></g><g
       transform="scale(1,-1)"
       style="font-size:14.34331512px;font-style:normal;font-weight:normal;line-height:125%;letter-spacing:0px;word-spacing:0px;fill:#000000;fill-opacity:1;stroke:none;font-family:Times New Roman;-inkscape-font-specification:Times New Roman"
       id="text4583"><path
         d="m -189.215,-322.46475 0,-4.13088 c 0.21515,0.043 0.47333,0.0574 0.77454,0.0574 1.64948,0 4.1739,-0.67414 4.1739,-3.70058 0,-1.01837 -0.40161,-1.90766 -1.0614,-2.46705 -0.70282,-0.60242 -1.74989,-0.87494 -3.14119,-0.87494 -1.21918,0 -2.16584,0.1004 -2.85432,0.22949 l 0,10.88658 2.10847,0 m 0,-9.38053 c 0.18646,-0.043 0.48767,-0.0861 0.91797,-0.0861 1.17615,0 1.92201,0.61676 1.92201,1.79291 0,1.1905 -0.77454,1.93635 -2.09413,1.93635 -0.31555,0 -0.54504,-0.0143 -0.74585,-0.0574 l 0,-3.58583"
         style="font-variant:normal;font-weight:bold;font-stretch:normal;font-family:Adobe Gothic Std;-inkscape-font-specification:Adobe Gothic Std Bold"
         id="path5096" /><path
         d="m -180.6433,-332.63416 c 0,-0.65979 -0.45899,-1.13312 -1.14746,-1.13312 -0.6598,0 -1.13313,0.47333 -1.13313,1.13312 0,0.64545 0.45899,1.13312 1.13313,1.13312 0.65979,0 1.14746,-0.44464 1.14746,-1.13312 m -2.19453,2.18018 0,7.98923 2.12281,0 0,-7.98923 -2.12281,0"
         style="font-variant:normal;font-weight:bold;font-stretch:normal;font-family:Adobe Gothic Std;-inkscape-font-specification:Adobe Gothic Std Bold"
         id="path5098" /><path
         d="m -176.9248,-329.36389 -0.1004,-1.07575 -1.83594,0 c 0.0287,0.70283 0.0574,1.46302 0.0574,2.39534 l 0,5.57955 2.12281,0 0,-4.74764 c 0,-1.21918 0.78888,-1.66382 1.36262,-1.66382 0.90362,0 1.21918,0.77454 1.21918,1.74988 l 0,4.66158 2.12281,0 0,-4.89107 c 0,-2.23756 -1.13312,-3.25594 -2.59614,-3.25594 -1.16181,0 -1.95069,0.6598 -2.30928,1.24787 l -0.043,0"
         style="font-variant:normal;font-weight:bold;font-stretch:normal;font-family:Adobe Gothic Std;-inkscape-font-specification:Adobe Gothic Std Bold"
         id="path5100" /><path
         d="m -162.32016,-333.3083 -1.77857,0 -2.63917,1.34827 0.45898,1.52039 1.86463,-0.97534 0.0287,0 0,8.95023 2.06544,0 0,-10.84355"
         style="font-variant:normal;font-weight:bold;font-stretch:normal;font-family:Adobe Gothic Std;-inkscape-font-specification:Adobe Gothic Std Bold"
         id="path5102" /></g><g
       transform="scale(1,-1)"
       style="font-size:14.34331512px;font-style:normal;font-weight:normal;line-height:125%;letter-spacing:0px;word-spacing:0px;fill:#000000;fill-opacity:1;stroke:none;font-family:Times New Roman;-inkscape-font-specification:Times New Roman"
       id="text4587"><path
         d="m -148.53464,-333.50204 0,-4.13088 c 0.21515,0.043 0.47333,0.0574 0.77454,0.0574 1.64948,0 4.1739,-0.67414 4.1739,-3.70057 0,-1.01838 -0.40161,-1.90766 -1.0614,-2.46705 -0.70282,-0.60242 -1.74989,-0.87494 -3.14119,-0.87494 -1.21918,0 -2.16584,0.1004 -2.85432,0.22949 l 0,10.88658 2.10847,0 m 0,-9.38053 c 0.18646,-0.043 0.48767,-0.0861 0.91797,-0.0861 1.17615,0 1.92201,0.61676 1.92201,1.79291 0,1.1905 -0.77454,1.93635 -2.09413,1.93635 -0.31555,0 -0.54504,-0.0143 -0.74585,-0.0574 l 0,-3.58583"
         style="font-variant:normal;font-weight:bold;font-stretch:normal;font-family:Adobe Gothic Std;-inkscape-font-specification:Adobe Gothic Std Bold"
         id="path5087" /><path
         d="m -139.96294,-343.67146 c 0,-0.65979 -0.45899,-1.13312 -1.14747,-1.13312 -0.65979,0 -1.13312,0.47333 -1.13312,1.13312 0,0.64545 0.45899,1.13313 1.13312,1.13313 0.6598,0 1.14747,-0.44465 1.14747,-1.13313 m -2.19453,2.18019 0,7.98923 2.12281,0 0,-7.98923 -2.12281,0"
         style="font-variant:normal;font-weight:bold;font-stretch:normal;font-family:Adobe Gothic Std;-inkscape-font-specification:Adobe Gothic Std Bold"
         id="path5089" /><path
         d="m -136.24444,-340.40118 -0.1004,-1.07575 -1.83594,0 c 0.0287,0.70282 0.0574,1.46302 0.0574,2.39534 l 0,5.57955 2.12281,0 0,-4.74764 c 0,-1.21918 0.78888,-1.66383 1.36262,-1.66383 0.90362,0 1.21918,0.77454 1.21918,1.74989 l 0,4.66158 2.12281,0 0,-4.89108 c 0,-2.23755 -1.13313,-3.25593 -2.59614,-3.25593 -1.16181,0 -1.95069,0.6598 -2.30928,1.24787 l -0.043,0"
         style="font-variant:normal;font-weight:bold;font-stretch:normal;font-family:Adobe Gothic Std;-inkscape-font-specification:Adobe Gothic Std Bold"
         id="path5091" /><path
         d="m -123.84867,-335.26627 0,-0.0287 0.90363,-0.88928 c 1.57776,-1.59211 2.883,-3.16988 2.883,-5.09188 0,-1.76423 -1.06141,-3.24159 -3.38502,-3.24159 -1.24787,0 -2.36665,0.45899 -3.04078,0.97534 l 0.58807,1.5204 c 0.50202,-0.37293 1.23353,-0.78889 2.02241,-0.78889 1.19049,0 1.69251,0.78889 1.69251,1.73554 0,1.46302 -1.20484,2.85433 -3.25593,4.97714 l -1.20484,1.29089 0,1.30525 6.78439,0 0,-1.76423 -3.98744,0"
         style="font-variant:normal;font-weight:bold;font-stretch:normal;font-family:Adobe Gothic Std;-inkscape-font-specification:Adobe Gothic Std Bold"
         id="path5093" /></g><g
       transform="scale(1,-1)"
       style="font-size:14.34331512px;font-style:normal;font-weight:normal;line-height:125%;letter-spacing:0px;word-spacing:0px;fill:#000000;fill-opacity:1;stroke:none;font-family:Times New Roman;-inkscape-font-specification:Times New Roman"
       id="text4591"><path
         d="m -112.58455,-322.46475 0,-4.13088 c 0.21515,0.043 0.47333,0.0574 0.77454,0.0574 1.64948,0 4.1739,-0.67414 4.1739,-3.70058 0,-1.01837 -0.40161,-1.90766 -1.0614,-2.46705 -0.70283,-0.60242 -1.74989,-0.87494 -3.14119,-0.87494 -1.21918,0 -2.16584,0.1004 -2.85432,0.22949 l 0,10.88658 2.10847,0 m 0,-9.38053 c 0.18646,-0.043 0.48767,-0.0861 0.91797,-0.0861 1.17615,0 1.922,0.61676 1.922,1.79291 0,1.1905 -0.77454,1.93635 -2.09412,1.93635 -0.31555,0 -0.54505,-0.0143 -0.74585,-0.0574 l 0,-3.58583"
         style="font-variant:normal;font-weight:bold;font-stretch:normal;font-family:Adobe Gothic Std;-inkscape-font-specification:Adobe Gothic Std Bold"
         id="path5078" /><path
         d="m -104.01285,-332.63416 c 0,-0.65979 -0.45899,-1.13312 -1.14747,-1.13312 -0.65979,0 -1.13312,0.47333 -1.13312,1.13312 0,0.64545 0.45899,1.13312 1.13312,1.13312 0.65979,0 1.14747,-0.44464 1.14747,-1.13312 m -2.19453,2.18018 0,7.98923 2.12281,0 0,-7.98923 -2.12281,0"
         style="font-variant:normal;font-weight:bold;font-stretch:normal;font-family:Adobe Gothic Std;-inkscape-font-specification:Adobe Gothic Std Bold"
         id="path5080" /><path
         d="m -100.29435,-329.36389 -0.1004,-1.07575 -1.83595,0 c 0.0287,0.70283 0.0574,1.46302 0.0574,2.39534 l 0,5.57955 2.12281,0 0,-4.74764 c 0,-1.21918 0.788882,-1.66382 1.362614,-1.66382 0.903628,0 1.219181,0.77454 1.219181,1.74988 l 0,4.66158 2.122811,0 0,-4.89107 c 0,-2.23756 -1.133123,-3.25594 -2.59614,-3.25594 -1.161807,0 -1.950691,0.6598 -2.309276,1.24787 l -0.043,0"
         style="font-variant:normal;font-weight:bold;font-stretch:normal;font-family:Adobe Gothic Std;-inkscape-font-specification:Adobe Gothic Std Bold"
         id="path5082" /><path
         d="m -89.964022,-331.21417 c 0.415955,-0.25818 1.147466,-0.58808 1.893317,-0.58808 1.004031,0 1.506048,0.55939 1.506048,1.31958 0,1.04707 -1.090092,1.5204 -1.936347,1.5204 l -0.688479,0 0,1.4917 0.731509,0 c 1.161807,0 2.223214,0.57373 2.223214,1.79292 0,0.88928 -0.645451,1.69251 -1.950691,1.69251 -0.831912,0 -1.706855,-0.3299 -2.108468,-0.58808 l -0.473329,1.60645 c 0.545045,0.35858 1.577766,0.65979 2.72523,0.65979 2.524421,0 3.973098,-1.46302 3.973098,-3.27027 0,-1.47736 -1.004033,-2.45271 -2.20887,-2.72523 l 0,-0.0287 c 1.190494,-0.44464 1.864631,-1.37696 1.864631,-2.49573 0,-1.43433 -1.090094,-2.65352 -3.169873,-2.65352 -1.161807,0 -2.266244,0.37293 -2.825633,0.74585 l 0.444643,1.5204"
         style="font-variant:normal;font-weight:bold;font-stretch:normal;font-family:Adobe Gothic Std;-inkscape-font-specification:Adobe Gothic Std Bold"
         id="path5084" /></g><g
       transform="scale(1,-1)"
       style="font-size:14.34331512px;font-style:normal;font-weight:normal;line-height:125%;letter-spacing:0px;word-spacing:0px;fill:#000000;fill-opacity:1;stroke:none;font-family:Times New Roman;-inkscape-font-specification:Times New Roman"
       id="text4595"><path
         d="m -84.202907,-307.95859 0,-4.13087 c 0.215149,0.043 0.47333,0.0574 0.774539,0.0574 1.649479,0 4.173905,-0.67414 4.173905,-3.70057 0,-1.01838 -0.401614,-1.90767 -1.061406,-2.46705 -0.702821,-0.60242 -1.749886,-0.87495 -3.141186,-0.87495 -1.21918,0 -2.165841,0.10041 -2.854319,0.2295 l 0,10.88657 2.108467,0 m 0,-9.38053 c 0.186463,-0.043 0.487673,-0.0861 0.917972,-0.0861 1.176151,0 1.922004,0.61677 1.922004,1.79292 0,1.19049 -0.77454,1.93635 -2.094124,1.93635 -0.315552,0 -0.545046,-0.0143 -0.745852,-0.0574 l 0,-3.58583"
         style="font-variant:normal;font-weight:bold;font-stretch:normal;font-family:Adobe Gothic Std;-inkscape-font-specification:Adobe Gothic Std Bold"
         id="path5069" /><path
         d="m -75.631207,-318.128 c 0,-0.65979 -0.458987,-1.13312 -1.147465,-1.13312 -0.659792,0 -1.133122,0.47333 -1.133122,1.13312 0,0.64545 0.458986,1.13312 1.133122,1.13312 0.659791,0 1.147465,-0.44464 1.147465,-1.13312 m -2.194527,2.18019 0,7.98922 2.12281,0 0,-7.98922 -2.12281,0"
         style="font-variant:normal;font-weight:bold;font-stretch:normal;font-family:Adobe Gothic Std;-inkscape-font-specification:Adobe Gothic Std Bold"
         id="path5071" /><path
         d="m -71.912702,-314.85772 -0.100404,-1.07575 -1.835944,0 c 0.02869,0.70282 0.05737,1.46302 0.05737,2.39533 l 0,5.57955 2.122811,0 0,-4.74763 c 0,-1.21919 0.788883,-1.66383 1.362615,-1.66383 0.903628,0 1.219182,0.77454 1.219182,1.74988 l 0,4.66158 2.12281,0 0,-4.89107 c 0,-2.23755 -1.133123,-3.25593 -2.59614,-3.25593 -1.161807,0 -1.950691,0.65979 -2.309274,1.24787 l -0.04303,0"
         style="font-variant:normal;font-weight:bold;font-stretch:normal;font-family:Adobe Gothic Std;-inkscape-font-specification:Adobe Gothic Std Bold"
         id="path5073" /><path
         d="m -55.027482,-310.64079 0,-1.60645 -1.247869,0 0,-6.55489 -2.395333,0 -3.944412,6.78438 0,1.37696 4.374711,0 0,2.6822 1.965034,0 0,-2.6822 1.247869,0 m -4.102188,-4.36037 c 0.329896,-0.61676 0.588076,-1.21918 0.917972,-1.90766 l 0.05737,0 c -0.04303,0.64545 -0.08606,1.33393 -0.08606,1.96504 l 0,2.69654 -2.481393,0 0,-0.0287 1.592108,-2.72523"
         style="font-variant:normal;font-weight:bold;font-stretch:normal;font-family:Adobe Gothic Std;-inkscape-font-specification:Adobe Gothic Std Bold"
         id="path5075" /></g><g
       transform="scale(1,-1)"
       style="font-size:14.34331512px;font-style:normal;font-weight:normal;line-height:125%;letter-spacing:0px;word-spacing:0px;fill:#000000;fill-opacity:1;stroke:none;font-family:Times New Roman;-inkscape-font-specification:Times New Roman"
       id="text4599"><path
         d="m -69.066028,-287.77609 0,-4.13088 c 0.215149,0.043 0.47333,0.0574 0.774539,0.0574 1.649479,0 4.173905,-0.67414 4.173905,-3.70058 0,-1.01837 -0.401614,-1.90766 -1.061406,-2.46705 -0.702822,-0.60242 -1.749886,-0.87494 -3.141186,-0.87494 -1.21918,0 -2.165841,0.1004 -2.85432,0.22949 l 0,10.88658 2.108468,0 m 0,-9.38053 c 0.186463,-0.043 0.487673,-0.0861 0.917972,-0.0861 1.176151,0 1.922004,0.61676 1.922004,1.79291 0,1.1905 -0.77454,1.93635 -2.094124,1.93635 -0.315552,0 -0.545046,-0.0143 -0.745852,-0.0574 l 0,-3.58583"
         style="font-variant:normal;font-weight:bold;font-stretch:normal;font-family:Adobe Gothic Std;-inkscape-font-specification:Adobe Gothic Std Bold"
         id="path5060" /><path
         d="m -60.494328,-297.9455 c 0,-0.65979 -0.458987,-1.13312 -1.147465,-1.13312 -0.659792,0 -1.133122,0.47333 -1.133122,1.13312 0,0.64545 0.458986,1.13312 1.133122,1.13312 0.659791,0 1.147465,-0.44464 1.147465,-1.13312 m -2.194527,2.18018 0,7.98923 2.12281,0 0,-7.98923 -2.12281,0"
         style="font-variant:normal;font-weight:bold;font-stretch:normal;font-family:Adobe Gothic Std;-inkscape-font-specification:Adobe Gothic Std Bold"
         id="path5062" /><path
         d="m -56.775824,-294.67523 -0.100403,-1.07575 -1.835944,0 c 0.02869,0.70283 0.05737,1.46302 0.05737,2.39534 l 0,5.57955 2.122811,0 0,-4.74764 c 0,-1.21918 0.788883,-1.66382 1.362615,-1.66382 0.903628,0 1.219182,0.77454 1.219182,1.74988 l 0,4.66158 2.12281,0 0,-4.89107 c 0,-2.23756 -1.133123,-3.25594 -2.59614,-3.25594 -1.161807,0 -1.950691,0.6598 -2.309274,1.24787 l -0.04303,0"
         style="font-variant:normal;font-weight:bold;font-stretch:normal;font-family:Adobe Gothic Std;-inkscape-font-specification:Adobe Gothic Std Bold"
         id="path5064" /><path
         d="m -46.617618,-293.19787 c 0.358583,-0.043 0.73151,-0.0717 1.219182,-0.0717 1.835942,0 2.796946,0.73151 2.796946,2.03675 0,1.24787 -1.018376,1.95069 -2.12281,1.95069 -0.831912,0 -1.620795,-0.27252 -2.051094,-0.50202 l -0.415957,1.60645 c 0.530703,0.28687 1.50605,0.55939 2.581797,0.55939 2.553108,0 4.145218,-1.70685 4.145218,-3.78663 0,-2.33796 -1.778573,-3.39937 -3.671888,-3.39937 -0.229493,0 -0.401614,0.0144 -0.60242,0.043 l 0.286867,-2.12281 3.686232,0 0,-1.74988 -5.192281,0 -0.659792,5.43611"
         style="font-variant:normal;font-weight:bold;font-stretch:normal;font-family:Adobe Gothic Std;-inkscape-font-specification:Adobe Gothic Std Bold"
         id="path5066" /></g><path
       style="fill:none;stroke:#000000;stroke-width:1px;stroke-linecap:butt;stroke-linejoin:miter;stroke-opacity:1;marker-end:url(#Arrow1Mend)"
       d="m 122.19876,-15.380755 7.48961,11.4314974"
       id="path4603"
       inkscape:connector-curvature="0"
       transform="matrix(0.8,0,0,-0.8,-258.17585,308.26801)" /><path
       inkscape:connector-curvature="0"
       id="path5051"
       d="m -138.97293,326.87965 0,-21.75927"
       style="fill:none;stroke:#000000;stroke-width:0.80000001px;stroke-linecap:butt;stroke-linejoin:miter;stroke-opacity:1;marker-end:url(#Arrow1Mend)"
       sodipodi:nodetypes="cc" /><path
       style="fill:none;stroke:#000000;stroke-width:0.80000001px;stroke-linecap:butt;stroke-linejoin:miter;stroke-opacity:1;marker-end:url(#Arrow1Mend)"
       d="m -118.79042,317.10374 -6.62238,-19.5518"
       id="path5053"
       inkscape:connector-curvature="0"
       sodipodi:nodetypes="cc" /><path
       inkscape:connector-curvature="0"
       id="path5055"
       d="M -94.192991,305.43573 -112.16804,289.9835"
       style="fill:none;stroke:#000000;stroke-width:0.80000001px;stroke-linecap:butt;stroke-linejoin:miter;stroke-opacity:1;marker-end:url(#Arrow1Mend)"
       sodipodi:nodetypes="cc" /><path
       style="fill:none;stroke:#000000;stroke-width:0.80000001px;stroke-linecap:butt;stroke-linejoin:miter;stroke-opacity:1;marker-end:url(#Arrow1Mend)"
       d="m -79.371463,290.6142 -17.659694,-7.56844"
       id="path5057"
       inkscape:connector-curvature="0"
       sodipodi:nodetypes="cc" /></g></svg>