G04 (created by PCBNEW-RS274X (2012-01-19 BZR 3256)-stable) date 13-Nov-12 3:44:42 PM*
G01*
G70*
G90*
%MOIN*%
G04 Gerber Fmt 3.4, Leading zero omitted, Abs format*
%FSLAX34Y34*%
G04 APERTURE LIST*
%ADD10C,0.006000*%
%ADD11C,0.007900*%
%ADD12C,0.008100*%
%ADD13C,0.015000*%
%ADD14C,0.012000*%
%ADD15C,0.055000*%
%ADD16R,0.060000X0.060000*%
%ADD17C,0.060000*%
%ADD18C,0.070000*%
%ADD19R,0.070000X0.070000*%
%ADD20C,0.052000*%
%ADD21O,0.050000X0.100000*%
%ADD22R,0.100000X0.100000*%
%ADD23C,0.100000*%
%ADD24C,0.160000*%
%ADD25C,0.059100*%
%ADD26C,0.035000*%
%ADD27C,0.023600*%
%ADD28C,0.010000*%
G04 APERTURE END LIST*
G54D10*
G54D11*
X47103Y-22225D02*
X46859Y-22225D01*
X46835Y-22525D01*
X46859Y-22495D01*
X46908Y-22465D01*
X47030Y-22465D01*
X47078Y-22495D01*
X47103Y-22525D01*
X47127Y-22585D01*
X47127Y-22735D01*
X47103Y-22795D01*
X47078Y-22825D01*
X47030Y-22855D01*
X46908Y-22855D01*
X46859Y-22825D01*
X46835Y-22795D01*
X47274Y-22225D02*
X47444Y-22855D01*
X47615Y-22225D01*
X42531Y-24155D02*
X42531Y-23525D01*
X42726Y-23525D01*
X42775Y-23555D01*
X42799Y-23585D01*
X42823Y-23645D01*
X42823Y-23735D01*
X42799Y-23795D01*
X42775Y-23825D01*
X42726Y-23855D01*
X42531Y-23855D01*
X42994Y-23525D02*
X43116Y-24155D01*
X43214Y-23705D01*
X43311Y-24155D01*
X43433Y-23525D01*
X43628Y-24155D02*
X43628Y-23525D01*
X43799Y-23975D01*
X43969Y-23525D01*
X43969Y-24155D01*
X44838Y-24155D02*
X44838Y-23525D01*
X44960Y-23525D01*
X45033Y-23555D01*
X45082Y-23615D01*
X45106Y-23675D01*
X45130Y-23795D01*
X45130Y-23885D01*
X45106Y-24005D01*
X45082Y-24065D01*
X45033Y-24125D01*
X44960Y-24155D01*
X44838Y-24155D01*
X45350Y-24155D02*
X45350Y-23525D01*
X45886Y-24155D02*
X45716Y-23855D01*
X45594Y-24155D02*
X45594Y-23525D01*
X45789Y-23525D01*
X45838Y-23555D01*
X45862Y-23585D01*
X45886Y-23645D01*
X45886Y-23735D01*
X45862Y-23795D01*
X45838Y-23825D01*
X45789Y-23855D01*
X45594Y-23855D01*
G54D12*
X40510Y-22255D02*
X40461Y-22225D01*
X40388Y-22225D01*
X40315Y-22255D01*
X40266Y-22315D01*
X40242Y-22375D01*
X40218Y-22495D01*
X40218Y-22585D01*
X40242Y-22705D01*
X40266Y-22765D01*
X40315Y-22825D01*
X40388Y-22855D01*
X40437Y-22855D01*
X40510Y-22825D01*
X40534Y-22795D01*
X40534Y-22585D01*
X40437Y-22585D01*
X40754Y-22855D02*
X40754Y-22225D01*
X41046Y-22855D01*
X41046Y-22225D01*
X41290Y-22855D02*
X41290Y-22225D01*
X41412Y-22225D01*
X41485Y-22255D01*
X41534Y-22315D01*
X41558Y-22375D01*
X41582Y-22495D01*
X41582Y-22585D01*
X41558Y-22705D01*
X41534Y-22765D01*
X41485Y-22825D01*
X41412Y-22855D01*
X41290Y-22855D01*
G54D13*
X22441Y-24409D02*
X51575Y-24409D01*
X22441Y-09449D02*
X22441Y-24409D01*
X51575Y-09449D02*
X22441Y-09449D01*
X51575Y-24409D02*
X51575Y-09449D01*
G54D14*
X56142Y-19413D02*
X56104Y-19384D01*
X56066Y-19327D01*
X56066Y-19184D01*
X56104Y-19127D01*
X56142Y-19098D01*
X56218Y-19070D01*
X56294Y-19071D01*
X56409Y-19099D01*
X56866Y-19443D01*
X56866Y-19072D01*
X56410Y-18728D02*
X56372Y-18786D01*
X56333Y-18814D01*
X56257Y-18842D01*
X56219Y-18842D01*
X56143Y-18813D01*
X56105Y-18785D01*
X56067Y-18727D01*
X56067Y-18613D01*
X56105Y-18556D01*
X56143Y-18527D01*
X56219Y-18499D01*
X56257Y-18499D01*
X56333Y-18528D01*
X56372Y-18557D01*
X56410Y-18614D01*
X56410Y-18728D01*
X56448Y-18786D01*
X56486Y-18814D01*
X56562Y-18843D01*
X56714Y-18843D01*
X56791Y-18814D01*
X56829Y-18786D01*
X56867Y-18729D01*
X56867Y-18615D01*
X56829Y-18557D01*
X56791Y-18528D01*
X56714Y-18500D01*
X56562Y-18500D01*
X56486Y-18528D01*
X56448Y-18557D01*
X56410Y-18614D01*
X56830Y-18215D02*
X56868Y-18216D01*
X56944Y-18244D01*
X56982Y-18273D01*
X56068Y-17842D02*
X56069Y-17785D01*
X56107Y-17728D01*
X56145Y-17699D01*
X56221Y-17670D01*
X56374Y-17643D01*
X56564Y-17643D01*
X56716Y-17671D01*
X56793Y-17700D01*
X56831Y-17729D01*
X56869Y-17787D01*
X56868Y-17844D01*
X56830Y-17900D01*
X56792Y-17929D01*
X56715Y-17957D01*
X56563Y-17986D01*
X56373Y-17986D01*
X56220Y-17956D01*
X56144Y-17928D01*
X56106Y-17899D01*
X56068Y-17842D01*
X56069Y-17271D02*
X56070Y-17214D01*
X56108Y-17157D01*
X56146Y-17128D01*
X56222Y-17099D01*
X56375Y-17072D01*
X56565Y-17072D01*
X56717Y-17100D01*
X56794Y-17129D01*
X56832Y-17158D01*
X56870Y-17216D01*
X56869Y-17273D01*
X56831Y-17329D01*
X56793Y-17358D01*
X56716Y-17386D01*
X56564Y-17415D01*
X56374Y-17415D01*
X56221Y-17385D01*
X56145Y-17357D01*
X56107Y-17328D01*
X56069Y-17271D01*
X56871Y-16502D02*
X56870Y-16845D01*
X56870Y-16673D02*
X56070Y-16671D01*
X56184Y-16728D01*
X56260Y-16787D01*
X56298Y-16844D01*
X56872Y-15788D02*
X56338Y-15787D01*
X56415Y-15787D02*
X56377Y-15759D01*
X56338Y-15701D01*
X56338Y-15616D01*
X56377Y-15559D01*
X56453Y-15530D01*
X56872Y-15531D01*
X56453Y-15530D02*
X56377Y-15501D01*
X56339Y-15444D01*
X56339Y-15359D01*
X56378Y-15301D01*
X56454Y-15273D01*
X56873Y-15274D01*
X56873Y-14988D02*
X56339Y-14987D01*
X56416Y-14987D02*
X56378Y-14959D01*
X56340Y-14901D01*
X56340Y-14816D01*
X56379Y-14759D01*
X56455Y-14730D01*
X56874Y-14731D01*
X56455Y-14730D02*
X56379Y-14701D01*
X56340Y-14644D01*
X56340Y-14559D01*
X56379Y-14501D01*
X56455Y-14473D01*
X56874Y-14474D01*
X55906Y-22441D02*
X55906Y-11417D01*
X51575Y-22441D02*
X57186Y-22441D01*
X51575Y-11417D02*
X57186Y-11417D01*
X55906Y-11417D02*
X56136Y-11860D01*
X55906Y-11417D02*
X55676Y-11860D01*
X55906Y-22441D02*
X56136Y-21998D01*
X55906Y-22441D02*
X55676Y-21998D01*
X34612Y-30084D02*
X34498Y-30084D01*
X34441Y-30122D01*
X34412Y-30160D01*
X34355Y-30274D01*
X34326Y-30427D01*
X34326Y-30731D01*
X34355Y-30808D01*
X34383Y-30846D01*
X34441Y-30884D01*
X34555Y-30884D01*
X34612Y-30846D01*
X34641Y-30808D01*
X34669Y-30731D01*
X34669Y-30541D01*
X34641Y-30465D01*
X34612Y-30427D01*
X34555Y-30389D01*
X34441Y-30389D01*
X34383Y-30427D01*
X34355Y-30465D01*
X34326Y-30541D01*
X35183Y-30350D02*
X35183Y-30884D01*
X35040Y-30046D02*
X34897Y-30617D01*
X35269Y-30617D01*
X35525Y-30846D02*
X35525Y-30884D01*
X35497Y-30960D01*
X35468Y-30998D01*
X35811Y-30884D02*
X35926Y-30884D01*
X35983Y-30846D01*
X36011Y-30808D01*
X36069Y-30693D01*
X36097Y-30541D01*
X36097Y-30236D01*
X36069Y-30160D01*
X36040Y-30122D01*
X35983Y-30084D01*
X35869Y-30084D01*
X35811Y-30122D01*
X35783Y-30160D01*
X35754Y-30236D01*
X35754Y-30427D01*
X35783Y-30503D01*
X35811Y-30541D01*
X35869Y-30579D01*
X35983Y-30579D01*
X36040Y-30541D01*
X36069Y-30503D01*
X36097Y-30427D01*
X36382Y-30884D02*
X36497Y-30884D01*
X36554Y-30846D01*
X36582Y-30808D01*
X36640Y-30693D01*
X36668Y-30541D01*
X36668Y-30236D01*
X36640Y-30160D01*
X36611Y-30122D01*
X36554Y-30084D01*
X36440Y-30084D01*
X36382Y-30122D01*
X36354Y-30160D01*
X36325Y-30236D01*
X36325Y-30427D01*
X36354Y-30503D01*
X36382Y-30541D01*
X36440Y-30579D01*
X36554Y-30579D01*
X36611Y-30541D01*
X36640Y-30503D01*
X36668Y-30427D01*
X36953Y-30884D02*
X37068Y-30884D01*
X37125Y-30846D01*
X37153Y-30808D01*
X37211Y-30693D01*
X37239Y-30541D01*
X37239Y-30236D01*
X37211Y-30160D01*
X37182Y-30122D01*
X37125Y-30084D01*
X37011Y-30084D01*
X36953Y-30122D01*
X36925Y-30160D01*
X36896Y-30236D01*
X36896Y-30427D01*
X36925Y-30503D01*
X36953Y-30541D01*
X37011Y-30579D01*
X37125Y-30579D01*
X37182Y-30541D01*
X37211Y-30503D01*
X37239Y-30427D01*
X37953Y-30884D02*
X37953Y-30350D01*
X37953Y-30427D02*
X37981Y-30389D01*
X38039Y-30350D01*
X38124Y-30350D01*
X38181Y-30389D01*
X38210Y-30465D01*
X38210Y-30884D01*
X38210Y-30465D02*
X38239Y-30389D01*
X38296Y-30350D01*
X38381Y-30350D01*
X38439Y-30389D01*
X38467Y-30465D01*
X38467Y-30884D01*
X38753Y-30884D02*
X38753Y-30350D01*
X38753Y-30427D02*
X38781Y-30389D01*
X38839Y-30350D01*
X38924Y-30350D01*
X38981Y-30389D01*
X39010Y-30465D01*
X39010Y-30884D01*
X39010Y-30465D02*
X39039Y-30389D01*
X39096Y-30350D01*
X39181Y-30350D01*
X39239Y-30389D01*
X39267Y-30465D01*
X39267Y-30884D01*
X24016Y-29920D02*
X49606Y-29920D01*
X24016Y-24409D02*
X24016Y-31200D01*
X49606Y-24409D02*
X49606Y-31200D01*
X49606Y-29920D02*
X49163Y-30150D01*
X49606Y-29920D02*
X49163Y-29690D01*
X24016Y-29920D02*
X24459Y-30150D01*
X24016Y-29920D02*
X24459Y-29690D01*
G54D15*
X37500Y-15250D03*
X37500Y-11750D03*
G54D16*
X31000Y-22500D03*
G54D17*
X30000Y-22500D03*
X29000Y-22500D03*
X28000Y-22500D03*
G54D16*
X45594Y-22441D03*
G54D17*
X44594Y-22441D03*
X43594Y-22441D03*
X42594Y-22441D03*
G54D18*
X43500Y-20000D03*
G54D19*
X47500Y-20000D03*
G54D18*
X47500Y-14000D03*
G54D19*
X43500Y-14000D03*
G54D18*
X29500Y-20000D03*
G54D19*
X25500Y-20000D03*
G54D18*
X25500Y-16000D03*
G54D19*
X29500Y-16000D03*
G54D18*
X29500Y-18000D03*
G54D19*
X25500Y-18000D03*
G54D18*
X25500Y-14000D03*
G54D19*
X29500Y-14000D03*
G54D18*
X47500Y-16000D03*
G54D19*
X43500Y-16000D03*
G54D18*
X43500Y-18000D03*
G54D19*
X47500Y-18000D03*
G54D20*
X40000Y-13500D03*
X39250Y-14000D03*
X40000Y-14500D03*
X33000Y-14500D03*
X33750Y-14000D03*
X33000Y-13500D03*
G54D21*
X40000Y-17000D03*
X39500Y-19000D03*
X39000Y-17000D03*
X38500Y-19000D03*
X38000Y-17000D03*
X37500Y-19000D03*
X37000Y-17000D03*
X36500Y-19000D03*
X36000Y-17000D03*
X35500Y-19000D03*
X35000Y-17000D03*
X34500Y-19000D03*
X34000Y-17000D03*
X33500Y-19000D03*
X33000Y-17000D03*
G54D15*
X31500Y-19000D03*
X31500Y-17000D03*
X41800Y-17000D03*
X41800Y-19000D03*
X35500Y-15250D03*
X35500Y-11750D03*
X42000Y-15250D03*
X42000Y-11750D03*
X31000Y-15750D03*
X31000Y-12250D03*
G54D22*
X35500Y-22500D03*
G54D23*
X37500Y-22500D03*
G54D22*
X46300Y-11400D03*
G54D23*
X44300Y-11400D03*
G54D22*
X28600Y-11500D03*
G54D23*
X26600Y-11500D03*
G54D24*
X24016Y-22441D03*
X49606Y-22441D03*
X49606Y-11417D03*
X24016Y-11417D03*
G54D25*
X39000Y-20000D03*
X36250Y-20000D03*
X37000Y-16000D03*
X38600Y-16000D03*
X45000Y-15000D03*
X32000Y-22500D03*
X36250Y-14250D03*
X32000Y-16000D03*
G54D26*
X31000Y-22500D03*
G54D25*
X40750Y-15500D03*
X44310Y-16950D03*
X40830Y-17420D03*
X45750Y-19000D03*
X40500Y-18500D03*
X30620Y-17030D03*
X26500Y-16880D03*
X24500Y-19000D03*
X30250Y-19000D03*
G54D27*
X36250Y-20000D02*
X39000Y-20000D01*
X38600Y-16000D02*
X37000Y-16000D01*
X40910Y-15500D02*
X41190Y-15220D01*
X41190Y-15220D02*
X41190Y-14830D01*
X33250Y-16000D02*
X32000Y-16000D01*
X41475Y-14545D02*
X41520Y-14500D01*
X41190Y-14830D02*
X41475Y-14545D01*
X40280Y-15500D02*
X40910Y-15500D01*
X36250Y-14250D02*
X37750Y-14250D01*
X41520Y-14500D02*
X42500Y-14500D01*
X42500Y-14500D02*
X43000Y-15000D01*
X43000Y-15000D02*
X45000Y-15000D01*
X37750Y-14250D02*
X39000Y-15500D01*
X39000Y-15500D02*
X40280Y-15500D01*
X40280Y-15500D02*
X40750Y-15500D01*
X36250Y-14250D02*
X35000Y-14250D01*
X32000Y-22500D02*
X32000Y-16000D01*
X35000Y-14250D02*
X33250Y-16000D01*
X41250Y-17750D02*
X42250Y-17750D01*
X40830Y-17420D02*
X41160Y-17750D01*
X41180Y-17750D02*
X41250Y-17750D01*
X41180Y-17750D02*
X41160Y-17750D01*
X42750Y-17220D02*
X43020Y-16950D01*
X43020Y-16950D02*
X44310Y-16950D01*
X41000Y-17500D02*
X41250Y-17750D01*
X42750Y-17250D02*
X42750Y-17220D01*
X42250Y-17750D02*
X42750Y-17250D01*
X40750Y-18250D02*
X42250Y-18250D01*
X42250Y-18250D02*
X43000Y-19000D01*
X40500Y-18500D02*
X40750Y-18250D01*
X43000Y-19000D02*
X45750Y-19000D01*
X30470Y-16880D02*
X26500Y-16880D01*
X30620Y-17030D02*
X30470Y-16880D01*
X30250Y-19000D02*
X24500Y-19000D01*
G54D10*
G36*
X51250Y-24084D02*
X50656Y-24084D01*
X50656Y-22651D01*
X50656Y-22233D01*
X50656Y-11627D01*
X50656Y-11209D01*
X50496Y-10823D01*
X50201Y-10527D01*
X49816Y-10367D01*
X49398Y-10367D01*
X49012Y-10527D01*
X48716Y-10822D01*
X48556Y-11207D01*
X48556Y-11625D01*
X48716Y-12011D01*
X49011Y-12307D01*
X49396Y-12467D01*
X49814Y-12467D01*
X50200Y-12307D01*
X50496Y-12012D01*
X50656Y-11627D01*
X50656Y-22233D01*
X50496Y-21847D01*
X50201Y-21551D01*
X49816Y-21391D01*
X49398Y-21391D01*
X49012Y-21551D01*
X48716Y-21846D01*
X48556Y-22231D01*
X48556Y-22649D01*
X48716Y-23035D01*
X49011Y-23331D01*
X49396Y-23491D01*
X49814Y-23491D01*
X50200Y-23331D01*
X50496Y-23036D01*
X50656Y-22651D01*
X50656Y-24084D01*
X48099Y-24084D01*
X48099Y-20400D01*
X48099Y-20301D01*
X48099Y-19601D01*
X48099Y-18400D01*
X48099Y-18301D01*
X48099Y-17601D01*
X48099Y-14119D01*
X48099Y-13881D01*
X48008Y-13661D01*
X47839Y-13492D01*
X47619Y-13401D01*
X47381Y-13401D01*
X47161Y-13492D01*
X47049Y-13604D01*
X47049Y-11950D01*
X47049Y-11851D01*
X47049Y-10851D01*
X47011Y-10759D01*
X46941Y-10689D01*
X46850Y-10651D01*
X46751Y-10651D01*
X45751Y-10651D01*
X45659Y-10689D01*
X45589Y-10759D01*
X45551Y-10850D01*
X45551Y-10949D01*
X45551Y-11949D01*
X45589Y-12041D01*
X45659Y-12111D01*
X45750Y-12149D01*
X45849Y-12149D01*
X46849Y-12149D01*
X46941Y-12111D01*
X47011Y-12041D01*
X47049Y-11950D01*
X47049Y-13604D01*
X46992Y-13661D01*
X46901Y-13881D01*
X46901Y-14119D01*
X46992Y-14339D01*
X47161Y-14508D01*
X47381Y-14599D01*
X47619Y-14599D01*
X47839Y-14508D01*
X48008Y-14339D01*
X48099Y-14119D01*
X48099Y-17601D01*
X48093Y-17586D01*
X48093Y-16091D01*
X48082Y-15856D01*
X48013Y-15690D01*
X47914Y-15657D01*
X47843Y-15728D01*
X47843Y-15586D01*
X47810Y-15487D01*
X47591Y-15407D01*
X47356Y-15418D01*
X47190Y-15487D01*
X47157Y-15586D01*
X47500Y-15929D01*
X47843Y-15586D01*
X47843Y-15728D01*
X47571Y-16000D01*
X47914Y-16343D01*
X48013Y-16310D01*
X48093Y-16091D01*
X48093Y-17586D01*
X48061Y-17509D01*
X47991Y-17439D01*
X47900Y-17401D01*
X47843Y-17401D01*
X47843Y-16414D01*
X47500Y-16071D01*
X47429Y-16142D01*
X47429Y-16000D01*
X47086Y-15657D01*
X46987Y-15690D01*
X46907Y-15909D01*
X46918Y-16144D01*
X46987Y-16310D01*
X47086Y-16343D01*
X47429Y-16000D01*
X47429Y-16142D01*
X47157Y-16414D01*
X47190Y-16513D01*
X47409Y-16593D01*
X47644Y-16582D01*
X47810Y-16513D01*
X47843Y-16414D01*
X47843Y-17401D01*
X47801Y-17401D01*
X47101Y-17401D01*
X47009Y-17439D01*
X46939Y-17509D01*
X46901Y-17600D01*
X46901Y-17699D01*
X46901Y-18399D01*
X46939Y-18491D01*
X47009Y-18561D01*
X47100Y-18599D01*
X47199Y-18599D01*
X47899Y-18599D01*
X47991Y-18561D01*
X48061Y-18491D01*
X48099Y-18400D01*
X48099Y-19601D01*
X48061Y-19509D01*
X47991Y-19439D01*
X47900Y-19401D01*
X47801Y-19401D01*
X47101Y-19401D01*
X47009Y-19439D01*
X46939Y-19509D01*
X46901Y-19600D01*
X46901Y-19699D01*
X46901Y-20399D01*
X46939Y-20491D01*
X47009Y-20561D01*
X47100Y-20599D01*
X47199Y-20599D01*
X47899Y-20599D01*
X47991Y-20561D01*
X48061Y-20491D01*
X48099Y-20400D01*
X48099Y-24084D01*
X47953Y-24084D01*
X47953Y-23331D01*
X47953Y-21792D01*
X46448Y-21792D01*
X46448Y-23331D01*
X47953Y-23331D01*
X47953Y-24084D01*
X46294Y-24084D01*
X46294Y-19108D01*
X46294Y-18892D01*
X46211Y-18692D01*
X46058Y-18539D01*
X45858Y-18456D01*
X45642Y-18456D01*
X45544Y-18496D01*
X45544Y-15108D01*
X45544Y-14892D01*
X45461Y-14692D01*
X45308Y-14539D01*
X45108Y-14456D01*
X45049Y-14456D01*
X45049Y-11550D01*
X45049Y-11252D01*
X44935Y-10977D01*
X44725Y-10766D01*
X44450Y-10651D01*
X44152Y-10651D01*
X43877Y-10765D01*
X43666Y-10975D01*
X43551Y-11250D01*
X43551Y-11548D01*
X43665Y-11823D01*
X43875Y-12034D01*
X44150Y-12149D01*
X44448Y-12149D01*
X44723Y-12035D01*
X44934Y-11825D01*
X45049Y-11550D01*
X45049Y-14456D01*
X44892Y-14456D01*
X44692Y-14539D01*
X44599Y-14632D01*
X43152Y-14632D01*
X43119Y-14599D01*
X43199Y-14599D01*
X43899Y-14599D01*
X43991Y-14561D01*
X44061Y-14491D01*
X44099Y-14400D01*
X44099Y-14301D01*
X44099Y-13601D01*
X44061Y-13509D01*
X43991Y-13439D01*
X43900Y-13401D01*
X43801Y-13401D01*
X43101Y-13401D01*
X43009Y-13439D01*
X42939Y-13509D01*
X42901Y-13600D01*
X42901Y-13699D01*
X42901Y-14381D01*
X42760Y-14240D01*
X42641Y-14160D01*
X42525Y-14136D01*
X42525Y-11855D01*
X42525Y-11646D01*
X42445Y-11453D01*
X42298Y-11305D01*
X42105Y-11225D01*
X41896Y-11225D01*
X41703Y-11305D01*
X41555Y-11452D01*
X41475Y-11645D01*
X41475Y-11854D01*
X41555Y-12047D01*
X41702Y-12195D01*
X41895Y-12275D01*
X42104Y-12275D01*
X42297Y-12195D01*
X42445Y-12048D01*
X42525Y-11855D01*
X42525Y-14136D01*
X42500Y-14132D01*
X41520Y-14132D01*
X41379Y-14160D01*
X41259Y-14240D01*
X41215Y-14285D01*
X40930Y-14570D01*
X40850Y-14689D01*
X40822Y-14830D01*
X40822Y-14956D01*
X40642Y-14956D01*
X40509Y-15011D01*
X40509Y-14601D01*
X40509Y-14399D01*
X40505Y-14389D01*
X40505Y-13569D01*
X40493Y-13371D01*
X40440Y-13243D01*
X40350Y-13221D01*
X40279Y-13292D01*
X40279Y-13150D01*
X40257Y-13060D01*
X40069Y-12995D01*
X39871Y-13007D01*
X39743Y-13060D01*
X39721Y-13150D01*
X40000Y-13429D01*
X40279Y-13150D01*
X40279Y-13292D01*
X40071Y-13500D01*
X40350Y-13779D01*
X40440Y-13757D01*
X40505Y-13569D01*
X40505Y-14389D01*
X40432Y-14212D01*
X40288Y-14069D01*
X40108Y-13994D01*
X40129Y-13993D01*
X40257Y-13940D01*
X40279Y-13850D01*
X40035Y-13606D01*
X40000Y-13571D01*
X39929Y-13500D01*
X39894Y-13465D01*
X39650Y-13221D01*
X39560Y-13243D01*
X39495Y-13431D01*
X39502Y-13554D01*
X39351Y-13491D01*
X39149Y-13491D01*
X38962Y-13568D01*
X38819Y-13712D01*
X38741Y-13899D01*
X38741Y-14101D01*
X38818Y-14288D01*
X38962Y-14431D01*
X39149Y-14509D01*
X39351Y-14509D01*
X39491Y-14451D01*
X39491Y-14601D01*
X39568Y-14788D01*
X39712Y-14931D01*
X39899Y-15009D01*
X40101Y-15009D01*
X40288Y-14932D01*
X40431Y-14788D01*
X40509Y-14601D01*
X40509Y-15011D01*
X40442Y-15039D01*
X40349Y-15132D01*
X40280Y-15132D01*
X39152Y-15132D01*
X38025Y-14005D01*
X38025Y-11855D01*
X38025Y-11646D01*
X37945Y-11453D01*
X37798Y-11305D01*
X37605Y-11225D01*
X37396Y-11225D01*
X37203Y-11305D01*
X37055Y-11452D01*
X36975Y-11645D01*
X36975Y-11854D01*
X37055Y-12047D01*
X37202Y-12195D01*
X37395Y-12275D01*
X37604Y-12275D01*
X37797Y-12195D01*
X37945Y-12048D01*
X38025Y-11855D01*
X38025Y-14005D01*
X38010Y-13990D01*
X37891Y-13910D01*
X37750Y-13882D01*
X36651Y-13882D01*
X36558Y-13789D01*
X36358Y-13706D01*
X36142Y-13706D01*
X36025Y-13754D01*
X36025Y-11855D01*
X36025Y-11646D01*
X35945Y-11453D01*
X35798Y-11305D01*
X35605Y-11225D01*
X35396Y-11225D01*
X35203Y-11305D01*
X35055Y-11452D01*
X34975Y-11645D01*
X34975Y-11854D01*
X35055Y-12047D01*
X35202Y-12195D01*
X35395Y-12275D01*
X35604Y-12275D01*
X35797Y-12195D01*
X35945Y-12048D01*
X36025Y-11855D01*
X36025Y-13754D01*
X35942Y-13789D01*
X35849Y-13882D01*
X35000Y-13882D01*
X34859Y-13910D01*
X34739Y-13990D01*
X34259Y-14470D01*
X34259Y-14101D01*
X34259Y-13899D01*
X34182Y-13712D01*
X34038Y-13569D01*
X33851Y-13491D01*
X33649Y-13491D01*
X33509Y-13548D01*
X33509Y-13399D01*
X33432Y-13212D01*
X33288Y-13069D01*
X33101Y-12991D01*
X32899Y-12991D01*
X32712Y-13068D01*
X32569Y-13212D01*
X32491Y-13399D01*
X32491Y-13601D01*
X32568Y-13788D01*
X32712Y-13931D01*
X32891Y-14005D01*
X32871Y-14007D01*
X32743Y-14060D01*
X32721Y-14150D01*
X32965Y-14394D01*
X33000Y-14429D01*
X33071Y-14500D01*
X33106Y-14535D01*
X33350Y-14779D01*
X33440Y-14757D01*
X33505Y-14569D01*
X33497Y-14445D01*
X33649Y-14509D01*
X33851Y-14509D01*
X34038Y-14432D01*
X34181Y-14288D01*
X34259Y-14101D01*
X34259Y-14470D01*
X33279Y-15450D01*
X33279Y-14850D01*
X33000Y-14571D01*
X32929Y-14642D01*
X32929Y-14500D01*
X32650Y-14221D01*
X32560Y-14243D01*
X32495Y-14431D01*
X32507Y-14629D01*
X32560Y-14757D01*
X32650Y-14779D01*
X32929Y-14500D01*
X32929Y-14642D01*
X32721Y-14850D01*
X32743Y-14940D01*
X32931Y-15005D01*
X33129Y-14993D01*
X33257Y-14940D01*
X33279Y-14850D01*
X33279Y-15450D01*
X33097Y-15632D01*
X32401Y-15632D01*
X32308Y-15539D01*
X32108Y-15456D01*
X31892Y-15456D01*
X31692Y-15539D01*
X31539Y-15692D01*
X31525Y-15725D01*
X31525Y-15646D01*
X31525Y-12355D01*
X31525Y-12146D01*
X31445Y-11953D01*
X31298Y-11805D01*
X31105Y-11725D01*
X30896Y-11725D01*
X30703Y-11805D01*
X30555Y-11952D01*
X30475Y-12145D01*
X30475Y-12354D01*
X30555Y-12547D01*
X30702Y-12695D01*
X30895Y-12775D01*
X31104Y-12775D01*
X31297Y-12695D01*
X31445Y-12548D01*
X31525Y-12355D01*
X31525Y-15646D01*
X31445Y-15453D01*
X31298Y-15305D01*
X31105Y-15225D01*
X30896Y-15225D01*
X30703Y-15305D01*
X30555Y-15452D01*
X30475Y-15645D01*
X30475Y-15854D01*
X30555Y-16047D01*
X30702Y-16195D01*
X30895Y-16275D01*
X31104Y-16275D01*
X31297Y-16195D01*
X31445Y-16048D01*
X31456Y-16021D01*
X31456Y-16108D01*
X31539Y-16308D01*
X31632Y-16401D01*
X31632Y-16501D01*
X31574Y-16481D01*
X31370Y-16492D01*
X31233Y-16548D01*
X31210Y-16639D01*
X31465Y-16894D01*
X31500Y-16929D01*
X31571Y-17000D01*
X31500Y-17071D01*
X31465Y-17106D01*
X31429Y-17142D01*
X31429Y-17000D01*
X31139Y-16710D01*
X31081Y-16724D01*
X31081Y-16722D01*
X30928Y-16569D01*
X30728Y-16486D01*
X30512Y-16486D01*
X30449Y-16512D01*
X30040Y-16512D01*
X30061Y-16491D01*
X30099Y-16400D01*
X30099Y-16301D01*
X30099Y-15601D01*
X30099Y-14400D01*
X30099Y-14301D01*
X30099Y-13601D01*
X30061Y-13509D01*
X29991Y-13439D01*
X29900Y-13401D01*
X29801Y-13401D01*
X29349Y-13401D01*
X29349Y-12050D01*
X29349Y-11951D01*
X29349Y-10951D01*
X29311Y-10859D01*
X29241Y-10789D01*
X29150Y-10751D01*
X29051Y-10751D01*
X28051Y-10751D01*
X27959Y-10789D01*
X27889Y-10859D01*
X27851Y-10950D01*
X27851Y-11049D01*
X27851Y-12049D01*
X27889Y-12141D01*
X27959Y-12211D01*
X28050Y-12249D01*
X28149Y-12249D01*
X29149Y-12249D01*
X29241Y-12211D01*
X29311Y-12141D01*
X29349Y-12050D01*
X29349Y-13401D01*
X29101Y-13401D01*
X29009Y-13439D01*
X28939Y-13509D01*
X28901Y-13600D01*
X28901Y-13699D01*
X28901Y-14399D01*
X28939Y-14491D01*
X29009Y-14561D01*
X29100Y-14599D01*
X29199Y-14599D01*
X29899Y-14599D01*
X29991Y-14561D01*
X30061Y-14491D01*
X30099Y-14400D01*
X30099Y-15601D01*
X30061Y-15509D01*
X29991Y-15439D01*
X29900Y-15401D01*
X29801Y-15401D01*
X29101Y-15401D01*
X29009Y-15439D01*
X28939Y-15509D01*
X28901Y-15600D01*
X28901Y-15699D01*
X28901Y-16399D01*
X28939Y-16491D01*
X28960Y-16512D01*
X27349Y-16512D01*
X27349Y-11650D01*
X27349Y-11352D01*
X27235Y-11077D01*
X27025Y-10866D01*
X26750Y-10751D01*
X26452Y-10751D01*
X26177Y-10865D01*
X25966Y-11075D01*
X25851Y-11350D01*
X25851Y-11648D01*
X25965Y-11923D01*
X26175Y-12134D01*
X26450Y-12249D01*
X26748Y-12249D01*
X27023Y-12135D01*
X27234Y-11925D01*
X27349Y-11650D01*
X27349Y-16512D01*
X26901Y-16512D01*
X26808Y-16419D01*
X26608Y-16336D01*
X26392Y-16336D01*
X26192Y-16419D01*
X26099Y-16512D01*
X26099Y-16119D01*
X26099Y-15881D01*
X26099Y-14119D01*
X26099Y-13881D01*
X26008Y-13661D01*
X25839Y-13492D01*
X25619Y-13401D01*
X25381Y-13401D01*
X25161Y-13492D01*
X25066Y-13587D01*
X25066Y-11627D01*
X25066Y-11209D01*
X24906Y-10823D01*
X24611Y-10527D01*
X24226Y-10367D01*
X23808Y-10367D01*
X23422Y-10527D01*
X23126Y-10822D01*
X22966Y-11207D01*
X22966Y-11625D01*
X23126Y-12011D01*
X23421Y-12307D01*
X23806Y-12467D01*
X24224Y-12467D01*
X24610Y-12307D01*
X24906Y-12012D01*
X25066Y-11627D01*
X25066Y-13587D01*
X24992Y-13661D01*
X24901Y-13881D01*
X24901Y-14119D01*
X24992Y-14339D01*
X25161Y-14508D01*
X25381Y-14599D01*
X25619Y-14599D01*
X25839Y-14508D01*
X26008Y-14339D01*
X26099Y-14119D01*
X26099Y-15881D01*
X26008Y-15661D01*
X25839Y-15492D01*
X25619Y-15401D01*
X25381Y-15401D01*
X25161Y-15492D01*
X24992Y-15661D01*
X24901Y-15881D01*
X24901Y-16119D01*
X24992Y-16339D01*
X25161Y-16508D01*
X25381Y-16599D01*
X25619Y-16599D01*
X25839Y-16508D01*
X26008Y-16339D01*
X26099Y-16119D01*
X26099Y-16512D01*
X26039Y-16572D01*
X25956Y-16772D01*
X25956Y-16988D01*
X26039Y-17188D01*
X26192Y-17341D01*
X26392Y-17424D01*
X26608Y-17424D01*
X26808Y-17341D01*
X26901Y-17248D01*
X30121Y-17248D01*
X30159Y-17338D01*
X30312Y-17491D01*
X30512Y-17574D01*
X30728Y-17574D01*
X30928Y-17491D01*
X31081Y-17338D01*
X31104Y-17281D01*
X31139Y-17290D01*
X31429Y-17000D01*
X31429Y-17142D01*
X31210Y-17361D01*
X31233Y-17452D01*
X31426Y-17519D01*
X31630Y-17508D01*
X31632Y-17507D01*
X31632Y-18486D01*
X31605Y-18475D01*
X31396Y-18475D01*
X31203Y-18555D01*
X31055Y-18702D01*
X30975Y-18895D01*
X30975Y-19104D01*
X31055Y-19297D01*
X31202Y-19445D01*
X31395Y-19525D01*
X31604Y-19525D01*
X31632Y-19513D01*
X31632Y-22099D01*
X31549Y-22182D01*
X31549Y-22151D01*
X31511Y-22059D01*
X31441Y-21989D01*
X31350Y-21951D01*
X31251Y-21951D01*
X30794Y-21951D01*
X30794Y-19108D01*
X30794Y-18892D01*
X30711Y-18692D01*
X30558Y-18539D01*
X30358Y-18456D01*
X30142Y-18456D01*
X30093Y-18476D01*
X30093Y-18091D01*
X30082Y-17856D01*
X30013Y-17690D01*
X29914Y-17657D01*
X29843Y-17728D01*
X29843Y-17586D01*
X29810Y-17487D01*
X29591Y-17407D01*
X29356Y-17418D01*
X29190Y-17487D01*
X29157Y-17586D01*
X29500Y-17929D01*
X29843Y-17586D01*
X29843Y-17728D01*
X29571Y-18000D01*
X29914Y-18343D01*
X30013Y-18310D01*
X30093Y-18091D01*
X30093Y-18476D01*
X29942Y-18539D01*
X29849Y-18632D01*
X29843Y-18632D01*
X29843Y-18414D01*
X29500Y-18071D01*
X29429Y-18142D01*
X29429Y-18000D01*
X29086Y-17657D01*
X28987Y-17690D01*
X28907Y-17909D01*
X28918Y-18144D01*
X28987Y-18310D01*
X29086Y-18343D01*
X29429Y-18000D01*
X29429Y-18142D01*
X29157Y-18414D01*
X29190Y-18513D01*
X29409Y-18593D01*
X29644Y-18582D01*
X29810Y-18513D01*
X29843Y-18414D01*
X29843Y-18632D01*
X26099Y-18632D01*
X26099Y-18400D01*
X26099Y-18301D01*
X26099Y-17601D01*
X26061Y-17509D01*
X25991Y-17439D01*
X25900Y-17401D01*
X25801Y-17401D01*
X25101Y-17401D01*
X25009Y-17439D01*
X24939Y-17509D01*
X24901Y-17600D01*
X24901Y-17699D01*
X24901Y-18399D01*
X24939Y-18491D01*
X25009Y-18561D01*
X25100Y-18599D01*
X25199Y-18599D01*
X25899Y-18599D01*
X25991Y-18561D01*
X26061Y-18491D01*
X26099Y-18400D01*
X26099Y-18632D01*
X24901Y-18632D01*
X24808Y-18539D01*
X24608Y-18456D01*
X24392Y-18456D01*
X24192Y-18539D01*
X24039Y-18692D01*
X23956Y-18892D01*
X23956Y-19108D01*
X24039Y-19308D01*
X24192Y-19461D01*
X24392Y-19544D01*
X24608Y-19544D01*
X24808Y-19461D01*
X24901Y-19368D01*
X29849Y-19368D01*
X29942Y-19461D01*
X30142Y-19544D01*
X30358Y-19544D01*
X30558Y-19461D01*
X30711Y-19308D01*
X30794Y-19108D01*
X30794Y-21951D01*
X30651Y-21951D01*
X30559Y-21989D01*
X30489Y-22059D01*
X30451Y-22150D01*
X30451Y-22175D01*
X30311Y-22035D01*
X30109Y-21951D01*
X30093Y-21951D01*
X30093Y-20091D01*
X30082Y-19856D01*
X30013Y-19690D01*
X29914Y-19657D01*
X29843Y-19728D01*
X29843Y-19586D01*
X29810Y-19487D01*
X29591Y-19407D01*
X29356Y-19418D01*
X29190Y-19487D01*
X29157Y-19586D01*
X29500Y-19929D01*
X29843Y-19586D01*
X29843Y-19728D01*
X29571Y-20000D01*
X29914Y-20343D01*
X30013Y-20310D01*
X30093Y-20091D01*
X30093Y-21951D01*
X29891Y-21951D01*
X29843Y-21970D01*
X29843Y-20414D01*
X29500Y-20071D01*
X29429Y-20142D01*
X29429Y-20000D01*
X29086Y-19657D01*
X28987Y-19690D01*
X28907Y-19909D01*
X28918Y-20144D01*
X28987Y-20310D01*
X29086Y-20343D01*
X29429Y-20000D01*
X29429Y-20142D01*
X29157Y-20414D01*
X29190Y-20513D01*
X29409Y-20593D01*
X29644Y-20582D01*
X29810Y-20513D01*
X29843Y-20414D01*
X29843Y-21970D01*
X29689Y-22035D01*
X29535Y-22189D01*
X29500Y-22273D01*
X29465Y-22189D01*
X29311Y-22035D01*
X29109Y-21951D01*
X28891Y-21951D01*
X28689Y-22035D01*
X28535Y-22189D01*
X28497Y-22280D01*
X28472Y-22219D01*
X28378Y-22192D01*
X28308Y-22262D01*
X28308Y-22122D01*
X28281Y-22028D01*
X28079Y-21957D01*
X27866Y-21968D01*
X27719Y-22028D01*
X27692Y-22122D01*
X28000Y-22429D01*
X28308Y-22122D01*
X28308Y-22262D01*
X28071Y-22500D01*
X28378Y-22808D01*
X28472Y-22781D01*
X28495Y-22715D01*
X28535Y-22811D01*
X28689Y-22965D01*
X28891Y-23049D01*
X29109Y-23049D01*
X29311Y-22965D01*
X29465Y-22811D01*
X29500Y-22726D01*
X29535Y-22811D01*
X29689Y-22965D01*
X29891Y-23049D01*
X30109Y-23049D01*
X30311Y-22965D01*
X30451Y-22825D01*
X30451Y-22849D01*
X30489Y-22941D01*
X30559Y-23011D01*
X30650Y-23049D01*
X30749Y-23049D01*
X31349Y-23049D01*
X31441Y-23011D01*
X31511Y-22941D01*
X31549Y-22850D01*
X31549Y-22818D01*
X31692Y-22961D01*
X31892Y-23044D01*
X32108Y-23044D01*
X32308Y-22961D01*
X32461Y-22808D01*
X32544Y-22608D01*
X32544Y-22392D01*
X32461Y-22192D01*
X32368Y-22099D01*
X32368Y-16401D01*
X32401Y-16368D01*
X32677Y-16368D01*
X32567Y-16489D01*
X32500Y-16675D01*
X32500Y-16950D01*
X32900Y-16950D01*
X32950Y-16950D01*
X33050Y-16950D01*
X33100Y-16950D01*
X33500Y-16950D01*
X33500Y-16675D01*
X33433Y-16489D01*
X33311Y-16355D01*
X33391Y-16340D01*
X33510Y-16260D01*
X35152Y-14618D01*
X35849Y-14618D01*
X35942Y-14711D01*
X36142Y-14794D01*
X36358Y-14794D01*
X36558Y-14711D01*
X36651Y-14618D01*
X37597Y-14618D01*
X37775Y-14795D01*
X37605Y-14725D01*
X37396Y-14725D01*
X37203Y-14805D01*
X37055Y-14952D01*
X36975Y-15145D01*
X36975Y-15354D01*
X37017Y-15456D01*
X36892Y-15456D01*
X36692Y-15539D01*
X36539Y-15692D01*
X36456Y-15892D01*
X36456Y-16108D01*
X36539Y-16308D01*
X36637Y-16406D01*
X36585Y-16458D01*
X36510Y-16638D01*
X36510Y-16833D01*
X36510Y-17361D01*
X36584Y-17541D01*
X36722Y-17679D01*
X36902Y-17754D01*
X37097Y-17754D01*
X37277Y-17680D01*
X37415Y-17542D01*
X37490Y-17362D01*
X37490Y-17167D01*
X37490Y-16639D01*
X37416Y-16459D01*
X37363Y-16406D01*
X37401Y-16368D01*
X37675Y-16368D01*
X37585Y-16458D01*
X37510Y-16638D01*
X37510Y-16833D01*
X37510Y-17361D01*
X37584Y-17541D01*
X37722Y-17679D01*
X37902Y-17754D01*
X38097Y-17754D01*
X38277Y-17680D01*
X38415Y-17542D01*
X38490Y-17362D01*
X38490Y-17167D01*
X38490Y-16639D01*
X38442Y-16523D01*
X38492Y-16544D01*
X38549Y-16544D01*
X38510Y-16638D01*
X38510Y-16833D01*
X38510Y-17361D01*
X38584Y-17541D01*
X38722Y-17679D01*
X38902Y-17754D01*
X39097Y-17754D01*
X39277Y-17680D01*
X39415Y-17542D01*
X39490Y-17362D01*
X39490Y-17167D01*
X39490Y-16639D01*
X39416Y-16459D01*
X39278Y-16321D01*
X39098Y-16246D01*
X39086Y-16246D01*
X39144Y-16108D01*
X39144Y-15892D01*
X39134Y-15868D01*
X40280Y-15868D01*
X40349Y-15868D01*
X40442Y-15961D01*
X40642Y-16044D01*
X40858Y-16044D01*
X41058Y-15961D01*
X41211Y-15808D01*
X41273Y-15656D01*
X41450Y-15481D01*
X41450Y-15480D01*
X41481Y-15432D01*
X41497Y-15408D01*
X41555Y-15547D01*
X41702Y-15695D01*
X41895Y-15775D01*
X42104Y-15775D01*
X42297Y-15695D01*
X42445Y-15548D01*
X42525Y-15355D01*
X42525Y-15146D01*
X42453Y-14973D01*
X42740Y-15260D01*
X42859Y-15340D01*
X43000Y-15368D01*
X44599Y-15368D01*
X44692Y-15461D01*
X44892Y-15544D01*
X45108Y-15544D01*
X45308Y-15461D01*
X45461Y-15308D01*
X45544Y-15108D01*
X45544Y-18496D01*
X45442Y-18539D01*
X45349Y-18632D01*
X44099Y-18632D01*
X44099Y-18119D01*
X44099Y-17881D01*
X44008Y-17661D01*
X43839Y-17492D01*
X43619Y-17401D01*
X43381Y-17401D01*
X43161Y-17492D01*
X42992Y-17661D01*
X42901Y-17881D01*
X42901Y-18119D01*
X42992Y-18339D01*
X43161Y-18508D01*
X43381Y-18599D01*
X43619Y-18599D01*
X43839Y-18508D01*
X44008Y-18339D01*
X44099Y-18119D01*
X44099Y-18632D01*
X43152Y-18632D01*
X42520Y-17999D01*
X43010Y-17510D01*
X43071Y-17419D01*
X43172Y-17318D01*
X43909Y-17318D01*
X44002Y-17411D01*
X44202Y-17494D01*
X44418Y-17494D01*
X44618Y-17411D01*
X44771Y-17258D01*
X44854Y-17058D01*
X44854Y-16842D01*
X44771Y-16642D01*
X44618Y-16489D01*
X44418Y-16406D01*
X44202Y-16406D01*
X44074Y-16458D01*
X44099Y-16400D01*
X44099Y-16301D01*
X44099Y-15601D01*
X44061Y-15509D01*
X43991Y-15439D01*
X43900Y-15401D01*
X43801Y-15401D01*
X43101Y-15401D01*
X43009Y-15439D01*
X42939Y-15509D01*
X42901Y-15600D01*
X42901Y-15699D01*
X42901Y-16399D01*
X42939Y-16491D01*
X43009Y-16561D01*
X43059Y-16582D01*
X43020Y-16582D01*
X42879Y-16610D01*
X42759Y-16690D01*
X42490Y-16960D01*
X42428Y-17051D01*
X42272Y-17207D01*
X42319Y-17074D01*
X42308Y-16870D01*
X42252Y-16733D01*
X42161Y-16710D01*
X42090Y-16781D01*
X42090Y-16639D01*
X42067Y-16548D01*
X41874Y-16481D01*
X41670Y-16492D01*
X41533Y-16548D01*
X41510Y-16639D01*
X41800Y-16929D01*
X42090Y-16639D01*
X42090Y-16781D01*
X41906Y-16965D01*
X41871Y-17000D01*
X41800Y-17071D01*
X41765Y-17106D01*
X41510Y-17361D01*
X41515Y-17382D01*
X41402Y-17382D01*
X41374Y-17353D01*
X41374Y-17312D01*
X41356Y-17269D01*
X41439Y-17290D01*
X41729Y-17000D01*
X41439Y-16710D01*
X41348Y-16733D01*
X41281Y-16926D01*
X41291Y-17112D01*
X41138Y-16959D01*
X40938Y-16876D01*
X40722Y-16876D01*
X40522Y-16959D01*
X40500Y-16981D01*
X40500Y-16950D01*
X40500Y-16900D01*
X40500Y-16675D01*
X40433Y-16489D01*
X40300Y-16343D01*
X40127Y-16267D01*
X40050Y-16315D01*
X40050Y-16900D01*
X40050Y-16950D01*
X40050Y-17050D01*
X40050Y-17100D01*
X40050Y-17685D01*
X40127Y-17733D01*
X40300Y-17657D01*
X40327Y-17627D01*
X40369Y-17728D01*
X40522Y-17881D01*
X40602Y-17914D01*
X40540Y-17956D01*
X40392Y-17956D01*
X40192Y-18039D01*
X40039Y-18192D01*
X39956Y-18392D01*
X39956Y-18556D01*
X39950Y-18541D01*
X39950Y-17685D01*
X39950Y-17050D01*
X39950Y-16950D01*
X39950Y-16315D01*
X39873Y-16267D01*
X39700Y-16343D01*
X39567Y-16489D01*
X39500Y-16675D01*
X39500Y-16950D01*
X39950Y-16950D01*
X39950Y-17050D01*
X39500Y-17050D01*
X39500Y-17325D01*
X39567Y-17511D01*
X39700Y-17657D01*
X39873Y-17733D01*
X39950Y-17685D01*
X39950Y-18541D01*
X39916Y-18459D01*
X39778Y-18321D01*
X39598Y-18246D01*
X39403Y-18246D01*
X39223Y-18320D01*
X39085Y-18458D01*
X39010Y-18638D01*
X39010Y-18833D01*
X39010Y-19361D01*
X39049Y-19456D01*
X38950Y-19456D01*
X38990Y-19362D01*
X38990Y-19167D01*
X38990Y-18639D01*
X38916Y-18459D01*
X38778Y-18321D01*
X38598Y-18246D01*
X38403Y-18246D01*
X38223Y-18320D01*
X38085Y-18458D01*
X38010Y-18638D01*
X38010Y-18833D01*
X38010Y-19361D01*
X38084Y-19541D01*
X38175Y-19632D01*
X37825Y-19632D01*
X37915Y-19542D01*
X37990Y-19362D01*
X37990Y-19167D01*
X37990Y-18639D01*
X37916Y-18459D01*
X37778Y-18321D01*
X37598Y-18246D01*
X37403Y-18246D01*
X37223Y-18320D01*
X37085Y-18458D01*
X37010Y-18638D01*
X37010Y-18833D01*
X37010Y-19361D01*
X37084Y-19541D01*
X37175Y-19632D01*
X36822Y-19632D01*
X36933Y-19511D01*
X37000Y-19325D01*
X37000Y-19050D01*
X37000Y-18950D01*
X37000Y-18675D01*
X36933Y-18489D01*
X36800Y-18343D01*
X36627Y-18267D01*
X36550Y-18315D01*
X36550Y-18950D01*
X37000Y-18950D01*
X37000Y-19050D01*
X36600Y-19050D01*
X36550Y-19050D01*
X36490Y-19050D01*
X36490Y-17362D01*
X36490Y-17167D01*
X36490Y-16639D01*
X36416Y-16459D01*
X36278Y-16321D01*
X36098Y-16246D01*
X36025Y-16246D01*
X36025Y-15355D01*
X36025Y-15146D01*
X35945Y-14953D01*
X35798Y-14805D01*
X35605Y-14725D01*
X35396Y-14725D01*
X35203Y-14805D01*
X35055Y-14952D01*
X34975Y-15145D01*
X34975Y-15354D01*
X35055Y-15547D01*
X35202Y-15695D01*
X35395Y-15775D01*
X35604Y-15775D01*
X35797Y-15695D01*
X35945Y-15548D01*
X36025Y-15355D01*
X36025Y-16246D01*
X35903Y-16246D01*
X35723Y-16320D01*
X35585Y-16458D01*
X35510Y-16638D01*
X35510Y-16833D01*
X35510Y-17361D01*
X35584Y-17541D01*
X35722Y-17679D01*
X35902Y-17754D01*
X36097Y-17754D01*
X36277Y-17680D01*
X36415Y-17542D01*
X36490Y-17362D01*
X36490Y-19050D01*
X36450Y-19050D01*
X36450Y-18950D01*
X36450Y-18315D01*
X36373Y-18267D01*
X36200Y-18343D01*
X36067Y-18489D01*
X36000Y-18675D01*
X36000Y-18950D01*
X36450Y-18950D01*
X36450Y-19050D01*
X36400Y-19050D01*
X36000Y-19050D01*
X36000Y-19325D01*
X36059Y-19490D01*
X35990Y-19518D01*
X35990Y-19362D01*
X35990Y-19167D01*
X35990Y-18639D01*
X35916Y-18459D01*
X35778Y-18321D01*
X35598Y-18246D01*
X35490Y-18246D01*
X35490Y-17362D01*
X35490Y-17167D01*
X35490Y-16639D01*
X35416Y-16459D01*
X35278Y-16321D01*
X35098Y-16246D01*
X34903Y-16246D01*
X34723Y-16320D01*
X34585Y-16458D01*
X34510Y-16638D01*
X34510Y-16833D01*
X34510Y-17361D01*
X34584Y-17541D01*
X34722Y-17679D01*
X34902Y-17754D01*
X35097Y-17754D01*
X35277Y-17680D01*
X35415Y-17542D01*
X35490Y-17362D01*
X35490Y-18246D01*
X35403Y-18246D01*
X35223Y-18320D01*
X35085Y-18458D01*
X35010Y-18638D01*
X35010Y-18833D01*
X35010Y-19361D01*
X35084Y-19541D01*
X35222Y-19679D01*
X35402Y-19754D01*
X35597Y-19754D01*
X35777Y-19680D01*
X35915Y-19542D01*
X35990Y-19362D01*
X35990Y-19518D01*
X35942Y-19539D01*
X35789Y-19692D01*
X35706Y-19892D01*
X35706Y-20108D01*
X35789Y-20308D01*
X35942Y-20461D01*
X36142Y-20544D01*
X36358Y-20544D01*
X36558Y-20461D01*
X36651Y-20368D01*
X38599Y-20368D01*
X38692Y-20461D01*
X38892Y-20544D01*
X39108Y-20544D01*
X39308Y-20461D01*
X39461Y-20308D01*
X39544Y-20108D01*
X39544Y-19892D01*
X39486Y-19754D01*
X39597Y-19754D01*
X39777Y-19680D01*
X39915Y-19542D01*
X39990Y-19362D01*
X39990Y-19167D01*
X39990Y-18689D01*
X40039Y-18808D01*
X40192Y-18961D01*
X40392Y-19044D01*
X40608Y-19044D01*
X40808Y-18961D01*
X40961Y-18808D01*
X41039Y-18618D01*
X41439Y-18618D01*
X41355Y-18702D01*
X41275Y-18895D01*
X41275Y-19104D01*
X41355Y-19297D01*
X41502Y-19445D01*
X41695Y-19525D01*
X41904Y-19525D01*
X42097Y-19445D01*
X42245Y-19298D01*
X42325Y-19105D01*
X42325Y-18896D01*
X42289Y-18809D01*
X42739Y-19260D01*
X42740Y-19260D01*
X42859Y-19340D01*
X43000Y-19368D01*
X45349Y-19368D01*
X45442Y-19461D01*
X45642Y-19544D01*
X45858Y-19544D01*
X46058Y-19461D01*
X46211Y-19308D01*
X46294Y-19108D01*
X46294Y-24084D01*
X46273Y-24084D01*
X46273Y-23092D01*
X46143Y-23092D01*
X46143Y-22791D01*
X46143Y-22692D01*
X46143Y-22092D01*
X46105Y-22000D01*
X46035Y-21930D01*
X45944Y-21892D01*
X45845Y-21892D01*
X45245Y-21892D01*
X45153Y-21930D01*
X45083Y-22000D01*
X45045Y-22091D01*
X45045Y-22116D01*
X44905Y-21976D01*
X44703Y-21892D01*
X44485Y-21892D01*
X44283Y-21976D01*
X44129Y-22130D01*
X44094Y-22214D01*
X44093Y-22211D01*
X44093Y-20091D01*
X44082Y-19856D01*
X44013Y-19690D01*
X43914Y-19657D01*
X43843Y-19728D01*
X43843Y-19586D01*
X43810Y-19487D01*
X43591Y-19407D01*
X43356Y-19418D01*
X43190Y-19487D01*
X43157Y-19586D01*
X43500Y-19929D01*
X43843Y-19586D01*
X43843Y-19728D01*
X43571Y-20000D01*
X43914Y-20343D01*
X44013Y-20310D01*
X44093Y-20091D01*
X44093Y-22211D01*
X44059Y-22130D01*
X43905Y-21976D01*
X43843Y-21950D01*
X43843Y-20414D01*
X43500Y-20071D01*
X43429Y-20142D01*
X43429Y-20000D01*
X43086Y-19657D01*
X42987Y-19690D01*
X42907Y-19909D01*
X42918Y-20144D01*
X42987Y-20310D01*
X43086Y-20343D01*
X43429Y-20000D01*
X43429Y-20142D01*
X43157Y-20414D01*
X43190Y-20513D01*
X43409Y-20593D01*
X43644Y-20582D01*
X43810Y-20513D01*
X43843Y-20414D01*
X43843Y-21950D01*
X43703Y-21892D01*
X43485Y-21892D01*
X43283Y-21976D01*
X43129Y-22130D01*
X43091Y-22221D01*
X43066Y-22160D01*
X42972Y-22133D01*
X42902Y-22203D01*
X42902Y-22063D01*
X42875Y-21969D01*
X42673Y-21898D01*
X42460Y-21909D01*
X42313Y-21969D01*
X42286Y-22063D01*
X42594Y-22370D01*
X42902Y-22063D01*
X42902Y-22203D01*
X42665Y-22441D01*
X42972Y-22749D01*
X43066Y-22722D01*
X43089Y-22656D01*
X43129Y-22752D01*
X43283Y-22906D01*
X43485Y-22990D01*
X43703Y-22990D01*
X43905Y-22906D01*
X44059Y-22752D01*
X44094Y-22667D01*
X44129Y-22752D01*
X44283Y-22906D01*
X44485Y-22990D01*
X44703Y-22990D01*
X44905Y-22906D01*
X45045Y-22766D01*
X45045Y-22790D01*
X45083Y-22882D01*
X45153Y-22952D01*
X45244Y-22990D01*
X45343Y-22990D01*
X45943Y-22990D01*
X46035Y-22952D01*
X46105Y-22882D01*
X46143Y-22791D01*
X46143Y-23092D01*
X44427Y-23092D01*
X44427Y-24084D01*
X44380Y-24084D01*
X44380Y-23092D01*
X42902Y-23092D01*
X42902Y-22819D01*
X42594Y-22512D01*
X42523Y-22582D01*
X42523Y-22441D01*
X42216Y-22133D01*
X42122Y-22160D01*
X42051Y-22362D01*
X42062Y-22575D01*
X42122Y-22722D01*
X42216Y-22749D01*
X42523Y-22441D01*
X42523Y-22582D01*
X42286Y-22819D01*
X42313Y-22913D01*
X42515Y-22984D01*
X42728Y-22973D01*
X42875Y-22913D01*
X42902Y-22819D01*
X42902Y-23092D01*
X42120Y-23092D01*
X42120Y-24084D01*
X41970Y-24084D01*
X41970Y-23332D01*
X41970Y-21789D01*
X39830Y-21789D01*
X39830Y-23332D01*
X41970Y-23332D01*
X41970Y-24084D01*
X38239Y-24084D01*
X38239Y-22627D01*
X38231Y-22335D01*
X38134Y-22100D01*
X38020Y-22050D01*
X37950Y-22120D01*
X37950Y-21980D01*
X37900Y-21866D01*
X37627Y-21761D01*
X37335Y-21769D01*
X37100Y-21866D01*
X37050Y-21980D01*
X37500Y-22429D01*
X37950Y-21980D01*
X37950Y-22120D01*
X37571Y-22500D01*
X38020Y-22950D01*
X38134Y-22900D01*
X38239Y-22627D01*
X38239Y-24084D01*
X37950Y-24084D01*
X37950Y-23020D01*
X37500Y-22571D01*
X37429Y-22641D01*
X37429Y-22500D01*
X36980Y-22050D01*
X36866Y-22100D01*
X36761Y-22373D01*
X36769Y-22665D01*
X36866Y-22900D01*
X36980Y-22950D01*
X37429Y-22500D01*
X37429Y-22641D01*
X37050Y-23020D01*
X37100Y-23134D01*
X37373Y-23239D01*
X37665Y-23231D01*
X37900Y-23134D01*
X37950Y-23020D01*
X37950Y-24084D01*
X36249Y-24084D01*
X36249Y-23050D01*
X36249Y-22951D01*
X36249Y-21951D01*
X36211Y-21859D01*
X36141Y-21789D01*
X36050Y-21751D01*
X35951Y-21751D01*
X34990Y-21751D01*
X34990Y-19362D01*
X34990Y-19167D01*
X34990Y-18639D01*
X34916Y-18459D01*
X34778Y-18321D01*
X34598Y-18246D01*
X34490Y-18246D01*
X34490Y-17362D01*
X34490Y-17167D01*
X34490Y-16639D01*
X34416Y-16459D01*
X34278Y-16321D01*
X34098Y-16246D01*
X33903Y-16246D01*
X33723Y-16320D01*
X33585Y-16458D01*
X33510Y-16638D01*
X33510Y-16833D01*
X33510Y-17361D01*
X33584Y-17541D01*
X33722Y-17679D01*
X33902Y-17754D01*
X34097Y-17754D01*
X34277Y-17680D01*
X34415Y-17542D01*
X34490Y-17362D01*
X34490Y-18246D01*
X34403Y-18246D01*
X34223Y-18320D01*
X34085Y-18458D01*
X34010Y-18638D01*
X34010Y-18833D01*
X34010Y-19361D01*
X34084Y-19541D01*
X34222Y-19679D01*
X34402Y-19754D01*
X34597Y-19754D01*
X34777Y-19680D01*
X34915Y-19542D01*
X34990Y-19362D01*
X34990Y-21751D01*
X34951Y-21751D01*
X34859Y-21789D01*
X34789Y-21859D01*
X34751Y-21950D01*
X34751Y-22049D01*
X34751Y-23049D01*
X34789Y-23141D01*
X34859Y-23211D01*
X34950Y-23249D01*
X35049Y-23249D01*
X36049Y-23249D01*
X36141Y-23211D01*
X36211Y-23141D01*
X36249Y-23050D01*
X36249Y-24084D01*
X33990Y-24084D01*
X33990Y-19362D01*
X33990Y-19167D01*
X33990Y-18639D01*
X33916Y-18459D01*
X33778Y-18321D01*
X33598Y-18246D01*
X33500Y-18246D01*
X33500Y-17325D01*
X33500Y-17050D01*
X33050Y-17050D01*
X33050Y-17685D01*
X33127Y-17733D01*
X33300Y-17657D01*
X33433Y-17511D01*
X33500Y-17325D01*
X33500Y-18246D01*
X33403Y-18246D01*
X33223Y-18320D01*
X33085Y-18458D01*
X33010Y-18638D01*
X33010Y-18833D01*
X33010Y-19361D01*
X33084Y-19541D01*
X33222Y-19679D01*
X33402Y-19754D01*
X33597Y-19754D01*
X33777Y-19680D01*
X33915Y-19542D01*
X33990Y-19362D01*
X33990Y-24084D01*
X32950Y-24084D01*
X32950Y-17685D01*
X32950Y-17050D01*
X32500Y-17050D01*
X32500Y-17325D01*
X32567Y-17511D01*
X32700Y-17657D01*
X32873Y-17733D01*
X32950Y-17685D01*
X32950Y-24084D01*
X28308Y-24084D01*
X28308Y-22878D01*
X28000Y-22571D01*
X27929Y-22641D01*
X27929Y-22500D01*
X27622Y-22192D01*
X27528Y-22219D01*
X27457Y-22421D01*
X27468Y-22634D01*
X27528Y-22781D01*
X27622Y-22808D01*
X27929Y-22500D01*
X27929Y-22641D01*
X27692Y-22878D01*
X27719Y-22972D01*
X27921Y-23043D01*
X28134Y-23032D01*
X28281Y-22972D01*
X28308Y-22878D01*
X28308Y-24084D01*
X26099Y-24084D01*
X26099Y-20400D01*
X26099Y-20301D01*
X26099Y-19601D01*
X26061Y-19509D01*
X25991Y-19439D01*
X25900Y-19401D01*
X25801Y-19401D01*
X25101Y-19401D01*
X25009Y-19439D01*
X24939Y-19509D01*
X24901Y-19600D01*
X24901Y-19699D01*
X24901Y-20399D01*
X24939Y-20491D01*
X25009Y-20561D01*
X25100Y-20599D01*
X25199Y-20599D01*
X25899Y-20599D01*
X25991Y-20561D01*
X26061Y-20491D01*
X26099Y-20400D01*
X26099Y-24084D01*
X25066Y-24084D01*
X25066Y-22651D01*
X25066Y-22233D01*
X24906Y-21847D01*
X24611Y-21551D01*
X24226Y-21391D01*
X23808Y-21391D01*
X23422Y-21551D01*
X23126Y-21846D01*
X22966Y-22231D01*
X22966Y-22649D01*
X23126Y-23035D01*
X23421Y-23331D01*
X23806Y-23491D01*
X24224Y-23491D01*
X24610Y-23331D01*
X24906Y-23036D01*
X25066Y-22651D01*
X25066Y-24084D01*
X22766Y-24084D01*
X22766Y-09774D01*
X51250Y-09774D01*
X51250Y-24084D01*
X51250Y-24084D01*
G37*
G54D28*
X51250Y-24084D02*
X50656Y-24084D01*
X50656Y-22651D01*
X50656Y-22233D01*
X50656Y-11627D01*
X50656Y-11209D01*
X50496Y-10823D01*
X50201Y-10527D01*
X49816Y-10367D01*
X49398Y-10367D01*
X49012Y-10527D01*
X48716Y-10822D01*
X48556Y-11207D01*
X48556Y-11625D01*
X48716Y-12011D01*
X49011Y-12307D01*
X49396Y-12467D01*
X49814Y-12467D01*
X50200Y-12307D01*
X50496Y-12012D01*
X50656Y-11627D01*
X50656Y-22233D01*
X50496Y-21847D01*
X50201Y-21551D01*
X49816Y-21391D01*
X49398Y-21391D01*
X49012Y-21551D01*
X48716Y-21846D01*
X48556Y-22231D01*
X48556Y-22649D01*
X48716Y-23035D01*
X49011Y-23331D01*
X49396Y-23491D01*
X49814Y-23491D01*
X50200Y-23331D01*
X50496Y-23036D01*
X50656Y-22651D01*
X50656Y-24084D01*
X48099Y-24084D01*
X48099Y-20400D01*
X48099Y-20301D01*
X48099Y-19601D01*
X48099Y-18400D01*
X48099Y-18301D01*
X48099Y-17601D01*
X48099Y-14119D01*
X48099Y-13881D01*
X48008Y-13661D01*
X47839Y-13492D01*
X47619Y-13401D01*
X47381Y-13401D01*
X47161Y-13492D01*
X47049Y-13604D01*
X47049Y-11950D01*
X47049Y-11851D01*
X47049Y-10851D01*
X47011Y-10759D01*
X46941Y-10689D01*
X46850Y-10651D01*
X46751Y-10651D01*
X45751Y-10651D01*
X45659Y-10689D01*
X45589Y-10759D01*
X45551Y-10850D01*
X45551Y-10949D01*
X45551Y-11949D01*
X45589Y-12041D01*
X45659Y-12111D01*
X45750Y-12149D01*
X45849Y-12149D01*
X46849Y-12149D01*
X46941Y-12111D01*
X47011Y-12041D01*
X47049Y-11950D01*
X47049Y-13604D01*
X46992Y-13661D01*
X46901Y-13881D01*
X46901Y-14119D01*
X46992Y-14339D01*
X47161Y-14508D01*
X47381Y-14599D01*
X47619Y-14599D01*
X47839Y-14508D01*
X48008Y-14339D01*
X48099Y-14119D01*
X48099Y-17601D01*
X48093Y-17586D01*
X48093Y-16091D01*
X48082Y-15856D01*
X48013Y-15690D01*
X47914Y-15657D01*
X47843Y-15728D01*
X47843Y-15586D01*
X47810Y-15487D01*
X47591Y-15407D01*
X47356Y-15418D01*
X47190Y-15487D01*
X47157Y-15586D01*
X47500Y-15929D01*
X47843Y-15586D01*
X47843Y-15728D01*
X47571Y-16000D01*
X47914Y-16343D01*
X48013Y-16310D01*
X48093Y-16091D01*
X48093Y-17586D01*
X48061Y-17509D01*
X47991Y-17439D01*
X47900Y-17401D01*
X47843Y-17401D01*
X47843Y-16414D01*
X47500Y-16071D01*
X47429Y-16142D01*
X47429Y-16000D01*
X47086Y-15657D01*
X46987Y-15690D01*
X46907Y-15909D01*
X46918Y-16144D01*
X46987Y-16310D01*
X47086Y-16343D01*
X47429Y-16000D01*
X47429Y-16142D01*
X47157Y-16414D01*
X47190Y-16513D01*
X47409Y-16593D01*
X47644Y-16582D01*
X47810Y-16513D01*
X47843Y-16414D01*
X47843Y-17401D01*
X47801Y-17401D01*
X47101Y-17401D01*
X47009Y-17439D01*
X46939Y-17509D01*
X46901Y-17600D01*
X46901Y-17699D01*
X46901Y-18399D01*
X46939Y-18491D01*
X47009Y-18561D01*
X47100Y-18599D01*
X47199Y-18599D01*
X47899Y-18599D01*
X47991Y-18561D01*
X48061Y-18491D01*
X48099Y-18400D01*
X48099Y-19601D01*
X48061Y-19509D01*
X47991Y-19439D01*
X47900Y-19401D01*
X47801Y-19401D01*
X47101Y-19401D01*
X47009Y-19439D01*
X46939Y-19509D01*
X46901Y-19600D01*
X46901Y-19699D01*
X46901Y-20399D01*
X46939Y-20491D01*
X47009Y-20561D01*
X47100Y-20599D01*
X47199Y-20599D01*
X47899Y-20599D01*
X47991Y-20561D01*
X48061Y-20491D01*
X48099Y-20400D01*
X48099Y-24084D01*
X47953Y-24084D01*
X47953Y-23331D01*
X47953Y-21792D01*
X46448Y-21792D01*
X46448Y-23331D01*
X47953Y-23331D01*
X47953Y-24084D01*
X46294Y-24084D01*
X46294Y-19108D01*
X46294Y-18892D01*
X46211Y-18692D01*
X46058Y-18539D01*
X45858Y-18456D01*
X45642Y-18456D01*
X45544Y-18496D01*
X45544Y-15108D01*
X45544Y-14892D01*
X45461Y-14692D01*
X45308Y-14539D01*
X45108Y-14456D01*
X45049Y-14456D01*
X45049Y-11550D01*
X45049Y-11252D01*
X44935Y-10977D01*
X44725Y-10766D01*
X44450Y-10651D01*
X44152Y-10651D01*
X43877Y-10765D01*
X43666Y-10975D01*
X43551Y-11250D01*
X43551Y-11548D01*
X43665Y-11823D01*
X43875Y-12034D01*
X44150Y-12149D01*
X44448Y-12149D01*
X44723Y-12035D01*
X44934Y-11825D01*
X45049Y-11550D01*
X45049Y-14456D01*
X44892Y-14456D01*
X44692Y-14539D01*
X44599Y-14632D01*
X43152Y-14632D01*
X43119Y-14599D01*
X43199Y-14599D01*
X43899Y-14599D01*
X43991Y-14561D01*
X44061Y-14491D01*
X44099Y-14400D01*
X44099Y-14301D01*
X44099Y-13601D01*
X44061Y-13509D01*
X43991Y-13439D01*
X43900Y-13401D01*
X43801Y-13401D01*
X43101Y-13401D01*
X43009Y-13439D01*
X42939Y-13509D01*
X42901Y-13600D01*
X42901Y-13699D01*
X42901Y-14381D01*
X42760Y-14240D01*
X42641Y-14160D01*
X42525Y-14136D01*
X42525Y-11855D01*
X42525Y-11646D01*
X42445Y-11453D01*
X42298Y-11305D01*
X42105Y-11225D01*
X41896Y-11225D01*
X41703Y-11305D01*
X41555Y-11452D01*
X41475Y-11645D01*
X41475Y-11854D01*
X41555Y-12047D01*
X41702Y-12195D01*
X41895Y-12275D01*
X42104Y-12275D01*
X42297Y-12195D01*
X42445Y-12048D01*
X42525Y-11855D01*
X42525Y-14136D01*
X42500Y-14132D01*
X41520Y-14132D01*
X41379Y-14160D01*
X41259Y-14240D01*
X41215Y-14285D01*
X40930Y-14570D01*
X40850Y-14689D01*
X40822Y-14830D01*
X40822Y-14956D01*
X40642Y-14956D01*
X40509Y-15011D01*
X40509Y-14601D01*
X40509Y-14399D01*
X40505Y-14389D01*
X40505Y-13569D01*
X40493Y-13371D01*
X40440Y-13243D01*
X40350Y-13221D01*
X40279Y-13292D01*
X40279Y-13150D01*
X40257Y-13060D01*
X40069Y-12995D01*
X39871Y-13007D01*
X39743Y-13060D01*
X39721Y-13150D01*
X40000Y-13429D01*
X40279Y-13150D01*
X40279Y-13292D01*
X40071Y-13500D01*
X40350Y-13779D01*
X40440Y-13757D01*
X40505Y-13569D01*
X40505Y-14389D01*
X40432Y-14212D01*
X40288Y-14069D01*
X40108Y-13994D01*
X40129Y-13993D01*
X40257Y-13940D01*
X40279Y-13850D01*
X40035Y-13606D01*
X40000Y-13571D01*
X39929Y-13500D01*
X39894Y-13465D01*
X39650Y-13221D01*
X39560Y-13243D01*
X39495Y-13431D01*
X39502Y-13554D01*
X39351Y-13491D01*
X39149Y-13491D01*
X38962Y-13568D01*
X38819Y-13712D01*
X38741Y-13899D01*
X38741Y-14101D01*
X38818Y-14288D01*
X38962Y-14431D01*
X39149Y-14509D01*
X39351Y-14509D01*
X39491Y-14451D01*
X39491Y-14601D01*
X39568Y-14788D01*
X39712Y-14931D01*
X39899Y-15009D01*
X40101Y-15009D01*
X40288Y-14932D01*
X40431Y-14788D01*
X40509Y-14601D01*
X40509Y-15011D01*
X40442Y-15039D01*
X40349Y-15132D01*
X40280Y-15132D01*
X39152Y-15132D01*
X38025Y-14005D01*
X38025Y-11855D01*
X38025Y-11646D01*
X37945Y-11453D01*
X37798Y-11305D01*
X37605Y-11225D01*
X37396Y-11225D01*
X37203Y-11305D01*
X37055Y-11452D01*
X36975Y-11645D01*
X36975Y-11854D01*
X37055Y-12047D01*
X37202Y-12195D01*
X37395Y-12275D01*
X37604Y-12275D01*
X37797Y-12195D01*
X37945Y-12048D01*
X38025Y-11855D01*
X38025Y-14005D01*
X38010Y-13990D01*
X37891Y-13910D01*
X37750Y-13882D01*
X36651Y-13882D01*
X36558Y-13789D01*
X36358Y-13706D01*
X36142Y-13706D01*
X36025Y-13754D01*
X36025Y-11855D01*
X36025Y-11646D01*
X35945Y-11453D01*
X35798Y-11305D01*
X35605Y-11225D01*
X35396Y-11225D01*
X35203Y-11305D01*
X35055Y-11452D01*
X34975Y-11645D01*
X34975Y-11854D01*
X35055Y-12047D01*
X35202Y-12195D01*
X35395Y-12275D01*
X35604Y-12275D01*
X35797Y-12195D01*
X35945Y-12048D01*
X36025Y-11855D01*
X36025Y-13754D01*
X35942Y-13789D01*
X35849Y-13882D01*
X35000Y-13882D01*
X34859Y-13910D01*
X34739Y-13990D01*
X34259Y-14470D01*
X34259Y-14101D01*
X34259Y-13899D01*
X34182Y-13712D01*
X34038Y-13569D01*
X33851Y-13491D01*
X33649Y-13491D01*
X33509Y-13548D01*
X33509Y-13399D01*
X33432Y-13212D01*
X33288Y-13069D01*
X33101Y-12991D01*
X32899Y-12991D01*
X32712Y-13068D01*
X32569Y-13212D01*
X32491Y-13399D01*
X32491Y-13601D01*
X32568Y-13788D01*
X32712Y-13931D01*
X32891Y-14005D01*
X32871Y-14007D01*
X32743Y-14060D01*
X32721Y-14150D01*
X32965Y-14394D01*
X33000Y-14429D01*
X33071Y-14500D01*
X33106Y-14535D01*
X33350Y-14779D01*
X33440Y-14757D01*
X33505Y-14569D01*
X33497Y-14445D01*
X33649Y-14509D01*
X33851Y-14509D01*
X34038Y-14432D01*
X34181Y-14288D01*
X34259Y-14101D01*
X34259Y-14470D01*
X33279Y-15450D01*
X33279Y-14850D01*
X33000Y-14571D01*
X32929Y-14642D01*
X32929Y-14500D01*
X32650Y-14221D01*
X32560Y-14243D01*
X32495Y-14431D01*
X32507Y-14629D01*
X32560Y-14757D01*
X32650Y-14779D01*
X32929Y-14500D01*
X32929Y-14642D01*
X32721Y-14850D01*
X32743Y-14940D01*
X32931Y-15005D01*
X33129Y-14993D01*
X33257Y-14940D01*
X33279Y-14850D01*
X33279Y-15450D01*
X33097Y-15632D01*
X32401Y-15632D01*
X32308Y-15539D01*
X32108Y-15456D01*
X31892Y-15456D01*
X31692Y-15539D01*
X31539Y-15692D01*
X31525Y-15725D01*
X31525Y-15646D01*
X31525Y-12355D01*
X31525Y-12146D01*
X31445Y-11953D01*
X31298Y-11805D01*
X31105Y-11725D01*
X30896Y-11725D01*
X30703Y-11805D01*
X30555Y-11952D01*
X30475Y-12145D01*
X30475Y-12354D01*
X30555Y-12547D01*
X30702Y-12695D01*
X30895Y-12775D01*
X31104Y-12775D01*
X31297Y-12695D01*
X31445Y-12548D01*
X31525Y-12355D01*
X31525Y-15646D01*
X31445Y-15453D01*
X31298Y-15305D01*
X31105Y-15225D01*
X30896Y-15225D01*
X30703Y-15305D01*
X30555Y-15452D01*
X30475Y-15645D01*
X30475Y-15854D01*
X30555Y-16047D01*
X30702Y-16195D01*
X30895Y-16275D01*
X31104Y-16275D01*
X31297Y-16195D01*
X31445Y-16048D01*
X31456Y-16021D01*
X31456Y-16108D01*
X31539Y-16308D01*
X31632Y-16401D01*
X31632Y-16501D01*
X31574Y-16481D01*
X31370Y-16492D01*
X31233Y-16548D01*
X31210Y-16639D01*
X31465Y-16894D01*
X31500Y-16929D01*
X31571Y-17000D01*
X31500Y-17071D01*
X31465Y-17106D01*
X31429Y-17142D01*
X31429Y-17000D01*
X31139Y-16710D01*
X31081Y-16724D01*
X31081Y-16722D01*
X30928Y-16569D01*
X30728Y-16486D01*
X30512Y-16486D01*
X30449Y-16512D01*
X30040Y-16512D01*
X30061Y-16491D01*
X30099Y-16400D01*
X30099Y-16301D01*
X30099Y-15601D01*
X30099Y-14400D01*
X30099Y-14301D01*
X30099Y-13601D01*
X30061Y-13509D01*
X29991Y-13439D01*
X29900Y-13401D01*
X29801Y-13401D01*
X29349Y-13401D01*
X29349Y-12050D01*
X29349Y-11951D01*
X29349Y-10951D01*
X29311Y-10859D01*
X29241Y-10789D01*
X29150Y-10751D01*
X29051Y-10751D01*
X28051Y-10751D01*
X27959Y-10789D01*
X27889Y-10859D01*
X27851Y-10950D01*
X27851Y-11049D01*
X27851Y-12049D01*
X27889Y-12141D01*
X27959Y-12211D01*
X28050Y-12249D01*
X28149Y-12249D01*
X29149Y-12249D01*
X29241Y-12211D01*
X29311Y-12141D01*
X29349Y-12050D01*
X29349Y-13401D01*
X29101Y-13401D01*
X29009Y-13439D01*
X28939Y-13509D01*
X28901Y-13600D01*
X28901Y-13699D01*
X28901Y-14399D01*
X28939Y-14491D01*
X29009Y-14561D01*
X29100Y-14599D01*
X29199Y-14599D01*
X29899Y-14599D01*
X29991Y-14561D01*
X30061Y-14491D01*
X30099Y-14400D01*
X30099Y-15601D01*
X30061Y-15509D01*
X29991Y-15439D01*
X29900Y-15401D01*
X29801Y-15401D01*
X29101Y-15401D01*
X29009Y-15439D01*
X28939Y-15509D01*
X28901Y-15600D01*
X28901Y-15699D01*
X28901Y-16399D01*
X28939Y-16491D01*
X28960Y-16512D01*
X27349Y-16512D01*
X27349Y-11650D01*
X27349Y-11352D01*
X27235Y-11077D01*
X27025Y-10866D01*
X26750Y-10751D01*
X26452Y-10751D01*
X26177Y-10865D01*
X25966Y-11075D01*
X25851Y-11350D01*
X25851Y-11648D01*
X25965Y-11923D01*
X26175Y-12134D01*
X26450Y-12249D01*
X26748Y-12249D01*
X27023Y-12135D01*
X27234Y-11925D01*
X27349Y-11650D01*
X27349Y-16512D01*
X26901Y-16512D01*
X26808Y-16419D01*
X26608Y-16336D01*
X26392Y-16336D01*
X26192Y-16419D01*
X26099Y-16512D01*
X26099Y-16119D01*
X26099Y-15881D01*
X26099Y-14119D01*
X26099Y-13881D01*
X26008Y-13661D01*
X25839Y-13492D01*
X25619Y-13401D01*
X25381Y-13401D01*
X25161Y-13492D01*
X25066Y-13587D01*
X25066Y-11627D01*
X25066Y-11209D01*
X24906Y-10823D01*
X24611Y-10527D01*
X24226Y-10367D01*
X23808Y-10367D01*
X23422Y-10527D01*
X23126Y-10822D01*
X22966Y-11207D01*
X22966Y-11625D01*
X23126Y-12011D01*
X23421Y-12307D01*
X23806Y-12467D01*
X24224Y-12467D01*
X24610Y-12307D01*
X24906Y-12012D01*
X25066Y-11627D01*
X25066Y-13587D01*
X24992Y-13661D01*
X24901Y-13881D01*
X24901Y-14119D01*
X24992Y-14339D01*
X25161Y-14508D01*
X25381Y-14599D01*
X25619Y-14599D01*
X25839Y-14508D01*
X26008Y-14339D01*
X26099Y-14119D01*
X26099Y-15881D01*
X26008Y-15661D01*
X25839Y-15492D01*
X25619Y-15401D01*
X25381Y-15401D01*
X25161Y-15492D01*
X24992Y-15661D01*
X24901Y-15881D01*
X24901Y-16119D01*
X24992Y-16339D01*
X25161Y-16508D01*
X25381Y-16599D01*
X25619Y-16599D01*
X25839Y-16508D01*
X26008Y-16339D01*
X26099Y-16119D01*
X26099Y-16512D01*
X26039Y-16572D01*
X25956Y-16772D01*
X25956Y-16988D01*
X26039Y-17188D01*
X26192Y-17341D01*
X26392Y-17424D01*
X26608Y-17424D01*
X26808Y-17341D01*
X26901Y-17248D01*
X30121Y-17248D01*
X30159Y-17338D01*
X30312Y-17491D01*
X30512Y-17574D01*
X30728Y-17574D01*
X30928Y-17491D01*
X31081Y-17338D01*
X31104Y-17281D01*
X31139Y-17290D01*
X31429Y-17000D01*
X31429Y-17142D01*
X31210Y-17361D01*
X31233Y-17452D01*
X31426Y-17519D01*
X31630Y-17508D01*
X31632Y-17507D01*
X31632Y-18486D01*
X31605Y-18475D01*
X31396Y-18475D01*
X31203Y-18555D01*
X31055Y-18702D01*
X30975Y-18895D01*
X30975Y-19104D01*
X31055Y-19297D01*
X31202Y-19445D01*
X31395Y-19525D01*
X31604Y-19525D01*
X31632Y-19513D01*
X31632Y-22099D01*
X31549Y-22182D01*
X31549Y-22151D01*
X31511Y-22059D01*
X31441Y-21989D01*
X31350Y-21951D01*
X31251Y-21951D01*
X30794Y-21951D01*
X30794Y-19108D01*
X30794Y-18892D01*
X30711Y-18692D01*
X30558Y-18539D01*
X30358Y-18456D01*
X30142Y-18456D01*
X30093Y-18476D01*
X30093Y-18091D01*
X30082Y-17856D01*
X30013Y-17690D01*
X29914Y-17657D01*
X29843Y-17728D01*
X29843Y-17586D01*
X29810Y-17487D01*
X29591Y-17407D01*
X29356Y-17418D01*
X29190Y-17487D01*
X29157Y-17586D01*
X29500Y-17929D01*
X29843Y-17586D01*
X29843Y-17728D01*
X29571Y-18000D01*
X29914Y-18343D01*
X30013Y-18310D01*
X30093Y-18091D01*
X30093Y-18476D01*
X29942Y-18539D01*
X29849Y-18632D01*
X29843Y-18632D01*
X29843Y-18414D01*
X29500Y-18071D01*
X29429Y-18142D01*
X29429Y-18000D01*
X29086Y-17657D01*
X28987Y-17690D01*
X28907Y-17909D01*
X28918Y-18144D01*
X28987Y-18310D01*
X29086Y-18343D01*
X29429Y-18000D01*
X29429Y-18142D01*
X29157Y-18414D01*
X29190Y-18513D01*
X29409Y-18593D01*
X29644Y-18582D01*
X29810Y-18513D01*
X29843Y-18414D01*
X29843Y-18632D01*
X26099Y-18632D01*
X26099Y-18400D01*
X26099Y-18301D01*
X26099Y-17601D01*
X26061Y-17509D01*
X25991Y-17439D01*
X25900Y-17401D01*
X25801Y-17401D01*
X25101Y-17401D01*
X25009Y-17439D01*
X24939Y-17509D01*
X24901Y-17600D01*
X24901Y-17699D01*
X24901Y-18399D01*
X24939Y-18491D01*
X25009Y-18561D01*
X25100Y-18599D01*
X25199Y-18599D01*
X25899Y-18599D01*
X25991Y-18561D01*
X26061Y-18491D01*
X26099Y-18400D01*
X26099Y-18632D01*
X24901Y-18632D01*
X24808Y-18539D01*
X24608Y-18456D01*
X24392Y-18456D01*
X24192Y-18539D01*
X24039Y-18692D01*
X23956Y-18892D01*
X23956Y-19108D01*
X24039Y-19308D01*
X24192Y-19461D01*
X24392Y-19544D01*
X24608Y-19544D01*
X24808Y-19461D01*
X24901Y-19368D01*
X29849Y-19368D01*
X29942Y-19461D01*
X30142Y-19544D01*
X30358Y-19544D01*
X30558Y-19461D01*
X30711Y-19308D01*
X30794Y-19108D01*
X30794Y-21951D01*
X30651Y-21951D01*
X30559Y-21989D01*
X30489Y-22059D01*
X30451Y-22150D01*
X30451Y-22175D01*
X30311Y-22035D01*
X30109Y-21951D01*
X30093Y-21951D01*
X30093Y-20091D01*
X30082Y-19856D01*
X30013Y-19690D01*
X29914Y-19657D01*
X29843Y-19728D01*
X29843Y-19586D01*
X29810Y-19487D01*
X29591Y-19407D01*
X29356Y-19418D01*
X29190Y-19487D01*
X29157Y-19586D01*
X29500Y-19929D01*
X29843Y-19586D01*
X29843Y-19728D01*
X29571Y-20000D01*
X29914Y-20343D01*
X30013Y-20310D01*
X30093Y-20091D01*
X30093Y-21951D01*
X29891Y-21951D01*
X29843Y-21970D01*
X29843Y-20414D01*
X29500Y-20071D01*
X29429Y-20142D01*
X29429Y-20000D01*
X29086Y-19657D01*
X28987Y-19690D01*
X28907Y-19909D01*
X28918Y-20144D01*
X28987Y-20310D01*
X29086Y-20343D01*
X29429Y-20000D01*
X29429Y-20142D01*
X29157Y-20414D01*
X29190Y-20513D01*
X29409Y-20593D01*
X29644Y-20582D01*
X29810Y-20513D01*
X29843Y-20414D01*
X29843Y-21970D01*
X29689Y-22035D01*
X29535Y-22189D01*
X29500Y-22273D01*
X29465Y-22189D01*
X29311Y-22035D01*
X29109Y-21951D01*
X28891Y-21951D01*
X28689Y-22035D01*
X28535Y-22189D01*
X28497Y-22280D01*
X28472Y-22219D01*
X28378Y-22192D01*
X28308Y-22262D01*
X28308Y-22122D01*
X28281Y-22028D01*
X28079Y-21957D01*
X27866Y-21968D01*
X27719Y-22028D01*
X27692Y-22122D01*
X28000Y-22429D01*
X28308Y-22122D01*
X28308Y-22262D01*
X28071Y-22500D01*
X28378Y-22808D01*
X28472Y-22781D01*
X28495Y-22715D01*
X28535Y-22811D01*
X28689Y-22965D01*
X28891Y-23049D01*
X29109Y-23049D01*
X29311Y-22965D01*
X29465Y-22811D01*
X29500Y-22726D01*
X29535Y-22811D01*
X29689Y-22965D01*
X29891Y-23049D01*
X30109Y-23049D01*
X30311Y-22965D01*
X30451Y-22825D01*
X30451Y-22849D01*
X30489Y-22941D01*
X30559Y-23011D01*
X30650Y-23049D01*
X30749Y-23049D01*
X31349Y-23049D01*
X31441Y-23011D01*
X31511Y-22941D01*
X31549Y-22850D01*
X31549Y-22818D01*
X31692Y-22961D01*
X31892Y-23044D01*
X32108Y-23044D01*
X32308Y-22961D01*
X32461Y-22808D01*
X32544Y-22608D01*
X32544Y-22392D01*
X32461Y-22192D01*
X32368Y-22099D01*
X32368Y-16401D01*
X32401Y-16368D01*
X32677Y-16368D01*
X32567Y-16489D01*
X32500Y-16675D01*
X32500Y-16950D01*
X32900Y-16950D01*
X32950Y-16950D01*
X33050Y-16950D01*
X33100Y-16950D01*
X33500Y-16950D01*
X33500Y-16675D01*
X33433Y-16489D01*
X33311Y-16355D01*
X33391Y-16340D01*
X33510Y-16260D01*
X35152Y-14618D01*
X35849Y-14618D01*
X35942Y-14711D01*
X36142Y-14794D01*
X36358Y-14794D01*
X36558Y-14711D01*
X36651Y-14618D01*
X37597Y-14618D01*
X37775Y-14795D01*
X37605Y-14725D01*
X37396Y-14725D01*
X37203Y-14805D01*
X37055Y-14952D01*
X36975Y-15145D01*
X36975Y-15354D01*
X37017Y-15456D01*
X36892Y-15456D01*
X36692Y-15539D01*
X36539Y-15692D01*
X36456Y-15892D01*
X36456Y-16108D01*
X36539Y-16308D01*
X36637Y-16406D01*
X36585Y-16458D01*
X36510Y-16638D01*
X36510Y-16833D01*
X36510Y-17361D01*
X36584Y-17541D01*
X36722Y-17679D01*
X36902Y-17754D01*
X37097Y-17754D01*
X37277Y-17680D01*
X37415Y-17542D01*
X37490Y-17362D01*
X37490Y-17167D01*
X37490Y-16639D01*
X37416Y-16459D01*
X37363Y-16406D01*
X37401Y-16368D01*
X37675Y-16368D01*
X37585Y-16458D01*
X37510Y-16638D01*
X37510Y-16833D01*
X37510Y-17361D01*
X37584Y-17541D01*
X37722Y-17679D01*
X37902Y-17754D01*
X38097Y-17754D01*
X38277Y-17680D01*
X38415Y-17542D01*
X38490Y-17362D01*
X38490Y-17167D01*
X38490Y-16639D01*
X38442Y-16523D01*
X38492Y-16544D01*
X38549Y-16544D01*
X38510Y-16638D01*
X38510Y-16833D01*
X38510Y-17361D01*
X38584Y-17541D01*
X38722Y-17679D01*
X38902Y-17754D01*
X39097Y-17754D01*
X39277Y-17680D01*
X39415Y-17542D01*
X39490Y-17362D01*
X39490Y-17167D01*
X39490Y-16639D01*
X39416Y-16459D01*
X39278Y-16321D01*
X39098Y-16246D01*
X39086Y-16246D01*
X39144Y-16108D01*
X39144Y-15892D01*
X39134Y-15868D01*
X40280Y-15868D01*
X40349Y-15868D01*
X40442Y-15961D01*
X40642Y-16044D01*
X40858Y-16044D01*
X41058Y-15961D01*
X41211Y-15808D01*
X41273Y-15656D01*
X41450Y-15481D01*
X41450Y-15480D01*
X41481Y-15432D01*
X41497Y-15408D01*
X41555Y-15547D01*
X41702Y-15695D01*
X41895Y-15775D01*
X42104Y-15775D01*
X42297Y-15695D01*
X42445Y-15548D01*
X42525Y-15355D01*
X42525Y-15146D01*
X42453Y-14973D01*
X42740Y-15260D01*
X42859Y-15340D01*
X43000Y-15368D01*
X44599Y-15368D01*
X44692Y-15461D01*
X44892Y-15544D01*
X45108Y-15544D01*
X45308Y-15461D01*
X45461Y-15308D01*
X45544Y-15108D01*
X45544Y-18496D01*
X45442Y-18539D01*
X45349Y-18632D01*
X44099Y-18632D01*
X44099Y-18119D01*
X44099Y-17881D01*
X44008Y-17661D01*
X43839Y-17492D01*
X43619Y-17401D01*
X43381Y-17401D01*
X43161Y-17492D01*
X42992Y-17661D01*
X42901Y-17881D01*
X42901Y-18119D01*
X42992Y-18339D01*
X43161Y-18508D01*
X43381Y-18599D01*
X43619Y-18599D01*
X43839Y-18508D01*
X44008Y-18339D01*
X44099Y-18119D01*
X44099Y-18632D01*
X43152Y-18632D01*
X42520Y-17999D01*
X43010Y-17510D01*
X43071Y-17419D01*
X43172Y-17318D01*
X43909Y-17318D01*
X44002Y-17411D01*
X44202Y-17494D01*
X44418Y-17494D01*
X44618Y-17411D01*
X44771Y-17258D01*
X44854Y-17058D01*
X44854Y-16842D01*
X44771Y-16642D01*
X44618Y-16489D01*
X44418Y-16406D01*
X44202Y-16406D01*
X44074Y-16458D01*
X44099Y-16400D01*
X44099Y-16301D01*
X44099Y-15601D01*
X44061Y-15509D01*
X43991Y-15439D01*
X43900Y-15401D01*
X43801Y-15401D01*
X43101Y-15401D01*
X43009Y-15439D01*
X42939Y-15509D01*
X42901Y-15600D01*
X42901Y-15699D01*
X42901Y-16399D01*
X42939Y-16491D01*
X43009Y-16561D01*
X43059Y-16582D01*
X43020Y-16582D01*
X42879Y-16610D01*
X42759Y-16690D01*
X42490Y-16960D01*
X42428Y-17051D01*
X42272Y-17207D01*
X42319Y-17074D01*
X42308Y-16870D01*
X42252Y-16733D01*
X42161Y-16710D01*
X42090Y-16781D01*
X42090Y-16639D01*
X42067Y-16548D01*
X41874Y-16481D01*
X41670Y-16492D01*
X41533Y-16548D01*
X41510Y-16639D01*
X41800Y-16929D01*
X42090Y-16639D01*
X42090Y-16781D01*
X41906Y-16965D01*
X41871Y-17000D01*
X41800Y-17071D01*
X41765Y-17106D01*
X41510Y-17361D01*
X41515Y-17382D01*
X41402Y-17382D01*
X41374Y-17353D01*
X41374Y-17312D01*
X41356Y-17269D01*
X41439Y-17290D01*
X41729Y-17000D01*
X41439Y-16710D01*
X41348Y-16733D01*
X41281Y-16926D01*
X41291Y-17112D01*
X41138Y-16959D01*
X40938Y-16876D01*
X40722Y-16876D01*
X40522Y-16959D01*
X40500Y-16981D01*
X40500Y-16950D01*
X40500Y-16900D01*
X40500Y-16675D01*
X40433Y-16489D01*
X40300Y-16343D01*
X40127Y-16267D01*
X40050Y-16315D01*
X40050Y-16900D01*
X40050Y-16950D01*
X40050Y-17050D01*
X40050Y-17100D01*
X40050Y-17685D01*
X40127Y-17733D01*
X40300Y-17657D01*
X40327Y-17627D01*
X40369Y-17728D01*
X40522Y-17881D01*
X40602Y-17914D01*
X40540Y-17956D01*
X40392Y-17956D01*
X40192Y-18039D01*
X40039Y-18192D01*
X39956Y-18392D01*
X39956Y-18556D01*
X39950Y-18541D01*
X39950Y-17685D01*
X39950Y-17050D01*
X39950Y-16950D01*
X39950Y-16315D01*
X39873Y-16267D01*
X39700Y-16343D01*
X39567Y-16489D01*
X39500Y-16675D01*
X39500Y-16950D01*
X39950Y-16950D01*
X39950Y-17050D01*
X39500Y-17050D01*
X39500Y-17325D01*
X39567Y-17511D01*
X39700Y-17657D01*
X39873Y-17733D01*
X39950Y-17685D01*
X39950Y-18541D01*
X39916Y-18459D01*
X39778Y-18321D01*
X39598Y-18246D01*
X39403Y-18246D01*
X39223Y-18320D01*
X39085Y-18458D01*
X39010Y-18638D01*
X39010Y-18833D01*
X39010Y-19361D01*
X39049Y-19456D01*
X38950Y-19456D01*
X38990Y-19362D01*
X38990Y-19167D01*
X38990Y-18639D01*
X38916Y-18459D01*
X38778Y-18321D01*
X38598Y-18246D01*
X38403Y-18246D01*
X38223Y-18320D01*
X38085Y-18458D01*
X38010Y-18638D01*
X38010Y-18833D01*
X38010Y-19361D01*
X38084Y-19541D01*
X38175Y-19632D01*
X37825Y-19632D01*
X37915Y-19542D01*
X37990Y-19362D01*
X37990Y-19167D01*
X37990Y-18639D01*
X37916Y-18459D01*
X37778Y-18321D01*
X37598Y-18246D01*
X37403Y-18246D01*
X37223Y-18320D01*
X37085Y-18458D01*
X37010Y-18638D01*
X37010Y-18833D01*
X37010Y-19361D01*
X37084Y-19541D01*
X37175Y-19632D01*
X36822Y-19632D01*
X36933Y-19511D01*
X37000Y-19325D01*
X37000Y-19050D01*
X37000Y-18950D01*
X37000Y-18675D01*
X36933Y-18489D01*
X36800Y-18343D01*
X36627Y-18267D01*
X36550Y-18315D01*
X36550Y-18950D01*
X37000Y-18950D01*
X37000Y-19050D01*
X36600Y-19050D01*
X36550Y-19050D01*
X36490Y-19050D01*
X36490Y-17362D01*
X36490Y-17167D01*
X36490Y-16639D01*
X36416Y-16459D01*
X36278Y-16321D01*
X36098Y-16246D01*
X36025Y-16246D01*
X36025Y-15355D01*
X36025Y-15146D01*
X35945Y-14953D01*
X35798Y-14805D01*
X35605Y-14725D01*
X35396Y-14725D01*
X35203Y-14805D01*
X35055Y-14952D01*
X34975Y-15145D01*
X34975Y-15354D01*
X35055Y-15547D01*
X35202Y-15695D01*
X35395Y-15775D01*
X35604Y-15775D01*
X35797Y-15695D01*
X35945Y-15548D01*
X36025Y-15355D01*
X36025Y-16246D01*
X35903Y-16246D01*
X35723Y-16320D01*
X35585Y-16458D01*
X35510Y-16638D01*
X35510Y-16833D01*
X35510Y-17361D01*
X35584Y-17541D01*
X35722Y-17679D01*
X35902Y-17754D01*
X36097Y-17754D01*
X36277Y-17680D01*
X36415Y-17542D01*
X36490Y-17362D01*
X36490Y-19050D01*
X36450Y-19050D01*
X36450Y-18950D01*
X36450Y-18315D01*
X36373Y-18267D01*
X36200Y-18343D01*
X36067Y-18489D01*
X36000Y-18675D01*
X36000Y-18950D01*
X36450Y-18950D01*
X36450Y-19050D01*
X36400Y-19050D01*
X36000Y-19050D01*
X36000Y-19325D01*
X36059Y-19490D01*
X35990Y-19518D01*
X35990Y-19362D01*
X35990Y-19167D01*
X35990Y-18639D01*
X35916Y-18459D01*
X35778Y-18321D01*
X35598Y-18246D01*
X35490Y-18246D01*
X35490Y-17362D01*
X35490Y-17167D01*
X35490Y-16639D01*
X35416Y-16459D01*
X35278Y-16321D01*
X35098Y-16246D01*
X34903Y-16246D01*
X34723Y-16320D01*
X34585Y-16458D01*
X34510Y-16638D01*
X34510Y-16833D01*
X34510Y-17361D01*
X34584Y-17541D01*
X34722Y-17679D01*
X34902Y-17754D01*
X35097Y-17754D01*
X35277Y-17680D01*
X35415Y-17542D01*
X35490Y-17362D01*
X35490Y-18246D01*
X35403Y-18246D01*
X35223Y-18320D01*
X35085Y-18458D01*
X35010Y-18638D01*
X35010Y-18833D01*
X35010Y-19361D01*
X35084Y-19541D01*
X35222Y-19679D01*
X35402Y-19754D01*
X35597Y-19754D01*
X35777Y-19680D01*
X35915Y-19542D01*
X35990Y-19362D01*
X35990Y-19518D01*
X35942Y-19539D01*
X35789Y-19692D01*
X35706Y-19892D01*
X35706Y-20108D01*
X35789Y-20308D01*
X35942Y-20461D01*
X36142Y-20544D01*
X36358Y-20544D01*
X36558Y-20461D01*
X36651Y-20368D01*
X38599Y-20368D01*
X38692Y-20461D01*
X38892Y-20544D01*
X39108Y-20544D01*
X39308Y-20461D01*
X39461Y-20308D01*
X39544Y-20108D01*
X39544Y-19892D01*
X39486Y-19754D01*
X39597Y-19754D01*
X39777Y-19680D01*
X39915Y-19542D01*
X39990Y-19362D01*
X39990Y-19167D01*
X39990Y-18689D01*
X40039Y-18808D01*
X40192Y-18961D01*
X40392Y-19044D01*
X40608Y-19044D01*
X40808Y-18961D01*
X40961Y-18808D01*
X41039Y-18618D01*
X41439Y-18618D01*
X41355Y-18702D01*
X41275Y-18895D01*
X41275Y-19104D01*
X41355Y-19297D01*
X41502Y-19445D01*
X41695Y-19525D01*
X41904Y-19525D01*
X42097Y-19445D01*
X42245Y-19298D01*
X42325Y-19105D01*
X42325Y-18896D01*
X42289Y-18809D01*
X42739Y-19260D01*
X42740Y-19260D01*
X42859Y-19340D01*
X43000Y-19368D01*
X45349Y-19368D01*
X45442Y-19461D01*
X45642Y-19544D01*
X45858Y-19544D01*
X46058Y-19461D01*
X46211Y-19308D01*
X46294Y-19108D01*
X46294Y-24084D01*
X46273Y-24084D01*
X46273Y-23092D01*
X46143Y-23092D01*
X46143Y-22791D01*
X46143Y-22692D01*
X46143Y-22092D01*
X46105Y-22000D01*
X46035Y-21930D01*
X45944Y-21892D01*
X45845Y-21892D01*
X45245Y-21892D01*
X45153Y-21930D01*
X45083Y-22000D01*
X45045Y-22091D01*
X45045Y-22116D01*
X44905Y-21976D01*
X44703Y-21892D01*
X44485Y-21892D01*
X44283Y-21976D01*
X44129Y-22130D01*
X44094Y-22214D01*
X44093Y-22211D01*
X44093Y-20091D01*
X44082Y-19856D01*
X44013Y-19690D01*
X43914Y-19657D01*
X43843Y-19728D01*
X43843Y-19586D01*
X43810Y-19487D01*
X43591Y-19407D01*
X43356Y-19418D01*
X43190Y-19487D01*
X43157Y-19586D01*
X43500Y-19929D01*
X43843Y-19586D01*
X43843Y-19728D01*
X43571Y-20000D01*
X43914Y-20343D01*
X44013Y-20310D01*
X44093Y-20091D01*
X44093Y-22211D01*
X44059Y-22130D01*
X43905Y-21976D01*
X43843Y-21950D01*
X43843Y-20414D01*
X43500Y-20071D01*
X43429Y-20142D01*
X43429Y-20000D01*
X43086Y-19657D01*
X42987Y-19690D01*
X42907Y-19909D01*
X42918Y-20144D01*
X42987Y-20310D01*
X43086Y-20343D01*
X43429Y-20000D01*
X43429Y-20142D01*
X43157Y-20414D01*
X43190Y-20513D01*
X43409Y-20593D01*
X43644Y-20582D01*
X43810Y-20513D01*
X43843Y-20414D01*
X43843Y-21950D01*
X43703Y-21892D01*
X43485Y-21892D01*
X43283Y-21976D01*
X43129Y-22130D01*
X43091Y-22221D01*
X43066Y-22160D01*
X42972Y-22133D01*
X42902Y-22203D01*
X42902Y-22063D01*
X42875Y-21969D01*
X42673Y-21898D01*
X42460Y-21909D01*
X42313Y-21969D01*
X42286Y-22063D01*
X42594Y-22370D01*
X42902Y-22063D01*
X42902Y-22203D01*
X42665Y-22441D01*
X42972Y-22749D01*
X43066Y-22722D01*
X43089Y-22656D01*
X43129Y-22752D01*
X43283Y-22906D01*
X43485Y-22990D01*
X43703Y-22990D01*
X43905Y-22906D01*
X44059Y-22752D01*
X44094Y-22667D01*
X44129Y-22752D01*
X44283Y-22906D01*
X44485Y-22990D01*
X44703Y-22990D01*
X44905Y-22906D01*
X45045Y-22766D01*
X45045Y-22790D01*
X45083Y-22882D01*
X45153Y-22952D01*
X45244Y-22990D01*
X45343Y-22990D01*
X45943Y-22990D01*
X46035Y-22952D01*
X46105Y-22882D01*
X46143Y-22791D01*
X46143Y-23092D01*
X44427Y-23092D01*
X44427Y-24084D01*
X44380Y-24084D01*
X44380Y-23092D01*
X42902Y-23092D01*
X42902Y-22819D01*
X42594Y-22512D01*
X42523Y-22582D01*
X42523Y-22441D01*
X42216Y-22133D01*
X42122Y-22160D01*
X42051Y-22362D01*
X42062Y-22575D01*
X42122Y-22722D01*
X42216Y-22749D01*
X42523Y-22441D01*
X42523Y-22582D01*
X42286Y-22819D01*
X42313Y-22913D01*
X42515Y-22984D01*
X42728Y-22973D01*
X42875Y-22913D01*
X42902Y-22819D01*
X42902Y-23092D01*
X42120Y-23092D01*
X42120Y-24084D01*
X41970Y-24084D01*
X41970Y-23332D01*
X41970Y-21789D01*
X39830Y-21789D01*
X39830Y-23332D01*
X41970Y-23332D01*
X41970Y-24084D01*
X38239Y-24084D01*
X38239Y-22627D01*
X38231Y-22335D01*
X38134Y-22100D01*
X38020Y-22050D01*
X37950Y-22120D01*
X37950Y-21980D01*
X37900Y-21866D01*
X37627Y-21761D01*
X37335Y-21769D01*
X37100Y-21866D01*
X37050Y-21980D01*
X37500Y-22429D01*
X37950Y-21980D01*
X37950Y-22120D01*
X37571Y-22500D01*
X38020Y-22950D01*
X38134Y-22900D01*
X38239Y-22627D01*
X38239Y-24084D01*
X37950Y-24084D01*
X37950Y-23020D01*
X37500Y-22571D01*
X37429Y-22641D01*
X37429Y-22500D01*
X36980Y-22050D01*
X36866Y-22100D01*
X36761Y-22373D01*
X36769Y-22665D01*
X36866Y-22900D01*
X36980Y-22950D01*
X37429Y-22500D01*
X37429Y-22641D01*
X37050Y-23020D01*
X37100Y-23134D01*
X37373Y-23239D01*
X37665Y-23231D01*
X37900Y-23134D01*
X37950Y-23020D01*
X37950Y-24084D01*
X36249Y-24084D01*
X36249Y-23050D01*
X36249Y-22951D01*
X36249Y-21951D01*
X36211Y-21859D01*
X36141Y-21789D01*
X36050Y-21751D01*
X35951Y-21751D01*
X34990Y-21751D01*
X34990Y-19362D01*
X34990Y-19167D01*
X34990Y-18639D01*
X34916Y-18459D01*
X34778Y-18321D01*
X34598Y-18246D01*
X34490Y-18246D01*
X34490Y-17362D01*
X34490Y-17167D01*
X34490Y-16639D01*
X34416Y-16459D01*
X34278Y-16321D01*
X34098Y-16246D01*
X33903Y-16246D01*
X33723Y-16320D01*
X33585Y-16458D01*
X33510Y-16638D01*
X33510Y-16833D01*
X33510Y-17361D01*
X33584Y-17541D01*
X33722Y-17679D01*
X33902Y-17754D01*
X34097Y-17754D01*
X34277Y-17680D01*
X34415Y-17542D01*
X34490Y-17362D01*
X34490Y-18246D01*
X34403Y-18246D01*
X34223Y-18320D01*
X34085Y-18458D01*
X34010Y-18638D01*
X34010Y-18833D01*
X34010Y-19361D01*
X34084Y-19541D01*
X34222Y-19679D01*
X34402Y-19754D01*
X34597Y-19754D01*
X34777Y-19680D01*
X34915Y-19542D01*
X34990Y-19362D01*
X34990Y-21751D01*
X34951Y-21751D01*
X34859Y-21789D01*
X34789Y-21859D01*
X34751Y-21950D01*
X34751Y-22049D01*
X34751Y-23049D01*
X34789Y-23141D01*
X34859Y-23211D01*
X34950Y-23249D01*
X35049Y-23249D01*
X36049Y-23249D01*
X36141Y-23211D01*
X36211Y-23141D01*
X36249Y-23050D01*
X36249Y-24084D01*
X33990Y-24084D01*
X33990Y-19362D01*
X33990Y-19167D01*
X33990Y-18639D01*
X33916Y-18459D01*
X33778Y-18321D01*
X33598Y-18246D01*
X33500Y-18246D01*
X33500Y-17325D01*
X33500Y-17050D01*
X33050Y-17050D01*
X33050Y-17685D01*
X33127Y-17733D01*
X33300Y-17657D01*
X33433Y-17511D01*
X33500Y-17325D01*
X33500Y-18246D01*
X33403Y-18246D01*
X33223Y-18320D01*
X33085Y-18458D01*
X33010Y-18638D01*
X33010Y-18833D01*
X33010Y-19361D01*
X33084Y-19541D01*
X33222Y-19679D01*
X33402Y-19754D01*
X33597Y-19754D01*
X33777Y-19680D01*
X33915Y-19542D01*
X33990Y-19362D01*
X33990Y-24084D01*
X32950Y-24084D01*
X32950Y-17685D01*
X32950Y-17050D01*
X32500Y-17050D01*
X32500Y-17325D01*
X32567Y-17511D01*
X32700Y-17657D01*
X32873Y-17733D01*
X32950Y-17685D01*
X32950Y-24084D01*
X28308Y-24084D01*
X28308Y-22878D01*
X28000Y-22571D01*
X27929Y-22641D01*
X27929Y-22500D01*
X27622Y-22192D01*
X27528Y-22219D01*
X27457Y-22421D01*
X27468Y-22634D01*
X27528Y-22781D01*
X27622Y-22808D01*
X27929Y-22500D01*
X27929Y-22641D01*
X27692Y-22878D01*
X27719Y-22972D01*
X27921Y-23043D01*
X28134Y-23032D01*
X28281Y-22972D01*
X28308Y-22878D01*
X28308Y-24084D01*
X26099Y-24084D01*
X26099Y-20400D01*
X26099Y-20301D01*
X26099Y-19601D01*
X26061Y-19509D01*
X25991Y-19439D01*
X25900Y-19401D01*
X25801Y-19401D01*
X25101Y-19401D01*
X25009Y-19439D01*
X24939Y-19509D01*
X24901Y-19600D01*
X24901Y-19699D01*
X24901Y-20399D01*
X24939Y-20491D01*
X25009Y-20561D01*
X25100Y-20599D01*
X25199Y-20599D01*
X25899Y-20599D01*
X25991Y-20561D01*
X26061Y-20491D01*
X26099Y-20400D01*
X26099Y-24084D01*
X25066Y-24084D01*
X25066Y-22651D01*
X25066Y-22233D01*
X24906Y-21847D01*
X24611Y-21551D01*
X24226Y-21391D01*
X23808Y-21391D01*
X23422Y-21551D01*
X23126Y-21846D01*
X22966Y-22231D01*
X22966Y-22649D01*
X23126Y-23035D01*
X23421Y-23331D01*
X23806Y-23491D01*
X24224Y-23491D01*
X24610Y-23331D01*
X24906Y-23036D01*
X25066Y-22651D01*
X25066Y-24084D01*
X22766Y-24084D01*
X22766Y-09774D01*
X51250Y-09774D01*
X51250Y-24084D01*
M02*
