<?xml version="1.0" encoding="utf-8"?>
<!-- Generator: Adobe Illustrator 15.0.0, SVG Export Plug-In . SVG Version: 6.00 Build 0)  -->
<!DOCTYPE svg PUBLIC "-//W3C//DTD SVG 1.1//EN" "http://www.w3.org/Graphics/SVG/1.1/DTD/svg11.dtd">
<svg version="1.1" xmlns="http://www.w3.org/2000/svg" xmlns:xlink="http://www.w3.org/1999/xlink" x="0px" y="0px" width="310px"
	 height="86.667px" viewBox="0 0 310 86.667" enable-background="new 0 0 310 86.667" xml:space="preserve">
<g id="HULL">
</g>
<g id="COMPONENTS">
</g>
<g id="INLAYS">
	<g>
		<path fill="none" stroke="#000000" stroke-linecap="round" stroke-linejoin="round" d="M12.052,78.281c27.846,0,41.769,0,53.371,0
			s20.884,0,30.166,0c9.282,0,18.564,0,27.846,0c9.282,0,18.564,0,27.846,0s18.564,0,27.846,0c9.282,0,18.563,0,27.846,0
			c9.282,0,18.563,0,30.166,0s25.525,0,67.299-34.807"/>
		<path fill="none" stroke="#000000" stroke-linecap="round" stroke-linejoin="round" d="M12.052,8.667c27.846,0,41.769,0,53.371,0
			s20.884,0,30.166,0c9.282,0,18.564,0,27.846,0c9.282,0,18.564,0,27.846,0s18.564,0,27.846,0c9.282,0,18.563,0,27.846,0
			c9.282,0,18.563,0,30.166,0s25.525,0,67.299,34.807"/>
		
			<line fill="none" stroke="#000000" stroke-linecap="round" stroke-linejoin="round" x1="12.052" y1="8.667" x2="12.052" y2="78.281"/>
		
			<line fill="none" stroke="#000000" stroke-linecap="round" stroke-linejoin="round" x1="41.29" y1="8.667" x2="39.897" y2="8.667"/>
		
			<line fill="none" stroke="#000000" stroke-linecap="round" stroke-linejoin="round" x1="69.136" y1="78.281" x2="67.743" y2="78.281"/>
		
			<line fill="none" stroke="#000000" stroke-linecap="round" stroke-linejoin="round" x1="69.136" y1="8.667" x2="67.743" y2="8.667"/>
		
			<line fill="none" stroke="#000000" stroke-linecap="round" stroke-linejoin="round" x1="96.981" y1="8.667" x2="95.589" y2="8.667"/>
		
			<line fill="none" stroke="#000000" stroke-linecap="round" stroke-linejoin="round" x1="95.589" y1="78.281" x2="96.981" y2="78.281"/>
		
			<line fill="none" stroke="#000000" stroke-linecap="round" stroke-linejoin="round" x1="124.827" y1="8.667" x2="123.435" y2="8.667"/>
		
			<line fill="none" stroke="#000000" stroke-linecap="round" stroke-linejoin="round" x1="123.435" y1="78.281" x2="124.827" y2="78.281"/>
		
			<line fill="none" stroke="#000000" stroke-linecap="round" stroke-linejoin="round" x1="152.673" y1="78.281" x2="151.281" y2="78.281"/>
		
			<line fill="none" stroke="#000000" stroke-linecap="round" stroke-linejoin="round" x1="152.673" y1="8.667" x2="151.281" y2="8.667"/>
		
			<line fill="none" stroke="#000000" stroke-linecap="round" stroke-linejoin="round" x1="179.127" y1="8.667" x2="180.519" y2="8.667"/>
		
			<line fill="none" stroke="#000000" stroke-linecap="round" stroke-linejoin="round" x1="180.519" y1="78.281" x2="179.127" y2="78.281"/>
		
			<line fill="none" stroke="#000000" stroke-linecap="round" stroke-linejoin="round" x1="206.973" y1="78.281" x2="208.365" y2="78.281"/>
		
			<line fill="none" stroke="#000000" stroke-linecap="round" stroke-linejoin="round" x1="208.365" y1="8.667" x2="206.973" y2="8.667"/>
		
			<line fill="none" stroke="#000000" stroke-linecap="round" stroke-linejoin="round" x1="236.211" y1="8.667" x2="234.818" y2="8.667"/>
		
			<line fill="none" stroke="#000000" stroke-linecap="round" stroke-linejoin="round" x1="234.818" y1="78.281" x2="236.211" y2="78.281"/>
		<path fill="none" stroke="#000000" stroke-linecap="round" stroke-linejoin="round" d="M234.818,8.667c0.46,0,0.925,0,1.393,0"/>
		<path fill="none" stroke="#000000" stroke-linecap="round" stroke-linejoin="round" d="M234.818,78.281c0.46,0,0.925,0,1.393,0"/>
		<path fill="none" stroke="#000000" stroke-linecap="round" stroke-linejoin="round" d="M123.435,78.281c0.464,0,0.929,0,1.393,0"
			/>
		<path fill="none" stroke="#000000" stroke-linecap="round" stroke-linejoin="round" d="M262.664,14.471
			c0.457,0.22,0.921,0.449,1.393,0.686"/>
		<path fill="none" stroke="#000000" stroke-linecap="round" stroke-linejoin="round" d="M262.664,72.477
			c0.457-0.22,0.921-0.449,1.393-0.686"/>
		<path fill="none" stroke="#000000" stroke-linecap="round" stroke-linejoin="round" d="M12.052,8.667c0.468,0,0.932,0,1.392,0"/>
		<path fill="none" stroke="#000000" stroke-linecap="round" stroke-linejoin="round" d="M12.052,78.281c0.468,0,0.932,0,1.392,0"/>
		<path fill="none" stroke="#000000" stroke-linecap="round" stroke-linejoin="round" d="M290.51,32.351
			c0.46,0.35,0.924,0.704,1.393,1.064"/>
		<path fill="none" stroke="#000000" stroke-linecap="round" stroke-linejoin="round" d="M290.51,54.598
			c0.46-0.35,0.924-0.704,1.393-1.064"/>
		
			<line fill="none" stroke="#000000" stroke-linecap="round" stroke-linejoin="round" x1="291.902" y1="33.415" x2="290.51" y2="32.351"/>
		
			<line fill="none" stroke="#000000" stroke-linecap="round" stroke-linejoin="round" x1="291.902" y1="53.534" x2="290.51" y2="54.598"/>
		
			<line fill="none" stroke="#000000" stroke-linecap="round" stroke-linejoin="round" x1="264.057" y1="71.792" x2="262.664" y2="72.477"/>
		
			<line fill="none" stroke="#000000" stroke-linecap="round" stroke-linejoin="round" x1="264.057" y1="15.157" x2="262.664" y2="14.471"/>
		
			<line fill="none" stroke="#000000" stroke-linecap="round" stroke-linejoin="round" x1="12.052" y1="78.281" x2="13.444" y2="78.281"/>
	</g>
</g>
</svg>
