<?xml version="1.0" encoding="UTF-8" standalone="no"?>
<!-- Created with Inkscape (http://www.inkscape.org/) -->

<svg
   xmlns:dc="http://purl.org/dc/elements/1.1/"
   xmlns:cc="http://creativecommons.org/ns#"
   xmlns:rdf="http://www.w3.org/1999/02/22-rdf-syntax-ns#"
   xmlns:svg="http://www.w3.org/2000/svg"
   xmlns="http://www.w3.org/2000/svg"
   xmlns:sodipodi="http://sodipodi.sourceforge.net/DTD/sodipodi-0.dtd"
   xmlns:inkscape="http://www.inkscape.org/namespaces/inkscape"
   width="744.09448819"
   height="1052.3622047"
   id="svg2"
   version="1.1"
   inkscape:version="0.48.3.1 r9886"
   sodipodi:docname="Nyt dokument 1">
  <defs
     id="defs4">
    <marker
       inkscape:stockid="Arrow2Lend"
       orient="auto"
       refY="0.0"
       refX="0.0"
       id="Arrow2Lend"
       style="overflow:visible;">
      <path
         id="path3796"
         style="fill-rule:evenodd;stroke-width:0.62500000;stroke-linejoin:round;"
         d="M 8.7185878,4.0337352 L -2.2072895,0.016013256 L 8.7185884,-4.0017078 C 6.9730900,-1.6296469 6.9831476,1.6157441 8.7185878,4.0337352 z "
         transform="scale(1.1) rotate(180) translate(1,0)" />
    </marker>
  </defs>
  <sodipodi:namedview
     id="base"
     pagecolor="#ffffff"
     bordercolor="#666666"
     borderopacity="1.0"
     inkscape:pageopacity="0.0"
     inkscape:pageshadow="2"
     inkscape:zoom="0.49497475"
     inkscape:cx="174.12413"
     inkscape:cy="1076.6392"
     inkscape:document-units="px"
     inkscape:current-layer="layer1"
     showgrid="false"
     inkscape:window-width="1440"
     inkscape:window-height="849"
     inkscape:window-x="0"
     inkscape:window-y="0"
     inkscape:window-maximized="1" />
  <metadata
     id="metadata7">
    <rdf:RDF>
      <cc:Work
         rdf:about="">
        <dc:format>image/svg+xml</dc:format>
        <dc:type
           rdf:resource="http://purl.org/dc/dcmitype/StillImage" />
        <dc:title></dc:title>
      </cc:Work>
    </rdf:RDF>
  </metadata>
  <g
     inkscape:label="Layer 1"
     inkscape:groupmode="layer"
     id="layer1">
    <rect
       style="opacity:0.3;fill:#a9a9a9;fill-opacity:1;fill-rule:nonzero;stroke:#7a0000;stroke-width:27.31316757;stroke-linecap:round;stroke-linejoin:round;stroke-miterlimit:4;stroke-opacity:1;stroke-dasharray:none;stroke-dashoffset:0"
       id="rect2985"
       width="387.82059"
       height="746.09662"
       x="-75.081413"
       y="-387.18945" />
    <rect
       style="opacity:0.3;fill:#a9a9a9;fill-opacity:1;fill-rule:nonzero;stroke:#7a0000;stroke-width:6.25;stroke-linecap:round;stroke-linejoin:round;stroke-miterlimit:4;stroke-opacity:1;stroke-dasharray:none;stroke-dashoffset:0"
       id="rect2987"
       width="154.28572"
       height="65.714287"
       x="528.57147"
       y="296.64792" />
    <text
       xml:space="preserve"
       style="font-size:40px;font-style:normal;font-weight:normal;line-height:125%;letter-spacing:0px;word-spacing:0px;fill:#000000;fill-opacity:1;stroke:none;font-family:Sans"
       x="100.00001"
       y="312.36218"
       id="text2989"
       sodipodi:linespacing="125%"><tspan
         sodipodi:role="line"
         id="tspan2991"
         x="100.00001"
         y="312.36218">SSM</tspan></text>
    <text
       xml:space="preserve"
       style="font-size:40px;font-style:normal;font-weight:normal;line-height:125%;letter-spacing:0px;word-spacing:0px;fill:#000000;fill-opacity:1;stroke:none;font-family:Sans"
       x="590.71429"
       y="338.07648"
       id="text2993"
       sodipodi:linespacing="125%"><tspan
         sodipodi:role="line"
         id="tspan2995"
         x="590.71429"
         y="338.07648">LLI</tspan></text>
    <text
       xml:space="preserve"
       style="font-size:40px;font-style:normal;font-weight:normal;line-height:125%;letter-spacing:0px;word-spacing:0px;fill:#000000;fill-opacity:1;stroke:none;font-family:Sans"
       x="305.71429"
       y="379.50504"
       id="text2997"
       sodipodi:linespacing="125%"><tspan
         sodipodi:role="line"
         id="tspan2999"
         x="305.71429"
         y="379.50504">n1, n2</tspan></text>
    <path
       style="fill:none;stroke:#000000;stroke-width:2;stroke-linecap:butt;stroke-linejoin:miter;stroke-opacity:1;stroke-miterlimit:4;stroke-dasharray:none;marker-end:url(#Arrow2Lend)"
       d="m 240,333.07647 284.28571,0"
       id="path3001"
       inkscape:connector-curvature="0" />
    <text
       xml:space="preserve"
       style="font-size:40px;font-style:normal;font-weight:normal;text-align:center;line-height:125%;letter-spacing:0px;word-spacing:0px;text-anchor:middle;fill:#000000;fill-opacity:1;stroke:none;font-family:Sans"
       x="148.29672"
       y="-264.87674"
       id="text4215"
       sodipodi:linespacing="125%"><tspan
         sodipodi:role="line"
         id="tspan4217"
         x="148.29672"
         y="-264.87674">OSM</tspan><tspan
         sodipodi:role="line"
         x="148.29672"
         y="-214.87674"
         id="tspan4219">(user data)</tspan></text>
    <text
       sodipodi:linespacing="125%"
       id="text4221"
       y="-64.866539"
       x="150.31703"
       style="font-size:40px;font-style:normal;font-weight:normal;text-align:center;line-height:125%;letter-spacing:0px;word-spacing:0px;text-anchor:middle;fill:#000000;fill-opacity:1;stroke:none;font-family:Sans"
       xml:space="preserve"><tspan
         id="tspan4225"
         y="-64.866539"
         x="150.31703"
         sodipodi:role="line">course keeping</tspan></text>
    <text
       xml:space="preserve"
       style="font-size:40px;font-style:normal;font-weight:normal;line-height:125%;letter-spacing:0px;word-spacing:0px;fill:#000000;fill-opacity:1;stroke:none;font-family:Sans"
       x="-84.852814"
       y="-388.11536"
       id="text4229"
       sodipodi:linespacing="125%"><tspan
         sodipodi:role="line"
         id="tspan4231"
         x="-84.852814"
         y="-388.11536">HLI</tspan></text>
    <rect
       style="opacity:0.3;fill:#a9a9a9;fill-opacity:1;fill-rule:nonzero;stroke:#7a0000;stroke-width:2;stroke-linecap:round;stroke-linejoin:round;stroke-miterlimit:4;stroke-opacity:1;stroke-dasharray:none;stroke-dashoffset:0"
       id="rect4233"
       width="260.61935"
       height="189.90868"
       x="24.243662"
       y="-355.79047" />
    <rect
       style="opacity:0.3;fill:#a9a9a9;fill-opacity:1;fill-rule:nonzero;stroke:#7a0000;stroke-width:2;stroke-linecap:round;stroke-linejoin:round;stroke-miterlimit:4;stroke-opacity:1;stroke-dasharray:none;stroke-dashoffset:0"
       id="rect4235"
       width="393.9595"
       height="84.852814"
       x="-40.406101"
       y="-137.59752" />
    <rect
       style="opacity:0.3;fill:#a9a9a9;fill-opacity:1;fill-rule:nonzero;stroke:#7a0000;stroke-width:2;stroke-linecap:round;stroke-linejoin:round;stroke-miterlimit:4;stroke-opacity:1;stroke-dasharray:none;stroke-dashoffset:0"
       id="rect4237"
       width="218.19295"
       height="129.29953"
       x="18.182745"
       y="219.99649" />
    <text
       xml:space="preserve"
       style="font-size:40px;font-style:normal;font-weight:normal;line-height:125%;letter-spacing:0px;word-spacing:0px;fill:#000000;fill-opacity:1;stroke:none;font-family:Sans"
       x="161.62442"
       y="88.676643"
       id="text4239"
       sodipodi:linespacing="125%"><tspan
         sodipodi:role="line"
         id="tspan4241"
         x="161.62442"
         y="88.676643">theta_e, V_r</tspan></text>
    <path
       inkscape:connector-curvature="0"
       id="path4243"
       d="m 138.47872,-56.406855 0,284.285705"
       style="fill:none;stroke:#000000;stroke-width:2;stroke-linecap:butt;stroke-linejoin:miter;stroke-miterlimit:4;stroke-opacity:1;stroke-dasharray:none;marker-end:url(#Arrow2Lend)" />
    <text
       xml:space="preserve"
       style="font-size:40px;font-style:normal;font-weight:normal;line-height:125%;letter-spacing:0px;word-spacing:0px;fill:#000000;fill-opacity:1;stroke:none;font-family:Sans"
       x="-165.66502"
       y="62.412689"
       id="text4245"
       sodipodi:linespacing="125%"><tspan
         sodipodi:role="line"
         id="tspan4247"
         x="-165.66502"
         y="62.412689">M</tspan></text>
    <path
       style="fill:none;stroke:#000000;stroke-width:1px;stroke-linecap:butt;stroke-linejoin:miter;stroke-opacity:1"
       d="m -153.54319,-4.2573793 c -2.81128,-9.3006387 -2.0203,-18.7233237 -2.0203,-28.2842717 0,-2.020305 -0.28572,-4.060915 0,-6.060915 1.42398,-9.967845 6.12896,-20.293779 12.12183,-28.284271 1.14286,-1.52381 2.69374,-2.69374 4.04061,-4.04061 1.34687,-1.34687 2.55324,-2.850715 4.04061,-4.04061 1.89603,-1.516825 4.11843,-2.583748 6.06091,-4.040611 8.77125,-6.578434 -11.60638,5.751648 8.08122,-6.060915 1.29126,-0.774751 2.61204,-1.544114 4.04061,-2.020305 0.63888,-0.212959 1.54412,0.476191 2.02031,0 0.47619,-0.47619 -0.60234,-1.719136 0,-2.020305 2.64699,-1.323493 8.33354,1.666709 10.10153,2.020305 1.32071,0.264143 2.73395,-0.326664 4.04061,0 2.921767,0.730443 5.224073,3.088229 8.081216,4.04061 0.638876,0.212959 1.34687,0 2.020305,0 2.020305,0.673435 4.083642,1.229396 6.060915,2.020305 8.940962,3.576385 -1.624364,0.690356 10.101526,4.040611 2.669809,0.762802 5.529082,0.926531 8.08122,2.020305 27.41494,11.74926 -13.417225,-2.452104 12.121831,6.060915 5.776608,1.925536 7.80012,2.772207 14.142135,4.04061 0.660358,0.132072 1.719136,0.602339 2.020305,0 0.602339,-1.204677 0,-2.69374 0,-4.04061"
       id="path4249"
       inkscape:connector-curvature="0" />
    <path
       style="fill:none;stroke:#000000;stroke-width:1px;stroke-linecap:butt;stroke-linejoin:miter;stroke-opacity:1"
       d="m -133.34014,94.73757 c -0.42185,5.43287 -6.76439,8.87484 -8.08122,14.14214 -0.32666,1.30665 0,2.69374 0,4.04061 0,2.69374 0,5.38748 0,8.08122 0,6.06091 0,12.12183 0,18.18274 0,2.69374 -0.33411,5.40828 0,8.08122 0.3444,2.7552 1.47576,5.3585 2.02031,8.08122 3.95886,23.75318 0.0222,2.12017 4.04061,20.20305 2.1922,9.86489 1.08683,8.28571 4.04061,16.16244 6.50909,17.35758 0.97999,3.7353 8.08122,16.16245 1.49422,2.61488 2.85425,5.31303 4.04061,8.08122 0.83889,1.9574 0.96373,4.21191 2.0203,6.06091 1.67059,2.92353 4.10379,5.34124 6.06092,8.08122 2.82261,3.95166 5.25861,8.17017 8.08122,12.12183 1.95713,2.73998 4.103785,5.34124 6.060916,8.08122 1.411307,1.97583 2.486175,4.1956 4.04061,6.06092 3.658196,4.38983 8.08122,8.08122 12.12183,12.12183 2.693741,2.69374 5.106482,5.70143 8.081221,8.08122 1.896031,1.51682 4.164884,2.52378 6.060915,4.04061 1.487369,1.18989 2.336939,3.18877 4.04061,4.04061 2.483506,1.24175 5.411411,1.2575 8.081221,2.0203 2.04765,0.58505 3.99491,1.50381 6.060915,2.02031 6.662664,1.66566 13.498875,2.55079 20.203051,4.04061 2.69374,0.67343 5.38748,1.34687 8.08122,2.0203 2.020305,0 4.068099,-0.33213 6.060915,0 2.100614,0.35011 3.972682,1.60266 6.0609156,2.02031 1.3207148,0.26414 2.6937402,0 4.0406102,0 0.6734351,0 2.0203051,-0.67344 2.0203051,0 0,0.67343 -1.34687,0 -2.0203051,0"
       id="path4251"
       inkscape:connector-curvature="0" />
  </g>
</svg>
